<?xml version="1.0" standalone="no"?>
<!DOCTYPE svg PUBLIC "-//W3C//DTD SVG 1.1//EN" "http://www.w3.org/Graphics/SVG/1.1/DTD/svg11.dtd" >
<svg xmlns="http://www.w3.org/2000/svg" xmlns:xlink="http://www.w3.org/1999/xlink" version="1.1">
<metadata>
Created by FontForge 20161003 at Thu Oct  4 07:30:09 2018
 By www-data
2011 Fred Smeijers published by FSI FontShop International GmbH
</metadata>
<defs>
<font id="QuadraatSansPro" horiz-adv-x="504" >
  <font-face 
    font-family="QuadraatSansPro"
    font-weight="400"
    font-stretch="normal"
    units-per-em="1000"
    panose-1="2 11 5 4 3 1 1 1 1 2"
    ascent="761"
    descent="-239"
    x-height="456"
    cap-height="644"
    bbox="-516 -336 1280 1032"
    underline-thickness="65"
    underline-position="-228"
    unicode-range="U+000D-FEFF"
  />
<missing-glyph horiz-adv-x="628" 
d="M0 0v635h628v-635h-628zM315 293l114 -115l30 31l-114 115l112 114l-30 30l-113 -114l-110 112l-30 -31l110 -111l-113 -113l31 -32z" />
    <glyph glyph-name="f_b" unicode="fb" horiz-adv-x="808" 
d="M352 -12v668h-84q-41 0 -68.5 -37t-27.5 -103v-60h116l-20 -68h-96v-388h-88v388h-76l20 68h56v36q0 103 53 161.5t151 58.5q53 0 96 -16l56 16v-304q57 60 136 60q90 0 139 -58.5t49 -169.5q0 -114 -63 -183t-165 -69q-56 0 -96 24zM536 400q-48 0 -96 -32v-280
q36 -36 100 -36q58 0 95 48.5t37 131.5q0 168 -136 168z" />
    <glyph glyph-name="f_f" unicode="ff" horiz-adv-x="540" 
d="M352 0v388h-180v-388h-88v388h-76l20 68h56v20q0 102 56.5 161t155.5 59q61 0 121 -31q53 47 139 47q68 0 116 -24l-32 -68l-88 36h-16q-41 0 -68.5 -37t-27.5 -103v-60h116l-20 -68h-96v-388h-88zM172 500v-44h180v36q0 62 20 110l-97 38h-7q-41 0 -68.5 -37t-27.5 -103
z" />
    <glyph glyph-name="f_f_b" unicode="ffb" horiz-adv-x="1072" 
d="M348 0v388h-176v-388h-88v388h-76l20 68h56v20q0 102 56.5 161t155.5 59q65 0 122 -26q53 42 134 42q53 0 96 -16l56 16v-304q57 60 136 60q90 0 139 -58.5t49 -169.5q0 -114 -63 -183t-165 -69q-56 0 -96 24l-88 -24v668h-84q-41 0 -68.5 -37t-27.5 -103v-60h116
l-20 -68h-96v-388h-88zM800 400q-48 0 -96 -32v-280q36 -36 100 -36q58 0 95 48.5t37 131.5q0 168 -136 168zM172 500v-44h176v36q0 68 22 115l-82 33h-20q-41 0 -68.5 -37t-27.5 -103z" />
    <glyph glyph-name="f_f_h" unicode="ffh" horiz-adv-x="1068" 
d="M348 0v388h-176v-388h-88v388h-76l20 68h56v20q0 102 56.5 161t155.5 59q65 0 122 -26q53 42 134 42q53 0 96 -16l56 16v-304q66 60 144 60q65 0 102.5 -35t37.5 -105v-328h-88v292q0 58 -18.5 83t-65.5 25q-57 0 -112 -48v-352h-88v656h-84q-41 0 -68.5 -37t-27.5 -103
v-60h116l-20 -68h-96v-388h-88zM172 500v-44h176v36q0 68 22 115l-82 33h-20q-41 0 -68.5 -37t-27.5 -103z" />
    <glyph glyph-name="f_f_i" unicode="ffi" horiz-adv-x="780" 
d="M348 0v388h-176v-388h-88v388h-76l20 68h56v20q0 102 56.5 161t155.5 59q73 0 128 -29q57 45 148 45q76 0 140 -32l-39 -75l-97 51h-24q-53 0 -84.5 -36.5t-31.5 -103.5v-60h220l44 12v-468h-88v388h-176v-388h-88zM172 500v-44h176v36q0 67 25 114l-85 34h-20
q-41 0 -68.5 -37t-27.5 -103z" />
    <glyph glyph-name="f_f_j" unicode="ffj" horiz-adv-x="780" 
d="M348 0v388h-176v-388h-88v388h-76l20 68h56v20q0 102 56.5 161t155.5 59q73 0 128 -29q57 45 148 45q76 0 140 -32l-39 -75l-97 51h-24q-53 0 -84.5 -36.5t-31.5 -103.5v-60h220l44 12v-488q0 -103 -48.5 -155.5t-139.5 -52.5l-24 68q72 0 98 33t26 107v408h-176v-388
h-88zM172 500v-44h176v36q0 67 25 114l-85 34h-20q-41 0 -68.5 -37t-27.5 -103z" />
    <glyph glyph-name="f_f_k" unicode="ffk" horiz-adv-x="1024" 
d="M348 0v388h-176v-388h-88v388h-76l20 68h56v20q0 102 56.5 161t155.5 59q65 0 122 -26q53 42 134 42q53 0 96 -16l56 16v-712h-88v656h-84q-41 0 -68.5 -37t-27.5 -103v-60h116l-20 -68h-96v-388h-88zM908 0q-69 70 -188 244l176 212h112l-192 -200l196 -256h-104z
M172 500v-44h176v36q0 68 22 115l-82 33h-20q-41 0 -68.5 -37t-27.5 -103z" />
    <glyph glyph-name="f_f_l" unicode="ffl" horiz-adv-x="784" 
d="M348 0v388h-176v-388h-88v388h-76l20 68h56v20q0 102 56.5 161t155.5 59q65 0 122 -26q53 42 134 42q53 0 96 -16l56 16v-712h-88v656h-84q-41 0 -68.5 -37t-27.5 -103v-60h116l-20 -68h-96v-388h-88zM172 500v-44h176v36q0 68 22 115l-82 33h-20q-41 0 -68.5 -37
t-27.5 -103z" />
    <glyph glyph-name="f_f_t" unicode="fft" horiz-adv-x="844" 
d="M352 0v388h-180v-388h-88v388h-76l20 68h56v20q0 102 56.5 161t155.5 59q63 0 121 -30q51 46 135 46q60 0 108 -24l-32 -68l-76 36h-12q-42 0 -71 -37t-29 -103v-60h176v96l96 32l-8 -128h128l-20 -68h-108v-252q0 -44 13 -62t43 -18q43 0 76 20l-20 -72q-40 -16 -80 -16
q-61 0 -90.5 32.5t-29.5 103.5v264h-176v-388h-88zM172 500v-44h180v36q0 62 20 110l-97 38h-7q-41 0 -68.5 -37t-27.5 -103z" />
    <glyph glyph-name="f_h" unicode="fh" horiz-adv-x="804" 
d="M352 0v656h-84q-41 0 -68.5 -37t-27.5 -103v-60h116l-20 -68h-96v-388h-88v388h-76l20 68h56v36q0 103 53 161.5t151 58.5q53 0 96 -16l56 16v-304q66 60 144 60q65 0 102.5 -35t37.5 -105v-328h-88v292q0 58 -18.5 83t-65.5 25q-57 0 -112 -48v-352h-88z" />
    <glyph glyph-name="f_i" unicode="fi" horiz-adv-x="516" 
d="M348 0v388h-176v-388h-88v388h-76l20 68h56v36q0 102 59.5 161t164.5 59q76 0 140 -32l-39 -75l-97 51h-24q-53 0 -84.5 -36.5t-31.5 -103.5v-60h220l44 12v-468h-88z" />
    <glyph glyph-name="f_j" unicode="fj" horiz-adv-x="516" 
d="M248 -228l-24 68q72 0 98 33t26 107v408h-176v-388h-88v388h-76l20 68h56v36q0 102 59.5 161t164.5 59q76 0 140 -32l-39 -75l-97 51h-24q-53 0 -84.5 -36.5t-31.5 -103.5v-60h220l44 12v-488q0 -103 -48.5 -155.5t-139.5 -52.5z" />
    <glyph glyph-name="f_k" unicode="fk" horiz-adv-x="760" 
d="M352 0v656h-84q-41 0 -68.5 -37t-27.5 -103v-60h116l-20 -68h-96v-388h-88v388h-76l20 68h56v36q0 103 53 161.5t151 58.5q53 0 96 -16l56 16v-712h-88zM644 0q-69 70 -188 244l176 212h112l-192 -200l196 -256h-104z" />
    <glyph glyph-name="f_l" unicode="fl" horiz-adv-x="520" 
d="M352 0v656h-84q-41 0 -68.5 -37t-27.5 -103v-60h116l-20 -68h-96v-388h-88v388h-76l20 68h56v36q0 103 53 161.5t151 58.5q53 0 96 -16l56 16v-712h-88z" />
    <glyph glyph-name="f_t" unicode="ft" horiz-adv-x="576" 
d="M348 124v264h-176v-388h-88v388h-76l20 68h56v36q0 92 56 156t144 64q60 0 108 -24l-32 -68l-76 36h-12q-42 0 -71 -37t-29 -103v-60h176v96l96 32l-8 -128h128l-20 -68h-108v-252q0 -44 13 -62t43 -18q43 0 76 20l-20 -72q-40 -16 -80 -16q-61 0 -90.5 32.5t-29.5 103.5
z" />
    <glyph glyph-name=".notdef" horiz-adv-x="628" 
d="M0 0v635h628v-635h-628zM315 293l114 -115l30 31l-114 115l112 114l-30 30l-113 -114l-110 112l-30 -31l110 -111l-113 -113l31 -32z" />
    <glyph glyph-name=".null" horiz-adv-x="0" 
 />
    <glyph glyph-name=".null" horiz-adv-x="0" 
 />
    <glyph glyph-name="nonmarkingreturn" horiz-adv-x="333" 
 />
    <glyph glyph-name="CR" unicode="&#xd;" horiz-adv-x="204" 
 />
    <glyph glyph-name="space" unicode=" " horiz-adv-x="204" 
 />
    <glyph glyph-name="exclam" unicode="!" horiz-adv-x="264" 
d="M132 -12q-29 0 -46.5 20t-17.5 48t17.5 48t46.5 20t46.5 -20t17.5 -48t-17.5 -48t-46.5 -20zM96 180l-12 464h100l-20 -452z" />
    <glyph glyph-name="quotedbl" unicode="&#x22;" horiz-adv-x="404" 
d="M96 412l-24 232h96l-24 -232h-48zM260 412l-24 232h96l-24 -232h-48z" />
    <glyph glyph-name="numbersign" unicode="#" horiz-adv-x="656" 
d="M284 -4l77 224h-142l-83 -240l-44 16l77 224h-133l12 44h137l48 140h-149l12 44h153l79 228l44 -16l-74 -212h143l79 228l44 -16l-74 -212h130l-12 -44h-133l-49 -140h146l-12 -44h-149l-83 -240zM283 404l-49 -140h143l48 140h-142z" />
    <glyph glyph-name="dollar" unicode="$" horiz-adv-x="428" 
d="M132 -104l14 95q-60 6 -106 29l-12 112q56 -49 130 -61l30 208l-36 25q-55 38 -83.5 76.5t-28.5 91.5q0 80 58 132t146 52l12 80h36l-12 -82q63 -8 104 -38v-104q-47 52 -115 62l-31 -218l38 -24q62 -39 89 -76t27 -92q0 -80 -55.5 -128t-144.5 -48h-7l-13 -92h-40z
M136 484q0 -34 16 -57t51 -48l29 197q-43 -2 -69.5 -25.5t-26.5 -66.5zM296 156q0 24 -12.5 44.5t-24.5 29.5t-36 25l-27 -187q43 1 71.5 23.5t28.5 64.5z" />
    <glyph glyph-name="percent" unicode="%" horiz-adv-x="852" 
d="M192 292q-77 0 -122.5 46t-45.5 134q0 85 46 134.5t122 49.5q77 0 122.5 -46t45.5 -134q0 -85 -46 -134.5t-122 -49.5zM192 344q42 0 65 34t23 98q0 61 -23.5 94.5t-64.5 33.5q-42 0 -65 -34t-23 -98q0 -61 23.5 -94.5t64.5 -33.5zM272 0l256 660l52 -20l-256 -660z
M660 -8q-77 0 -122.5 46t-45.5 134q0 85 46 134.5t122 49.5q77 0 122.5 -46t45.5 -134q0 -85 -46 -134.5t-122 -49.5zM660 44q42 0 65 34t23 98q0 61 -23.5 94.5t-64.5 33.5q-42 0 -65 -34t-23 -98q0 -61 23.5 -94.5t64.5 -33.5z" />
    <glyph glyph-name="ampersand" unicode="&#x26;" horiz-adv-x="676" 
d="M460 360h176l20 -64h-112q4 -16 4 -40q0 -80 -42 -147q90 -76 178 -109l-136 -28l-28 20q-29 20 -72 54q-76 -58 -180 -58q-102 0 -161 47t-59 121q0 57 28 99t94 81q-74 99 -74 172q0 68 49.5 108t126.5 40q81 0 124.5 -37t43.5 -99q0 -50 -29.5 -86t-86.5 -74l-40 -27
q82 -98 175 -183q25 48 25 106q0 20 -4 40zM403 86q-116 105 -199 206q-60 -47 -60 -108q0 -66 42.5 -99t105.5 -33q65 0 111 34zM184 512q0 -52 64 -134l40 30q64 48 64 104q0 37 -21 58.5t-63 21.5q-33 0 -58.5 -22.5t-25.5 -57.5z" />
    <glyph glyph-name="quotesingle" unicode="'" horiz-adv-x="240" 
d="M96 412l-24 232h96l-24 -232h-48z" />
    <glyph glyph-name="parenleft" unicode="(" horiz-adv-x="332" 
d="M316 -208l-52 -20q-98 64 -147 191.5t-49 280.5q0 152 49 278t147 190l52 -16q-77 -67 -120.5 -189t-43.5 -263t43.5 -263t120.5 -189z" />
    <glyph glyph-name="parenright" unicode=")" horiz-adv-x="332" 
d="M68 -228l-52 20q77 67 120.5 189t43.5 263t-43.5 263t-120.5 189l52 16q98 -64 147 -190t49 -278q0 -153 -49 -280.5t-147 -191.5z" />
    <glyph glyph-name="asterisk" unicode="*" horiz-adv-x="480" 
d="M80 316l124 148l-188 48l20 68l180 -72l-12 192h72l-12 -192l180 72l20 -68l-188 -48l124 -148l-56 -44l-104 164l-104 -164z" />
    <glyph glyph-name="plus" unicode="+" 
d="M48 288v60h172v176h68v-176h168v-60h-168v-180h-68v180h-172z" />
    <glyph glyph-name="comma" unicode="," horiz-adv-x="264" 
d="M108 -172l-40 36q68 58 68 124l-16 4q-56 14 -56 64q0 30 18.5 49t45.5 19q72 0 72 -100q0 -114 -92 -196z" />
    <glyph glyph-name="hyphen" unicode="-" horiz-adv-x="328" 
d="M48 200l-8 80l240 28l8 -80z" />
    <glyph glyph-name="period" unicode="." horiz-adv-x="264" 
d="M132 -12q-29 0 -46.5 20t-17.5 48t17.5 48t46.5 20t46.5 -20t17.5 -48t-17.5 -48t-46.5 -20z" />
    <glyph glyph-name="slash" unicode="/" horiz-adv-x="292" 
d="M48 -104l136 768l60 -12l-136 -768z" />
    <glyph glyph-name="zero" unicode="0" horiz-adv-x="496" 
d="M248 -12q-97 0 -154.5 65t-57.5 175q0 109 59 174.5t153 65.5q97 0 154.5 -65t57.5 -175q0 -109 -59 -174.5t-153 -65.5zM248 52q60 0 94 45.5t34 126.5q0 83 -33.5 131.5t-94.5 48.5q-60 0 -94 -45.5t-34 -126.5q0 -83 33.5 -131.5t94.5 -48.5z" />
    <glyph glyph-name="one" unicode="1" horiz-adv-x="332" 
d="M148 0v356l-124 -16v48l216 80v-468h-92z" />
    <glyph glyph-name="two" unicode="2" horiz-adv-x="436" 
d="M40 0l-24 44l104 76q82 60 115 97t33 87q0 38 -28 59t-72 21q-61 0 -128 -20l28 88q60 16 124 16q78 0 125 -37.5t47 -102.5q0 -33 -10 -60t-35.5 -54.5t-47.5 -46t-67 -51.5l-48 -36h260l-24 -80h-352z" />
    <glyph glyph-name="three" unicode="3" horiz-adv-x="416" 
d="M12 -208v44h104q76 0 128 35.5t52 104.5q0 116 -156 116h-88l24 72h91q45 26 79 64t34 80q0 45 -26 64.5t-78 19.5q-78 0 -148 -28l28 84q60 20 128 20q95 0 141.5 -38t46.5 -102q0 -33 -12.5 -61.5t-36 -50t-40.5 -33t-42 -26.5q66 -15 108.5 -57t42.5 -112
q0 -98 -73.5 -157t-194.5 -59q-65 0 -112 20z" />
    <glyph glyph-name="four" unicode="4" 
d="M32 0l-16 72l260 372l92 24v-392h112l-28 -76h-84v-200l-88 -28v228h-248zM88 76h192v282z" />
    <glyph glyph-name="five" unicode="5" horiz-adv-x="440" 
d="M28 -208v44h104q84 0 134 37.5t50 114.5q0 71 -63.5 107t-200.5 45l20 316h344l-28 -80h-249l-11 -163q284 -31 284 -213q0 -118 -76.5 -173t-195.5 -55q-65 0 -112 20z" />
    <glyph glyph-name="six" unicode="6" horiz-adv-x="496" 
d="M184 384v36q32 24 80 24q89 0 140.5 -56.5t51.5 -159.5t-58 -171.5t-150 -68.5q-108 0 -162 81.5t-54 226.5q0 183 94 299.5t234 116.5q57 0 104 -20v-44h-80q-113 0 -186.5 -94t-73.5 -262q0 -109 32 -172.5t96 -63.5q50 0 81 43.5t31 124.5q0 160 -136 160h-44z" />
    <glyph glyph-name="seven" unicode="7" horiz-adv-x="440" 
d="M60 -196l268 564h-312v88h396l16 -40l-284 -644z" />
    <glyph glyph-name="eight" unicode="8" horiz-adv-x="500" 
d="M136 316l57 42l-45 34q-46 35 -71 70.5t-25 89.5q0 67 56.5 113.5t143.5 46.5q90 0 141 -41.5t51 -106.5q0 -91 -124 -180l-14 -10l66 -50q44 -34 68 -69.5t24 -82.5q0 -79 -60 -131.5t-160 -52.5q-87 0 -147.5 45.5t-60.5 126.5q0 46 24.5 82.5t75.5 73.5zM292 284
l-53 39l-47 -39q-64 -53 -64 -120q0 -52 34.5 -84t85.5 -32q53 0 88.5 29.5t35.5 82.5q0 40 -17.5 65.5t-62.5 58.5zM140 560q0 -38 17.5 -62.5t50.5 -49.5l52 -40l16 12q49 37 64.5 70t15.5 70q0 42 -29.5 69t-74.5 27q-52 0 -82 -26.5t-30 -69.5z" />
    <glyph glyph-name="nine" unicode="9" horiz-adv-x="496" 
d="M52 -208v44h88q103 0 163.5 87t60.5 241q0 108 -34 172t-98 64q-46 0 -77 -38.5t-31 -117.5q0 -172 136 -172h44v-36q-32 -24 -80 -24q-89 0 -140.5 59.5t-51.5 168.5q0 101 58 164.5t146 63.5q111 0 165.5 -81t54.5 -227q0 -179 -77.5 -283.5t-214.5 -104.5
q-65 0 -112 20z" />
    <glyph glyph-name="colon" unicode=":" horiz-adv-x="264" 
d="M132 -12q-29 0 -46.5 20t-17.5 48t17.5 48t46.5 20t46.5 -20t17.5 -48t-17.5 -48t-46.5 -20zM132 264q-29 0 -46.5 20t-17.5 48t17.5 48t46.5 20t46.5 -20t17.5 -48t-17.5 -48t-46.5 -20z" />
    <glyph glyph-name="semicolon" unicode=";" horiz-adv-x="264" 
d="M132 264q-29 0 -46.5 20t-17.5 48t17.5 48t46.5 20t46.5 -20t17.5 -48t-17.5 -48t-46.5 -20zM108 -172l-40 36q68 58 68 124l-16 4q-56 14 -56 64q0 30 18.5 49t45.5 19q72 0 72 -100q0 -114 -92 -196z" />
    <glyph glyph-name="less" unicode="&#x3c;" 
d="M60 320l340 200l40 -48l-264 -152l260 -156l-44 -48z" />
    <glyph glyph-name="equal" unicode="=" 
d="M48 384v60h408v-60h-408zM48 188v60h408v-60h-408z" />
    <glyph glyph-name="greater" unicode="&#x3e;" 
d="M104 116l-40 48l264 152l-260 156l44 48l332 -204z" />
    <glyph glyph-name="question" unicode="?" horiz-adv-x="376" 
d="M152 -12q-29 0 -46.5 20t-17.5 48t17.5 48t46.5 20t46.5 -20t17.5 -48t-17.5 -48t-46.5 -20zM200 176q-53 10 -80.5 28t-27.5 52q0 36 32 68l64 64q72 72 72 120q0 31 -25 50.5t-83 29.5l-112 20l39 68l137 -24q132 -24 132 -128q0 -77 -96 -164l-44 -40q-32 -30 -32 -52
q0 -27 64 -40z" />
    <glyph glyph-name="at" unicode="@" horiz-adv-x="872" 
d="M620 40q62 0 107 66.5t45 185.5q0 133 -84.5 220.5t-227.5 87.5q-150 0 -249 -105.5t-99 -262.5q0 -99 32 -179t85 -130t117.5 -76.5t133.5 -26.5v-48q-68 0 -131 15.5t-121.5 51.5t-101.5 88.5t-68.5 131.5t-25.5 177q0 93 35.5 173t95 133.5t138 83.5t163.5 30
q172 0 278 -98.5t106 -265.5q0 -132 -72.5 -218t-183.5 -86q-65 0 -81 55q-55 -55 -131 -55q-58 0 -91 29.5t-33 82.5q0 94 136 132l116 32v68q0 37 -14 54.5t-46 17.5q-35 0 -92 -52l-44 -40l-52 60q109 96 220 96q59 0 88 -28t28 -80l-4 -252q-1 -39 3.5 -53.5t24.5 -14.5
zM412 52q48 0 96 32v126l-84 -26q-38 -12 -59 -28.5t-21 -47.5q0 -56 68 -56z" />
    <glyph glyph-name="A" unicode="A" horiz-adv-x="552" 
d="M440 0l-56 152h-235l-53 -152h-88l215 596l-19 48h104l236 -644h-104zM264 480l-90 -256h184z" />
    <glyph glyph-name="B" unicode="B" horiz-adv-x="556" 
d="M88 16v620q88 20 180 20q105 0 162.5 -42.5t57.5 -113.5q0 -97 -97 -157q57 -16 89 -58t32 -97q0 -91 -63.5 -145.5t-176.5 -54.5q-100 0 -184 28zM264 288h-80v-208q36 -16 88 -16q64 0 102 30t38 86q0 108 -148 108zM248 584h-64v-224h143q61 53 61 124q0 100 -140 100
z" />
    <glyph glyph-name="C" unicode="C" horiz-adv-x="624" 
d="M572 132v-88q-32 -23 -87 -39.5t-109 -16.5q-153 0 -242.5 89.5t-89.5 242.5q0 147 92.5 241.5t239.5 94.5q63 0 115 -17t81 -39v-92q-97 68 -196 68q-101 0 -164.5 -66.5t-63.5 -181.5t63 -187.5t165 -72.5q118 0 196 64z" />
    <glyph glyph-name="D" unicode="D" horiz-adv-x="656" 
d="M88 16v624q96 16 180 16q165 0 254.5 -88.5t89.5 -243.5q0 -154 -89.5 -245t-242.5 -91q-89 0 -192 28zM280 64q103 0 167.5 69t64.5 187q0 123 -67.5 193.5t-188.5 70.5h-72v-504q45 -16 96 -16z" />
    <glyph glyph-name="E" unicode="E" horiz-adv-x="492" 
d="M88 0v644h352l-32 -76h-224v-204h212l-32 -76h-180v-212h268l-32 -76h-332z" />
    <glyph glyph-name="F" unicode="F" horiz-adv-x="468" 
d="M88 0v644h356l-32 -76h-228v-216h216l-32 -76h-184v-276h-96z" />
    <glyph glyph-name="G" unicode="G" horiz-adv-x="668" 
d="M584 -12l-65 28q-72 -28 -143 -28q-153 0 -242.5 89.5t-89.5 242.5q0 147 94.5 241.5t241.5 94.5q63 0 117 -17.5t83 -38.5v-92q-97 68 -200 68q-102 0 -167 -67t-65 -181q0 -115 63 -187.5t165 -72.5q62 0 116 20v176h-120l28 76h184v-352z" />
    <glyph glyph-name="H" unicode="H" horiz-adv-x="672" 
d="M488 0v296h-304v-296h-96v644h96v-272h304v272h96v-644h-96z" />
    <glyph glyph-name="I" unicode="I" horiz-adv-x="272" 
d="M88 0v644h96v-644h-96z" />
    <glyph glyph-name="J" unicode="J" horiz-adv-x="272" 
d="M-12 -196l-36 80h40q53 0 74.5 28t21.5 88v644h96v-644q0 -102 -49.5 -149t-146.5 -47z" />
    <glyph glyph-name="K" unicode="K" horiz-adv-x="588" 
d="M88 0v644h96v-644h-96zM456 0l-260 320l256 324h108l-256 -312l272 -332h-120z" />
    <glyph glyph-name="L" unicode="L" horiz-adv-x="460" 
d="M88 0v644h96v-568h252l-32 -76h-316z" />
    <glyph glyph-name="M" unicode="M" horiz-adv-x="768" 
d="M368 184l-200 287v-471h-80v586l-40 58h116l220 -320l240 320h56v-644h-96v472z" />
    <glyph glyph-name="N" unicode="N" horiz-adv-x="664" 
d="M536 0l-368 459v-459h-80v559l-68 85h120l356 -445v445h80v-644h-40z" />
    <glyph glyph-name="O" unicode="O" horiz-adv-x="712" 
d="M356 68q99 0 153.5 70.5t54.5 185.5q0 114 -54 183t-154 69t-154 -69t-54 -183q0 -115 54.5 -185.5t153.5 -70.5zM356 656q139 0 225.5 -90t86.5 -242q0 -147 -87 -241.5t-225 -94.5q-139 0 -225.5 92t-86.5 244q0 147 87 239.5t225 92.5z" />
    <glyph glyph-name="P" unicode="P" horiz-adv-x="536" 
d="M88 0v636q73 20 168 20q114 0 181 -54t67 -154q0 -98 -53.5 -157t-150.5 -59q-33 0 -60 8v44h16q72 0 110 40t38 120q0 39 -15.5 67.5t-43 44t-58.5 22t-67 6.5h-36v-584h-96z" />
    <glyph glyph-name="Q" unicode="Q" horiz-adv-x="712" 
d="M356 656q139 0 225.5 -90t86.5 -242q0 -100 -42 -178t-116 -119l162 -187h-132l-124 154q-28 -6 -60 -6q-139 0 -225.5 92t-86.5 244q0 147 87 239.5t225 92.5zM356 68q99 0 153.5 70.5t54.5 185.5q0 114 -54 183t-154 69t-154 -69t-54 -183q0 -115 54.5 -185.5
t153.5 -70.5z" />
    <glyph glyph-name="R" unicode="R" horiz-adv-x="568" 
d="M456 0l-180 264h-92v-264h-96v636q102 20 180 20q101 0 164.5 -47.5t63.5 -136.5q0 -66 -40 -113.5t-90 -68.5l202 -290h-112zM240 584h-56v-252h132q31 16 55.5 51t24.5 81q0 63 -37.5 91.5t-118.5 28.5z" />
    <glyph glyph-name="S" unicode="S" horiz-adv-x="464" 
d="M52 20l-12 112q78 -64 172 -64q48 0 80 25t32 71q0 30 -15.5 53.5t-29.5 33t-43 25.5l-64 36q-65 36 -92.5 74t-27.5 94q0 81 58 128.5t154 47.5q91 0 140 -36v-104q-24 24 -64 42t-80 18q-49 0 -80.5 -21.5t-31.5 -66.5q0 -36 21 -57.5t67 -46.5l72 -40
q55 -30 85.5 -67.5t30.5 -100.5q0 -88 -58.5 -138t-153.5 -50q-90 0 -160 32z" />
    <glyph glyph-name="T" unicode="T" 
d="M12 568v76h492l-32 -76h-172v-568h-96v568h-192z" />
    <glyph glyph-name="U" unicode="U" horiz-adv-x="648" 
d="M80 244v400h96v-392q0 -84 39 -134t113 -50q75 0 117.5 45.5t42.5 126.5v404h80v-408q0 -109 -66.5 -178.5t-173.5 -69.5q-116 0 -182 67t-66 189z" />
    <glyph glyph-name="V" unicode="V" horiz-adv-x="540" 
d="M220 -12l-212 656h100l164 -520l172 520h88l-228 -640z" />
    <glyph glyph-name="W" unicode="W" horiz-adv-x="840" 
d="M540 -12l-117 392l-143 -376l-80 -16l-192 656h100l144 -520l136 371l-44 149h96l148 -520l156 520h88l-212 -640z" />
    <glyph glyph-name="X" unicode="X" horiz-adv-x="552" 
d="M432 0l-164 255l-164 -255h-92l213 323l-205 321h108l152 -238l152 238h92l-201 -305l217 -339h-108z" />
    <glyph glyph-name="Y" unicode="Y" horiz-adv-x="524" 
d="M212 0v268l-204 376h104l154 -283l158 283h92l-208 -366v-278h-96z" />
    <glyph glyph-name="Z" unicode="Z" horiz-adv-x="520" 
d="M20 0l328 568h-312v76h460l-328 -568h344l-32 -76h-460z" />
    <glyph glyph-name="bracketleft" unicode="[" horiz-adv-x="360" 
d="M108 -216v915l220 12l8 -56l-152 -16v-795l152 -16l-8 -56z" />
    <glyph glyph-name="backslash" unicode="\" horiz-adv-x="292" 
d="M184 -116l-136 768l60 12l136 -768z" />
    <glyph glyph-name="bracketright" unicode="]" horiz-adv-x="360" 
d="M32 -228l-8 56l152 16v795l-152 16l8 56l220 -12v-915z" />
    <glyph glyph-name="asciicircum" unicode="^" 
d="M40 264l212 388l216 -380l-56 -36l-164 292l-152 -292z" />
    <glyph glyph-name="underscore" unicode="_" horiz-adv-x="484" 
d="M0 -96v64h484v-64h-484z" />
    <glyph glyph-name="grave" unicode="`" horiz-adv-x="524" 
d="M324 536l-36 -28l-132 140l60 44z" />
    <glyph glyph-name="a" unicode="a" horiz-adv-x="468" 
d="M436 0q-27 -12 -64 -12q-57 0 -73 55q-55 -55 -131 -55q-58 0 -91 29.5t-33 82.5q0 94 136 132l116 32v68q0 37 -14 54.5t-46 17.5q-34 0 -92 -52l-44 -40l-52 60q109 96 220 96q59 0 88 -28t28 -80l-4 -252q-1 -35 10.5 -44t57.5 -12zM200 52q48 0 96 32v126l-84 -26
q-38 -12 -59 -28.5t-21 -47.5q0 -56 68 -56z" />
    <glyph glyph-name="b" unicode="b" horiz-adv-x="536" 
d="M80 -12v700l88 24v-304q57 60 136 60q90 0 139 -58.5t49 -169.5q0 -114 -63 -183t-165 -69q-56 0 -96 24zM264 400q-48 0 -96 -32v-280q36 -36 100 -36q58 0 95 48.5t37 131.5q0 168 -136 168z" />
    <glyph glyph-name="c" unicode="c" horiz-adv-x="432" 
d="M400 100l-16 -76q-49 -36 -132 -36q-99 0 -155.5 62.5t-56.5 173.5q0 115 64.5 179.5t159.5 64.5q91 0 156 -72l-60 -68l-80 76h-16q-52 0 -92 -45.5t-40 -122.5q0 -81 35.5 -126.5t108.5 -45.5q58 0 124 36z" />
    <glyph glyph-name="d" unicode="d" horiz-adv-x="536" 
d="M368 -12v55q-52 -55 -132 -55q-89 0 -140.5 65.5t-51.5 174.5q0 107 64 173.5t164 66.5q56 0 96 -24v244l88 24v-704zM272 56q49 0 96 28v216q0 51 -29 77.5t-71 26.5q-58 0 -95 -45.5t-37 -122.5q0 -92 36.5 -136t99.5 -44z" />
    <glyph glyph-name="e" unicode="e" horiz-adv-x="474" 
d="M422 244l-290 -12v-16q0 -70 38 -113t106 -43q76 0 140 32l-24 -80q-48 -24 -128 -24q-106 0 -163 65.5t-57 178.5q0 100 60.5 168t155.5 68q81 0 125.5 -38t44.5 -110q0 -31 -8 -76zM260 404q-97 0 -124 -116l204 8q4 15 4 36q0 30 -24 51t-60 21z" />
    <glyph glyph-name="f" unicode="f" horiz-adv-x="272" 
d="M8 388l20 68h56v36q0 103 53 161.5t151 58.5q68 0 116 -24l-32 -68l-88 36h-16q-41 0 -68.5 -37t-27.5 -103v-60h116l-20 -68h-96v-388h-88v388h-76z" />
    <glyph glyph-name="g" unicode="g" horiz-adv-x="492" 
d="M356 452h152l-20 -72h-64q8 -24 8 -52q0 -83 -56 -133.5t-144 -50.5q-27 0 -55 5q-29 -21 -29 -45q0 -44 80 -44h112q59 0 93.5 -27.5t34.5 -80.5q0 -73 -73.5 -126.5t-182.5 -53.5q-83 0 -135.5 30t-52.5 90q0 34 27 65t71 49q-50 24 -50 70q0 43 64 85q-96 39 -96 143
q0 76 57.5 120t146.5 44q54 0 112 -16zM332 388q-33 20 -88 20t-85.5 -27t-30.5 -77q0 -46 27 -73t77 -27q55 0 83.5 30t28.5 78q0 52 -12 76zM300 -16l-149 4q-17 -11 -30 -32.5t-13 -43.5q0 -84 120 -84q69 0 110.5 27.5t41.5 72.5q0 32 -18.5 43.5t-61.5 12.5z" />
    <glyph glyph-name="h" unicode="h" horiz-adv-x="532" 
d="M364 0v292q0 58 -18.5 83t-65.5 25q-57 0 -112 -48v-352h-88v688l88 24v-304q66 60 144 60q65 0 102.5 -35t37.5 -105v-328h-88z" />
    <glyph glyph-name="i" unicode="i" horiz-adv-x="248" 
d="M80 0v444l88 24v-468h-88zM128 588q-26 0 -41 15.5t-15 40.5t15 40.5t41 15.5t41 -15.5t15 -40.5t-15 -40.5t-41 -15.5z" />
    <glyph glyph-name="j" unicode="j" horiz-adv-x="248" 
d="M-20 -228l-24 68q72 0 98 33t26 107v464l88 24v-488q0 -103 -48.5 -155.5t-139.5 -52.5zM128 588q-26 0 -41 15.5t-15 40.5t15 40.5t41 15.5t41 -15.5t15 -40.5t-15 -40.5t-41 -15.5z" />
    <glyph glyph-name="k" unicode="k" horiz-adv-x="488" 
d="M80 0v688l88 24v-712h-88zM372 0q-69 70 -188 244l176 212h112l-192 -200l196 -256h-104z" />
    <glyph glyph-name="l" unicode="l" horiz-adv-x="248" 
d="M80 0v688l88 24v-712h-88z" />
    <glyph glyph-name="m" unicode="m" horiz-adv-x="800" 
d="M356 0v292q0 58 -18 83t-62 25q-53 0 -108 -48v-352h-88v444l88 24v-60q66 60 140 60q94 0 123 -69q69 69 153 69q63 0 99.5 -33.5t36.5 -102.5v-332h-88v292q0 58 -18 83t-62 25q-58 0 -109 -49q0 -3 0.5 -9.5t0.5 -9.5v-332h-88z" />
    <glyph glyph-name="n" unicode="n" horiz-adv-x="532" 
d="M364 0v292q0 58 -18.5 83t-65.5 25q-57 0 -112 -48v-352h-88v444l88 24v-60q66 60 144 60q65 0 102.5 -35t37.5 -105v-328h-88z" />
    <glyph glyph-name="o" unicode="o" horiz-adv-x="524" 
d="M248 -12q-97 0 -150.5 59.5t-53.5 172.5q0 114 62 181t170 67q97 0 150.5 -59.5t53.5 -172.5q0 -114 -62 -181t-170 -67zM260 52q57 0 92.5 48t35.5 128q0 176 -124 176q-58 0 -93 -46t-35 -126q0 -180 124 -180z" />
    <glyph glyph-name="p" unicode="p" horiz-adv-x="536" 
d="M80 -228v672l88 24v-60q57 60 136 60q90 0 139 -58.5t49 -169.5q0 -114 -63 -183t-165 -69q-56 0 -96 24v-216zM264 400q-48 0 -96 -32v-212q0 -51 29 -77.5t71 -26.5q58 0 95 48.5t37 131.5q0 168 -136 168z" />
    <glyph glyph-name="q" unicode="q" horiz-adv-x="536" 
d="M368 -228v271q-52 -55 -132 -55q-90 0 -141 64.5t-51 175.5t65 175.5t167 64.5q56 0 104 -24l76 24v-676zM272 56q49 0 96 28v284q-43 36 -96 36q-60 0 -98 -43.5t-38 -124.5q0 -92 36.5 -136t99.5 -44z" />
    <glyph glyph-name="r" unicode="r" horiz-adv-x="336" 
d="M80 0v444l88 24v-90q57 90 108 90q32 0 60 -28l-36 -88l-56 28q-24 0 -76 -67v-313h-88z" />
    <glyph glyph-name="s" unicode="s" horiz-adv-x="388" 
d="M28 28l32 68q67 -40 128 -40q80 0 80 60q0 42 -64 68l-68 28q-96 40 -96 124q0 63 47 97.5t117 34.5q80 0 144 -32l-28 -72q-65 36 -116 36q-31 0 -53.5 -14t-22.5 -42q0 -39 52 -60l68 -28q53 -22 80.5 -49.5t27.5 -82.5q0 -65 -45.5 -100.5t-122.5 -35.5q-93 0 -160 40
z" />
    <glyph glyph-name="t" unicode="t" horiz-adv-x="308" 
d="M0 388l20 68h60v96l96 32l-8 -128h128l-20 -68h-108v-252q0 -44 13 -62t43 -18q43 0 76 20l-20 -72q-40 -16 -80 -16q-61 0 -90.5 32.5t-29.5 103.5v264h-80z" />
    <glyph glyph-name="u" unicode="u" horiz-adv-x="528" 
d="M360 -12v60q-66 -60 -144 -60q-64 0 -102 33.5t-38 102.5v320l88 24v-304q0 -57 19.5 -82.5t64.5 -25.5q57 0 112 48v340l88 24v-456z" />
    <glyph glyph-name="v" unicode="v" horiz-adv-x="424" 
d="M164 -12l-156 468h92l116 -356l120 356h80l-165 -445z" />
    <glyph glyph-name="w" unicode="w" horiz-adv-x="672" 
d="M412 -12l-76 245l-96 -221l-76 -24l-156 468h92l116 -356l93 223l-41 133h92l104 -356l120 356h80l-164 -444z" />
    <glyph glyph-name="x" unicode="x" horiz-adv-x="412" 
d="M304 0l-103 162l-105 -162h-88l155 222l-147 234h100l99 -158l101 158h88l-151 -218l151 -238h-100z" />
    <glyph glyph-name="y" unicode="y" horiz-adv-x="420" 
d="M24 -228l-40 88h52q98 0 132 112l3 10l-163 474h92l115 -343l117 343h80l-180 -484q-16 -44 -30 -72t-38 -61t-59 -50t-81 -17z" />
    <glyph glyph-name="z" unicode="z" horiz-adv-x="404" 
d="M24 0v32l232 352h-228l20 72h328v-36l-232 -348h240l-24 -72h-336z" />
    <glyph glyph-name="braceleft" unicode="{" horiz-adv-x="376" 
d="M140 -84l8 196q2 59 -24.5 82.5t-103.5 29.5v44q77 6 103.5 31t24.5 85l-8 184q-3 75 42 109.5t158 34.5h16v-48q-88 0 -114 -23t-26 -109v-160q0 -50 -12 -75t-44 -37l-32 -12l32 -12q32 -12 44 -37t12 -75v-172q0 -86 26 -109t114 -23v-48h-16q-113 0 -158 34.5
t-42 109.5z" />
    <glyph glyph-name="bar" unicode="|" horiz-adv-x="364" 
d="M144 -240v1000h76v-1000h-76z" />
    <glyph glyph-name="braceright" unicode="}" horiz-adv-x="376" 
d="M20 -228v48q88 0 114 23t26 109v172q0 50 12 75t44 37l32 12l-32 12q-32 12 -44 37t-12 75v160q0 86 -26 109t-114 23v48h16q113 0 158 -34.5t42 -109.5l-8 -184q-2 -60 24.5 -85t103.5 -31v-44q-77 -6 -103.5 -29.5t-24.5 -82.5l8 -196q3 -75 -42 -109.5t-158 -34.5h-16
z" />
    <glyph glyph-name="asciitilde" unicode="~" 
d="M40 272l96 116h36l104 -36q35 -12 64 -12q30 0 68 48l16 20l40 -28l-96 -116h-36l-104 36q-35 12 -64 12q-30 0 -68 -48l-16 -20z" />
    <glyph glyph-name="uni00A0" unicode="&#xa0;" horiz-adv-x="204" 
 />
    <glyph glyph-name="exclamdown" unicode="&#xa1;" horiz-adv-x="264" 
d="M80 -188l20 452l68 12l12 -464h-100zM132 332q-29 0 -46.5 20t-17.5 48t17.5 48t46.5 20t46.5 -20t17.5 -48t-17.5 -48t-46.5 -20z" />
    <glyph glyph-name="cent" unicode="&#xa2;" horiz-adv-x="472" 
d="M256 -104v95q-104 15 -164 101t-60 232q0 130 62 216.5t162 108.5v87h40v-81q6 1 20 1q64 0 120 -28v-92q-63 40 -124 40q-11 0 -16 -1v-507h8q76 0 140 48v-88q-62 -40 -144 -40h-4v-92h-40zM132 324q0 -96 32 -162.5t92 -86.5v491q-57 -20 -90.5 -82.5t-33.5 -159.5z
" />
    <glyph glyph-name="sterling" unicode="&#xa3;" horiz-adv-x="472" 
d="M40 312l28 68h60v56q0 110 55.5 165t128.5 55q79 0 148 -44l-40 -64l-108 52q-39 0 -65.5 -38t-26.5 -126v-56h156l-32 -68h-124v-56q0 -142 -100 -180h324v-76h-428v56q112 17 112 184v72h-88z" />
    <glyph glyph-name="currency" unicode="&#xa4;" horiz-adv-x="472" 
d="M76 148l-36 40l62 55q-22 38 -22 81q0 44 22 80l-62 56l36 40l60 -57q43 37 100 37t100 -37l60 57l36 -40l-63 -56q23 -38 23 -80t-23 -81l63 -55l-36 -40l-60 56q-44 -36 -100 -36t-100 36zM236 216q42 0 71 30.5t29 77.5t-29 77.5t-71 30.5t-71 -30.5t-29 -77.5
t29 -77.5t71 -30.5z" />
    <glyph glyph-name="yen" unicode="&#xa5;" 
d="M32 264v36h151l-183 344h108l147 -284l157 284h92l-193 -344h164v-36h-179v-88h179v-36h-179v-140h-96v140h-168v36h168v88h-168z" />
    <glyph glyph-name="brokenbar" unicode="&#xa6;" horiz-adv-x="364" 
d="M144 420v280h76v-280h-76zM144 -80v280h76v-280h-76z" />
    <glyph glyph-name="section" unicode="&#xa7;" horiz-adv-x="448" 
d="M380 100l-44 32q12 22 12 52q0 29 -15.5 52.5t-60.5 51.5l-76 48q-33 21 -47.5 31.5t-37.5 31.5t-33 43.5t-10 49.5q0 76 55.5 120t144.5 44q92 0 144 -40v-96q-60 64 -144 64q-47 0 -75.5 -21t-28.5 -55q0 -29 17 -47.5t71 -52.5l76 -48q100 -62 100 -144
q0 -74 -48 -116zM36 -168v100q24 -28 63.5 -46t80.5 -18q46 0 75 21.5t29 58.5q0 28 -17.5 49t-58.5 47l-76 48q-45 29 -72.5 62.5t-27.5 81.5q0 38 13.5 69.5t34.5 46.5l44 -32q-12 -22 -12 -52q0 -29 15.5 -52.5t60.5 -51.5l76 -48q58 -36 87 -72t29 -84
q0 -75 -58.5 -121.5t-141.5 -46.5q-80 0 -144 40z" />
    <glyph glyph-name="dieresis" unicode="&#xa8;" horiz-adv-x="524" 
d="M180 540q-21 0 -34.5 16t-13.5 40t13.5 40t34.5 16t34.5 -16t13.5 -40t-13.5 -40t-34.5 -16zM344 540q-21 0 -34.5 16t-13.5 40t13.5 40t34.5 16t34.5 -16t13.5 -40t-13.5 -40t-34.5 -16z" />
    <glyph glyph-name="copyright" unicode="&#xa9;" horiz-adv-x="696" 
d="M348 -12q-136 0 -232 95.5t-96 236.5q0 140 96.5 238t231.5 98q136 0 232 -95.5t96 -236.5q0 -140 -96.5 -238t-231.5 -98zM348 28q118 0 201 85.5t83 210.5q0 123 -83 207.5t-201 84.5t-201 -85.5t-83 -210.5q0 -123 83 -207.5t201 -84.5zM468 244v-52q-39 -24 -104 -24
q-79 0 -125.5 43.5t-46.5 112.5q0 72 48 116t124 44q66 0 104 -24v-56q-43 36 -108 36q-46 0 -77 -30.5t-31 -81.5q0 -49 31.5 -82.5t84.5 -33.5q57 0 100 32z" />
    <glyph glyph-name="ordfeminine" unicode="&#xaa;" horiz-adv-x="384" 
d="M300 288q-49 0 -65 39q-41 -39 -107 -39q-46 0 -73 22t-27 62q0 71 112 100l92 24v52q0 27 -10 39.5t-34 12.5q-30 0 -76 -40l-36 -32l-44 52q87 72 180 72q52 0 76.5 -23t23.5 -65l-4 -184q-1 -25 8.5 -31.5t47.5 -8.5l-8 -44q-20 -8 -56 -8zM160 340q38 0 72 17v99
l-64 -20q-60 -18 -60 -56q0 -40 52 -40z" />
    <glyph glyph-name="guillemotleft" unicode="&#xab;" horiz-adv-x="428" 
d="M168 48l-132 200l132 180l60 -8l-96 -172l96 -188zM336 48l-132 200l132 180l60 -8l-96 -172l96 -188z" />
    <glyph glyph-name="logicalnot" unicode="&#xac;" 
d="M40 312v60h408v-224h-68v164h-340z" />
    <glyph glyph-name="uni00AD" unicode="&#xad;" horiz-adv-x="328" 
d="M48 200l-8 80l240 28l8 -80z" />
    <glyph glyph-name="registered" unicode="&#xae;" horiz-adv-x="696" 
d="M348 -12q-136 0 -232 95.5t-96 236.5q0 140 96.5 238t231.5 98q136 0 232 -95.5t96 -236.5q0 -140 -96.5 -238t-231.5 -98zM348 28q118 0 201 85.5t83 210.5q0 123 -83 207.5t-201 84.5t-201 -85.5t-83 -210.5q0 -123 83 -207.5t201 -84.5zM444 180l-96 118q-8 -2 -24 -2
q-19 0 -28 2v-118h-56v296q56 12 104 12q53 0 86.5 -23.5t33.5 -64.5q0 -56 -64 -86l116 -134h-72zM308 452h-12v-124h64q44 26 44 68q0 30 -22.5 43t-73.5 13z" />
    <glyph glyph-name="macron" unicode="&#xaf;" horiz-adv-x="524" 
d="M388 568h-252v64h252v-64z" />
    <glyph glyph-name="degree" unicode="&#xb0;" horiz-adv-x="304" 
d="M152 444q35 0 57.5 24.5t22.5 59.5q0 34 -24.5 59t-59.5 25q-34 0 -55 -24.5t-21 -59.5t22.5 -59.5t57.5 -24.5zM152 404q-51 0 -87.5 36t-36.5 88t36.5 88t87.5 36t87.5 -36t36.5 -88t-36.5 -88t-87.5 -36z" />
    <glyph glyph-name="plusminus" unicode="&#xb1;" 
d="M48 308v60h172v156h68v-156h168v-60h-168v-156h-68v156h-172zM48 0v60h408v-60h-408z" />
    <glyph glyph-name="twosuperior" unicode="&#xb2;" horiz-adv-x="384" 
d="M48 460l-20 32l100 84q60 50 78 71t18 45q0 56 -76 56q-54 0 -100 -28l20 80q39 16 104 16q63 0 99.5 -27t36.5 -77q0 -23 -10.5 -45t-34 -44t-37.5 -33t-46 -34l-44 -32h204v-64h-292z" />
    <glyph glyph-name="threesuperior" unicode="&#xb3;" horiz-adv-x="384" 
d="M60 732l24 72q35 12 100 12q60 0 92 -23.5t32 -60.5q0 -28 -21 -49.5t-51 -31.5q40 -8 64 -29.5t24 -53.5q0 -60 -51 -88t-123 -28q-61 0 -106 16v60q49 -20 100 -20q45 0 72.5 13.5t27.5 38.5q0 48 -92 48h-72l24 52h76q21 10 34.5 24.5t13.5 27.5q0 17 -18.5 28.5
t-53.5 11.5q-53 0 -96 -20z" />
    <glyph glyph-name="acute" unicode="&#xb4;" horiz-adv-x="524" 
d="M200 536l108 156l60 -44l-132 -140z" />
    <glyph glyph-name="mu" unicode="&#xb5;" horiz-adv-x="536" 
d="M360 48q-17 -27 -46.5 -43.5t-61.5 -16.5q-55 0 -88 44v-248h-88v660l88 24v-252q0 -35 2.5 -57t11 -49t29 -40.5t53.5 -13.5q23 0 42.5 7.5t31 16.5t26.5 24v340l88 24v-360q0 -33 16 -43t64 -13l-12 -48q-32 -16 -76 -16q-27 0 -51 14t-29 46z" />
    <glyph glyph-name="paragraph" unicode="&#xb6;" horiz-adv-x="584" 
d="M116 -180l40 72l100 -44h16q38 0 67 36t29 108v652h196l-20 -60h-88v-560q0 -105 -54 -168.5t-150 -63.5q-80 0 -136 28zM296 236h-60q-87 0 -147.5 60t-60.5 144t60.5 144t147.5 60h60v-408z" />
    <glyph glyph-name="periodcentered" unicode="&#xb7;" horiz-adv-x="276" 
d="M72 266q0 28 19 47t47 19t47 -19t19 -47t-19 -47t-47 -19t-47 19t-19 47z" />
    <glyph glyph-name="cedilla" unicode="&#xb8;" horiz-adv-x="524" 
d="M276 -48q52 -13 74 -34t22 -54q0 -42 -29.5 -67t-82.5 -25q-56 0 -96 28l22 44q37 -20 74 -20q22 0 35 10.5t13 25.5q0 20 -18 31t-74 25l32 84h40z" />
    <glyph glyph-name="onesuperior" unicode="&#xb9;" horiz-adv-x="384" 
d="M168 460v260l-96 -16v40l176 72v-356h-80z" />
    <glyph glyph-name="ordmasculine" unicode="&#xba;" horiz-adv-x="432" 
d="M204 288q-81 0 -124.5 45.5t-43.5 130.5q0 88 52 138t140 50q81 0 124.5 -45.5t43.5 -130.5q0 -88 -52 -138t-140 -50zM216 340q43 0 69.5 34.5t26.5 93.5q0 132 -96 132q-43 0 -69.5 -34.5t-26.5 -93.5q0 -132 96 -132z" />
    <glyph glyph-name="guillemotright" unicode="&#xbb;" horiz-adv-x="428" 
d="M200 60l96 188l-96 172l60 8l132 -180l-132 -200zM32 60l96 188l-96 172l60 8l132 -180l-132 -200z" />
    <glyph glyph-name="onequarter" unicode="&#xbc;" horiz-adv-x="782" 
d="M168 300v260l-96 -16v40l176 72v-356h-80zM216 0l256 660l52 -20l-256 -660zM422 80l-12 48l180 208l92 20v-220h72l-12 -56h-60v-80h-76v80h-184zM482 136h124v147z" />
    <glyph glyph-name="onehalf" unicode="&#xbd;" horiz-adv-x="792" 
d="M168 300v260l-96 -16v40l176 72v-356h-80zM212 0l256 660l52 -20l-256 -660zM456 0l-20 32l100 84q60 50 78 71t18 45q0 56 -76 56q-54 0 -100 -28l20 80q39 16 104 16q63 0 99.5 -27t36.5 -77q0 -23 -10.5 -45t-34 -44t-37.5 -33t-46 -34l-44 -32h204v-64h-292z" />
    <glyph glyph-name="threequarters" unicode="&#xbe;" horiz-adv-x="842" 
d="M60 572l24 72q35 12 100 12q60 0 92 -23.5t32 -60.5q0 -28 -21 -49.5t-51 -31.5q40 -8 64 -29.5t24 -53.5q0 -60 -51 -88t-123 -28q-61 0 -106 16v60q49 -20 100 -20q45 0 72.5 13.5t27.5 38.5q0 48 -92 48h-72l24 52h76q21 10 34.5 24.5t13.5 27.5q0 17 -18.5 28.5
t-53.5 11.5q-53 0 -96 -20zM264 0l256 660l52 -20l-256 -660zM482 80l-12 48l180 208l92 20v-220h72l-12 -56h-60v-80h-76v80h-184zM542 136h124v147z" />
    <glyph glyph-name="questiondown" unicode="&#xbf;" horiz-adv-x="376" 
d="M297 -220l-137 24q-132 24 -132 128q0 77 96 164l44 40q32 28 32 52q0 27 -64 40l40 52q53 -10 80.5 -28t27.5 -52q0 -36 -32 -68l-64 -64q-72 -72 -72 -120q0 -31 25 -50.5t83 -29.5l112 -20zM224 332q-29 0 -46.5 20t-17.5 48t17.5 48t46.5 20t46.5 -20t17.5 -48
t-17.5 -48t-46.5 -20z" />
    <glyph glyph-name="Agrave" unicode="&#xc0;" horiz-adv-x="552" 
d="M440 0l-56 152h-235l-53 -152h-88l215 596l-19 48h104l236 -644h-104zM264 480l-90 -256h184zM365 735l-35 -38l-169 134l56 60z" />
    <glyph glyph-name="Aacute" unicode="&#xc1;" horiz-adv-x="552" 
d="M440 0l-56 152h-235l-53 -152h-88l215 596l-19 48h104l236 -644h-104zM264 480l-90 -256h184zM198 697l-35 38l148 156l56 -60z" />
    <glyph glyph-name="Acircumflex" unicode="&#xc2;" horiz-adv-x="552" 
d="M440 0l-56 152h-235l-53 -152h-88l215 596l-19 48h104l236 -644h-104zM264 480l-90 -256h184zM264 772l-120 -68l-28 40l148 108l148 -108l-28 -40z" />
    <glyph glyph-name="Atilde" unicode="&#xc3;" horiz-adv-x="552" 
d="M440 0l-56 152h-235l-53 -152h-88l215 596l-19 48h104l236 -644h-104zM264 480l-90 -256h184zM140 716l-36 28l60 80h24q30 0 80 -20t68 -20t36 24l12 16l36 -28l-60 -80h-24q-30 0 -80 20t-68 20t-36 -24z" />
    <glyph glyph-name="Adieresis" unicode="&#xc4;" horiz-adv-x="552" 
d="M440 0l-56 152h-235l-53 -152h-88l215 596l-19 48h104l236 -644h-104zM264 480l-90 -256h184zM164 708q-21 0 -34.5 16t-13.5 40t13.5 40t34.5 16t34.5 -16t13.5 -40t-13.5 -40t-34.5 -16zM364 708q-21 0 -34.5 16t-13.5 40t13.5 40t34.5 16t34.5 -16t13.5 -40t-13.5 -40
t-34.5 -16z" />
    <glyph glyph-name="Aring" unicode="&#xc5;" horiz-adv-x="552" 
d="M440 0l-56 152h-235l-53 -152h-88l215 596l-19 48h104l236 -644h-104zM264 480l-90 -256h184zM264 744q23 0 37.5 11.5t14.5 32.5t-14.5 32.5t-37.5 11.5t-37.5 -11.5t-14.5 -32.5t14.5 -32.5t37.5 -11.5zM264 704q-42 0 -69 24t-27 60t27 60t69 24t69 -24t27 -60
t-27 -60t-69 -24z" />
    <glyph glyph-name="AE" unicode="&#xc6;" horiz-adv-x="748" 
d="M344 0v172h-174l-90 -172h-88l352 644h352l-32 -76h-224v-204h212l-32 -76h-180v-212h268l-32 -76h-332zM208 244h136v258z" />
    <glyph glyph-name="Ccedilla" unicode="&#xc7;" horiz-adv-x="624" 
d="M382 -48q52 -13 74 -34t22 -54q0 -42 -29.5 -67t-82.5 -25q-56 0 -96 28l22 44q37 -20 74 -20q22 0 35 10.5t13 25.5q0 20 -18 31t-74 25l27 73q-141 8 -223 96.5t-82 234.5q0 147 92.5 241.5t239.5 94.5q63 0 115 -17t81 -39v-92q-97 68 -196 68q-101 0 -164.5 -66.5
t-63.5 -181.5t63 -187.5t165 -72.5q118 0 196 64v-88q-74 -50 -181 -55z" />
    <glyph glyph-name="Egrave" unicode="&#xc8;" horiz-adv-x="492" 
d="M88 0v644h352l-32 -76h-224v-204h212l-32 -76h-180v-212h268l-32 -76h-332zM369 735l-35 -38l-169 134l56 60z" />
    <glyph glyph-name="Eacute" unicode="&#xc9;" horiz-adv-x="492" 
d="M88 0v644h352l-32 -76h-224v-204h212l-32 -76h-180v-212h268l-32 -76h-332zM202 697l-35 38l148 156l56 -60z" />
    <glyph glyph-name="Ecircumflex" unicode="&#xca;" horiz-adv-x="492" 
d="M88 0v644h352l-32 -76h-224v-204h212l-32 -76h-180v-212h268l-32 -76h-332zM268 772l-120 -68l-28 40l148 108l148 -108l-28 -40z" />
    <glyph glyph-name="Edieresis" unicode="&#xcb;" horiz-adv-x="492" 
d="M88 0v644h352l-32 -76h-224v-204h212l-32 -76h-180v-212h268l-32 -76h-332zM168 708q-21 0 -34.5 16t-13.5 40t13.5 40t34.5 16t34.5 -16t13.5 -40t-13.5 -40t-34.5 -16zM368 708q-21 0 -34.5 16t-13.5 40t13.5 40t34.5 16t34.5 -16t13.5 -40t-13.5 -40t-34.5 -16z" />
    <glyph glyph-name="Igrave" unicode="&#xcc;" horiz-adv-x="272" 
d="M88 0v644h96v-644h-96zM237 735l-35 -38l-169 134l56 60z" />
    <glyph glyph-name="Iacute" unicode="&#xcd;" horiz-adv-x="272" 
d="M88 0v644h96v-644h-96zM70 697l-35 38l148 156l56 -60z" />
    <glyph glyph-name="Icircumflex" unicode="&#xce;" horiz-adv-x="272" 
d="M88 0v644h96v-644h-96zM136 772l-120 -68l-28 40l148 108l148 -108l-28 -40z" />
    <glyph glyph-name="Idieresis" unicode="&#xcf;" horiz-adv-x="272" 
d="M88 0v644h96v-644h-96zM36 708q-21 0 -34.5 16t-13.5 40t13.5 40t34.5 16t34.5 -16t13.5 -40t-13.5 -40t-34.5 -16zM236 708q-21 0 -34.5 16t-13.5 40t13.5 40t34.5 16t34.5 -16t13.5 -40t-13.5 -40t-34.5 -16z" />
    <glyph glyph-name="Eth" unicode="&#xd0;" horiz-adv-x="656" 
d="M20 300l8 68h60v272q96 16 180 16q165 0 254.5 -88.5t89.5 -243.5q0 -154 -89.5 -245t-242.5 -91q-89 0 -192 28v284h-68zM256 584h-72v-216h128l-8 -68h-120v-220q45 -16 96 -16q103 0 167.5 69t64.5 187q0 123 -67.5 193.5t-188.5 70.5z" />
    <glyph glyph-name="Ntilde" unicode="&#xd1;" horiz-adv-x="664" 
d="M536 0l-368 459v-459h-80v559l-68 85h120l356 -445v445h80v-644h-40zM208 716l-36 28l60 80h24q30 0 80 -20t68 -20t36 24l12 16l36 -28l-60 -80h-24q-30 0 -80 20t-68 20t-36 -24z" />
    <glyph glyph-name="Ograve" unicode="&#xd2;" horiz-adv-x="712" 
d="M356 68q99 0 153.5 70.5t54.5 185.5q0 114 -54 183t-154 69t-154 -69t-54 -183q0 -115 54.5 -185.5t153.5 -70.5zM356 656q139 0 225.5 -90t86.5 -242q0 -147 -87 -241.5t-225 -94.5q-139 0 -225.5 92t-86.5 244q0 147 87 239.5t225 92.5zM457 735l-35 -38l-169 134
l56 60z" />
    <glyph glyph-name="Oacute" unicode="&#xd3;" horiz-adv-x="712" 
d="M356 68q99 0 153.5 70.5t54.5 185.5q0 114 -54 183t-154 69t-154 -69t-54 -183q0 -115 54.5 -185.5t153.5 -70.5zM356 656q139 0 225.5 -90t86.5 -242q0 -147 -87 -241.5t-225 -94.5q-139 0 -225.5 92t-86.5 244q0 147 87 239.5t225 92.5zM290 697l-35 38l148 156l56 -60
z" />
    <glyph glyph-name="Ocircumflex" unicode="&#xd4;" horiz-adv-x="712" 
d="M356 68q99 0 153.5 70.5t54.5 185.5q0 114 -54 183t-154 69t-154 -69t-54 -183q0 -115 54.5 -185.5t153.5 -70.5zM356 656q139 0 225.5 -90t86.5 -242q0 -147 -87 -241.5t-225 -94.5q-139 0 -225.5 92t-86.5 244q0 147 87 239.5t225 92.5zM356 772l-120 -68l-28 40
l148 108l148 -108l-28 -40z" />
    <glyph glyph-name="Otilde" unicode="&#xd5;" horiz-adv-x="712" 
d="M356 68q99 0 153.5 70.5t54.5 185.5q0 114 -54 183t-154 69t-154 -69t-54 -183q0 -115 54.5 -185.5t153.5 -70.5zM356 656q139 0 225.5 -90t86.5 -242q0 -147 -87 -241.5t-225 -94.5q-139 0 -225.5 92t-86.5 244q0 147 87 239.5t225 92.5zM232 716l-36 28l60 80h24
q30 0 80 -20t68 -20t36 24l12 16l36 -28l-60 -80h-24q-30 0 -80 20t-68 20t-36 -24z" />
    <glyph glyph-name="Odieresis" unicode="&#xd6;" horiz-adv-x="712" 
d="M356 68q99 0 153.5 70.5t54.5 185.5q0 114 -54 183t-154 69t-154 -69t-54 -183q0 -115 54.5 -185.5t153.5 -70.5zM356 656q139 0 225.5 -90t86.5 -242q0 -147 -87 -241.5t-225 -94.5q-139 0 -225.5 92t-86.5 244q0 147 87 239.5t225 92.5zM256 708q-21 0 -34.5 16
t-13.5 40t13.5 40t34.5 16t34.5 -16t13.5 -40t-13.5 -40t-34.5 -16zM456 708q-21 0 -34.5 16t-13.5 40t13.5 40t34.5 16t34.5 -16t13.5 -40t-13.5 -40t-34.5 -16z" />
    <glyph glyph-name="multiply" unicode="&#xd7;" 
d="M62 168l146 148l-146 148l44 44l146 -148l146 148l44 -44l-147 -148l147 -148l-44 -44l-146 148l-146 -148z" />
    <glyph glyph-name="Oslash" unicode="&#xd8;" horiz-adv-x="712" 
d="M448 712l-11 -65q106 -25 168.5 -110.5t62.5 -212.5q0 -147 -87 -241.5t-225 -94.5q-5 0 -14.5 0.5t-13.5 0.5l-16 -97l-40 16l14 87q-111 22 -176.5 110t-65.5 219q0 147 87 239.5t225 92.5q13 0 39 -2l13 74zM148 324q0 -97 39.5 -163.5t112.5 -85.5l82 499
q-16 2 -26 2q-100 0 -154 -69t-54 -183zM356 68q99 0 153.5 70.5t54.5 185.5q0 92 -36 156t-104 86l-83 -498h15z" />
    <glyph glyph-name="Ugrave" unicode="&#xd9;" horiz-adv-x="648" 
d="M80 244v400h96v-392q0 -84 39 -134t113 -50q75 0 117.5 45.5t42.5 126.5v404h80v-408q0 -109 -66.5 -178.5t-173.5 -69.5q-116 0 -182 67t-66 189zM425 735l-35 -38l-169 134l56 60z" />
    <glyph glyph-name="Uacute" unicode="&#xda;" horiz-adv-x="648" 
d="M80 244v400h96v-392q0 -84 39 -134t113 -50q75 0 117.5 45.5t42.5 126.5v404h80v-408q0 -109 -66.5 -178.5t-173.5 -69.5q-116 0 -182 67t-66 189zM258 697l-35 38l148 156l56 -60z" />
    <glyph glyph-name="Ucircumflex" unicode="&#xdb;" horiz-adv-x="648" 
d="M80 244v400h96v-392q0 -84 39 -134t113 -50q75 0 117.5 45.5t42.5 126.5v404h80v-408q0 -109 -66.5 -178.5t-173.5 -69.5q-116 0 -182 67t-66 189zM324 772l-120 -68l-28 40l148 108l148 -108l-28 -40z" />
    <glyph glyph-name="Udieresis" unicode="&#xdc;" horiz-adv-x="648" 
d="M80 244v400h96v-392q0 -84 39 -134t113 -50q75 0 117.5 45.5t42.5 126.5v404h80v-408q0 -109 -66.5 -178.5t-173.5 -69.5q-116 0 -182 67t-66 189zM224 708q-21 0 -34.5 16t-13.5 40t13.5 40t34.5 16t34.5 -16t13.5 -40t-13.5 -40t-34.5 -16zM424 708q-21 0 -34.5 16
t-13.5 40t13.5 40t34.5 16t34.5 -16t13.5 -40t-13.5 -40t-34.5 -16z" />
    <glyph glyph-name="Yacute" unicode="&#xdd;" horiz-adv-x="524" 
d="M212 0v268l-204 376h104l154 -283l158 283h92l-208 -366v-278h-96zM202 697l-35 38l148 156l56 -60z" />
    <glyph glyph-name="Thorn" unicode="&#xde;" horiz-adv-x="536" 
d="M88 0v644h96v-99q33 3 72 3q115 0 181.5 -50.5t66.5 -149.5q0 -93 -55.5 -146.5t-148.5 -53.5q-33 0 -60 8v44h16q148 0 148 148q0 52 -29 82t-66 38t-89 8h-36v-476h-96z" />
    <glyph glyph-name="germandbls" unicode="&#xdf;" horiz-adv-x="568" 
d="M80 0v476q0 120 60.5 178t159.5 58q86 0 135 -36t49 -104q0 -33 -13.5 -59.5t-33 -43.5t-39 -32.5t-33 -34t-13.5 -38.5q0 -44 52 -72l36 -20q48 -26 74 -57t26 -83q0 -67 -46.5 -105.5t-117.5 -38.5q-80 0 -140 36l32 64q50 -36 108 -36q76 0 76 72q0 30 -15.5 48
t-48.5 36l-36 20q-41 23 -62.5 51t-21.5 73q0 28 13.5 51t33 40.5t39 34.5t33 40t13.5 50q0 38 -25.5 61t-74.5 23q-132 0 -132 -168v-484h-88z" />
    <glyph glyph-name="agrave" unicode="&#xe0;" horiz-adv-x="468" 
d="M436 0q-27 -12 -64 -12q-57 0 -73 55q-55 -55 -131 -55q-58 0 -91 29.5t-33 82.5q0 94 136 132l116 32v68q0 37 -14 54.5t-46 17.5q-34 0 -92 -52l-44 -40l-52 60q109 96 220 96q59 0 88 -28t28 -80l-4 -252q-1 -35 10.5 -44t57.5 -12zM200 52q48 0 96 32v126l-84 -26
q-38 -12 -59 -28.5t-21 -47.5q0 -56 68 -56zM290 536l-36 -28l-132 140l60 44z" />
    <glyph glyph-name="aacute" unicode="&#xe1;" horiz-adv-x="468" 
d="M436 0q-27 -12 -64 -12q-57 0 -73 55q-55 -55 -131 -55q-58 0 -91 29.5t-33 82.5q0 94 136 132l116 32v68q0 37 -14 54.5t-46 17.5q-34 0 -92 -52l-44 -40l-52 60q109 96 220 96q59 0 88 -28t28 -80l-4 -252q-1 -35 10.5 -44t57.5 -12zM200 52q48 0 96 32v126l-84 -26
q-38 -12 -59 -28.5t-21 -47.5q0 -56 68 -56zM166 536l108 156l60 -44l-132 -140z" />
    <glyph glyph-name="acircumflex" unicode="&#xe2;" horiz-adv-x="468" 
d="M436 0q-27 -12 -64 -12q-57 0 -73 55q-55 -55 -131 -55q-58 0 -91 29.5t-33 82.5q0 94 136 132l116 32v68q0 37 -14 54.5t-46 17.5q-34 0 -92 -52l-44 -40l-52 60q109 96 220 96q59 0 88 -28t28 -80l-4 -252q-1 -35 10.5 -44t57.5 -12zM200 52q48 0 96 32v126l-84 -26
q-38 -12 -59 -28.5t-21 -47.5q0 -56 68 -56zM228 616l-120 -96l-36 32l156 144l156 -144l-36 -32z" />
    <glyph glyph-name="atilde" unicode="&#xe3;" horiz-adv-x="468" 
d="M436 0q-27 -12 -64 -12q-57 0 -73 55q-55 -55 -131 -55q-58 0 -91 29.5t-33 82.5q0 94 136 132l116 32v68q0 37 -14 54.5t-46 17.5q-34 0 -92 -52l-44 -40l-52 60q109 96 220 96q59 0 88 -28t28 -80l-4 -252q-1 -35 10.5 -44t57.5 -12zM200 52q48 0 96 32v126l-84 -26
q-38 -12 -59 -28.5t-21 -47.5q0 -56 68 -56zM390 640l-76 -100h-24q-24 0 -68 28t-56 28q-18 0 -36 -24l-28 -36l-36 28l76 100h24q24 0 68 -28t56 -28q18 0 36 24l28 36z" />
    <glyph glyph-name="adieresis" unicode="&#xe4;" horiz-adv-x="468" 
d="M436 0q-27 -12 -64 -12q-57 0 -73 55q-55 -55 -131 -55q-58 0 -91 29.5t-33 82.5q0 94 136 132l116 32v68q0 37 -14 54.5t-46 17.5q-34 0 -92 -52l-44 -40l-52 60q109 96 220 96q59 0 88 -28t28 -80l-4 -252q-1 -35 10.5 -44t57.5 -12zM200 52q48 0 96 32v126l-84 -26
q-38 -12 -59 -28.5t-21 -47.5q0 -56 68 -56zM146 540q-21 0 -34.5 16t-13.5 40t13.5 40t34.5 16t34.5 -16t13.5 -40t-13.5 -40t-34.5 -16zM310 540q-21 0 -34.5 16t-13.5 40t13.5 40t34.5 16t34.5 -16t13.5 -40t-13.5 -40t-34.5 -16z" />
    <glyph glyph-name="aring" unicode="&#xe5;" horiz-adv-x="468" 
d="M436 0q-27 -12 -64 -12q-57 0 -73 55q-55 -55 -131 -55q-58 0 -91 29.5t-33 82.5q0 94 136 132l116 32v68q0 37 -14 54.5t-46 17.5q-34 0 -92 -52l-44 -40l-52 60q109 96 220 96q59 0 88 -28t28 -80l-4 -252q-1 -35 10.5 -44t57.5 -12zM200 52q48 0 96 32v126l-84 -26
q-38 -12 -59 -28.5t-21 -47.5q0 -56 68 -56zM228 568q23 0 37.5 14t14.5 38t-14.5 38t-37.5 14t-37.5 -14t-14.5 -38t14.5 -38t37.5 -14zM228 528q-42 0 -69 26.5t-27 65.5t27 65.5t69 26.5t69 -26.5t27 -65.5t-27 -65.5t-69 -26.5z" />
    <glyph glyph-name="ae" unicode="&#xe6;" horiz-adv-x="714" 
d="M168 -12q-58 0 -91 29.5t-33 82.5q0 54 37 84t99 48l108 32v68q0 37 -14 54.5t-46 17.5q-13 0 -27.5 -7.5t-24 -15.5t-32.5 -29l-44 -40l-52 60q109 96 212 96q83 0 105 -60q63 60 142 60q77 0 120 -38.5t43 -109.5q0 -31 -8 -76l-286 -12v-16q0 -71 36.5 -113.5
t103.5 -42.5q76 0 140 32l-24 -80q-48 -24 -128 -24q-117 0 -171 77q-27 -27 -44 -40.5t-48.5 -25t-72.5 -11.5zM204 52q58 0 110 44q-23 49 -26 114l-80 -26q-76 -25 -76 -76q0 -56 72 -56zM500 404q-93 0 -120 -116l200 8q4 15 4 36q0 30 -24 51t-60 21z" />
    <glyph glyph-name="ccedilla" unicode="&#xe7;" horiz-adv-x="432" 
d="M262 -52q52 -13 74 -34t22 -54q0 -42 -29.5 -67t-82.5 -25q-56 0 -96 28l22 44q37 -20 74 -20q22 0 35 10.5t13 25.5q0 20 -18 31t-74 25l29 77q-90 7 -140.5 68.5t-50.5 166.5q0 115 64.5 179.5t159.5 64.5q91 0 156 -72l-60 -68l-80 76h-16q-52 0 -92 -45.5t-40 -122.5
q0 -81 35.5 -126.5t108.5 -45.5q58 0 124 36l-16 -76q-41 -30 -112 -35z" />
    <glyph glyph-name="egrave" unicode="&#xe8;" horiz-adv-x="474" 
d="M422 244l-290 -12v-16q0 -70 38 -113t106 -43q76 0 140 32l-24 -80q-48 -24 -128 -24q-106 0 -163 65.5t-57 178.5q0 100 60.5 168t155.5 68q81 0 125.5 -38t44.5 -110q0 -31 -8 -76zM260 404q-97 0 -124 -116l204 8q4 15 4 36q0 30 -24 51t-60 21zM314 536l-36 -28
l-132 140l60 44z" />
    <glyph glyph-name="eacute" unicode="&#xe9;" horiz-adv-x="474" 
d="M422 244l-290 -12v-16q0 -70 38 -113t106 -43q76 0 140 32l-24 -80q-48 -24 -128 -24q-106 0 -163 65.5t-57 178.5q0 100 60.5 168t155.5 68q81 0 125.5 -38t44.5 -110q0 -31 -8 -76zM260 404q-97 0 -124 -116l204 8q4 15 4 36q0 30 -24 51t-60 21zM190 536l108 156
l60 -44l-132 -140z" />
    <glyph glyph-name="ecircumflex" unicode="&#xea;" horiz-adv-x="474" 
d="M422 244l-290 -12v-16q0 -70 38 -113t106 -43q76 0 140 32l-24 -80q-48 -24 -128 -24q-106 0 -163 65.5t-57 178.5q0 100 60.5 168t155.5 68q81 0 125.5 -38t44.5 -110q0 -31 -8 -76zM260 404q-97 0 -124 -116l204 8q4 15 4 36q0 30 -24 51t-60 21zM252 616l-120 -96
l-36 32l156 144l156 -144l-36 -32z" />
    <glyph glyph-name="edieresis" unicode="&#xeb;" horiz-adv-x="474" 
d="M422 244l-290 -12v-16q0 -70 38 -113t106 -43q76 0 140 32l-24 -80q-48 -24 -128 -24q-106 0 -163 65.5t-57 178.5q0 100 60.5 168t155.5 68q81 0 125.5 -38t44.5 -110q0 -31 -8 -76zM260 404q-97 0 -124 -116l204 8q4 15 4 36q0 30 -24 51t-60 21zM170 540
q-21 0 -34.5 16t-13.5 40t13.5 40t34.5 16t34.5 -16t13.5 -40t-13.5 -40t-34.5 -16zM334 540q-21 0 -34.5 16t-13.5 40t13.5 40t34.5 16t34.5 -16t13.5 -40t-13.5 -40t-34.5 -16z" />
    <glyph glyph-name="igrave" unicode="&#xec;" horiz-adv-x="248" 
d="M80 0v444l88 24v-468h-88zM186 536l-36 -28l-132 140l60 44z" />
    <glyph glyph-name="iacute" unicode="&#xed;" horiz-adv-x="248" 
d="M80 0v444l88 24v-468h-88zM62 536l108 156l60 -44l-132 -140z" />
    <glyph glyph-name="icircumflex" unicode="&#xee;" horiz-adv-x="248" 
d="M80 0v444l88 24v-468h-88zM124 616l-120 -96l-36 32l156 144l156 -144l-36 -32z" />
    <glyph glyph-name="idieresis" unicode="&#xef;" horiz-adv-x="248" 
d="M80 0v444l88 24v-468h-88zM42 540q-21 0 -34.5 16t-13.5 40t13.5 40t34.5 16t34.5 -16t13.5 -40t-13.5 -40t-34.5 -16zM206 540q-21 0 -34.5 16t-13.5 40t13.5 40t34.5 16t34.5 -16t13.5 -40t-13.5 -40t-34.5 -16z" />
    <glyph glyph-name="eth" unicode="&#xf0;" horiz-adv-x="488" 
d="M196 500l-36 48l77 58q-55 42 -129 42h-32l32 64h16q99 0 176 -59l84 63l36 -48l-76 -57q108 -126 108 -343q0 -127 -58.5 -203.5t-157.5 -76.5q-94 0 -147 61.5t-53 166.5q0 98 65 161t155 63q52 0 89 -23q-22 89 -65 146zM364 264q0 40 -6 85q-35 31 -98 31
q-59 0 -95.5 -42t-36.5 -122q0 -83 34.5 -125.5t77.5 -42.5q124 0 124 216z" />
    <glyph glyph-name="ntilde" unicode="&#xf1;" horiz-adv-x="532" 
d="M364 0v292q0 58 -18.5 83t-65.5 25q-57 0 -112 -48v-352h-88v444l88 24v-60q66 60 144 60q65 0 102.5 -35t37.5 -105v-328h-88zM430 640l-76 -100h-24q-24 0 -68 28t-56 28q-18 0 -36 -24l-28 -36l-36 28l76 100h24q24 0 68 -28t56 -28q18 0 36 24l28 36z" />
    <glyph glyph-name="ograve" unicode="&#xf2;" horiz-adv-x="524" 
d="M248 -12q-97 0 -150.5 59.5t-53.5 172.5q0 114 62 181t170 67q97 0 150.5 -59.5t53.5 -172.5q0 -114 -62 -181t-170 -67zM260 52q57 0 92.5 48t35.5 128q0 176 -124 176q-58 0 -93 -46t-35 -126q0 -180 124 -180zM326 536l-36 -28l-132 140l60 44z" />
    <glyph glyph-name="oacute" unicode="&#xf3;" horiz-adv-x="524" 
d="M248 -12q-97 0 -150.5 59.5t-53.5 172.5q0 114 62 181t170 67q97 0 150.5 -59.5t53.5 -172.5q0 -114 -62 -181t-170 -67zM260 52q57 0 92.5 48t35.5 128q0 176 -124 176q-58 0 -93 -46t-35 -126q0 -180 124 -180zM202 536l108 156l60 -44l-132 -140z" />
    <glyph glyph-name="ocircumflex" unicode="&#xf4;" horiz-adv-x="524" 
d="M248 -12q-97 0 -150.5 59.5t-53.5 172.5q0 114 62 181t170 67q97 0 150.5 -59.5t53.5 -172.5q0 -114 -62 -181t-170 -67zM260 52q57 0 92.5 48t35.5 128q0 176 -124 176q-58 0 -93 -46t-35 -126q0 -180 124 -180zM264 616l-120 -96l-36 32l156 144l156 -144l-36 -32z" />
    <glyph glyph-name="otilde" unicode="&#xf5;" horiz-adv-x="524" 
d="M248 -12q-97 0 -150.5 59.5t-53.5 172.5q0 114 62 181t170 67q97 0 150.5 -59.5t53.5 -172.5q0 -114 -62 -181t-170 -67zM260 52q57 0 92.5 48t35.5 128q0 176 -124 176q-58 0 -93 -46t-35 -126q0 -180 124 -180zM426 640l-76 -100h-24q-24 0 -68 28t-56 28
q-18 0 -36 -24l-28 -36l-36 28l76 100h24q24 0 68 -28t56 -28q18 0 36 24l28 36z" />
    <glyph glyph-name="odieresis" unicode="&#xf6;" horiz-adv-x="524" 
d="M248 -12q-97 0 -150.5 59.5t-53.5 172.5q0 114 62 181t170 67q97 0 150.5 -59.5t53.5 -172.5q0 -114 -62 -181t-170 -67zM260 52q57 0 92.5 48t35.5 128q0 176 -124 176q-58 0 -93 -46t-35 -126q0 -180 124 -180zM182 540q-21 0 -34.5 16t-13.5 40t13.5 40t34.5 16
t34.5 -16t13.5 -40t-13.5 -40t-34.5 -16zM346 540q-21 0 -34.5 16t-13.5 40t13.5 40t34.5 16t34.5 -16t13.5 -40t-13.5 -40t-34.5 -16z" />
    <glyph glyph-name="divide" unicode="&#xf7;" 
d="M200 480q0 25 17 42.5t43 17.5t43 -17.5t17 -42.5t-17 -42.5t-43 -17.5t-43 17.5t-17 42.5zM200 152q0 25 17 42.5t43 17.5t43 -17.5t17 -42.5t-17 -42.5t-43 -17.5t-43 17.5t-17 42.5zM48 288v60h408v-60h-408z" />
    <glyph glyph-name="oslash" unicode="&#xf8;" horiz-adv-x="524" 
d="M176 -84l16 78q-71 16 -109.5 73t-38.5 153q0 114 62 181t170 67h13l19 92l40 -16l-17 -82q71 -16 110 -73.5t39 -152.5q0 -114 -62 -181t-170 -67h-14l-18 -88zM260 52q57 0 92.5 48t35.5 128q0 134 -71 166l-70 -342h13zM136 232q0 -136 70 -169l70 340q-4 1 -12 1
q-58 0 -93 -46t-35 -126z" />
    <glyph glyph-name="ugrave" unicode="&#xf9;" horiz-adv-x="528" 
d="M360 -12v60q-66 -60 -144 -60q-64 0 -102 33.5t-38 102.5v320l88 24v-304q0 -57 19.5 -82.5t64.5 -25.5q57 0 112 48v340l88 24v-456zM326 536l-36 -28l-132 140l60 44z" />
    <glyph glyph-name="uacute" unicode="&#xfa;" horiz-adv-x="528" 
d="M360 -12v60q-66 -60 -144 -60q-64 0 -102 33.5t-38 102.5v320l88 24v-304q0 -57 19.5 -82.5t64.5 -25.5q57 0 112 48v340l88 24v-456zM202 536l108 156l60 -44l-132 -140z" />
    <glyph glyph-name="ucircumflex" unicode="&#xfb;" horiz-adv-x="528" 
d="M360 -12v60q-66 -60 -144 -60q-64 0 -102 33.5t-38 102.5v320l88 24v-304q0 -57 19.5 -82.5t64.5 -25.5q57 0 112 48v340l88 24v-456zM264 616l-120 -96l-36 32l156 144l156 -144l-36 -32z" />
    <glyph glyph-name="udieresis" unicode="&#xfc;" horiz-adv-x="528" 
d="M360 -12v60q-66 -60 -144 -60q-64 0 -102 33.5t-38 102.5v320l88 24v-304q0 -57 19.5 -82.5t64.5 -25.5q57 0 112 48v340l88 24v-456zM182 540q-21 0 -34.5 16t-13.5 40t13.5 40t34.5 16t34.5 -16t13.5 -40t-13.5 -40t-34.5 -16zM346 540q-21 0 -34.5 16t-13.5 40
t13.5 40t34.5 16t34.5 -16t13.5 -40t-13.5 -40t-34.5 -16z" />
    <glyph glyph-name="yacute" unicode="&#xfd;" horiz-adv-x="420" 
d="M24 -228l-40 88h52q98 0 132 112l3 10l-163 474h92l115 -343l117 343h80l-180 -484q-16 -44 -30 -72t-38 -61t-59 -50t-81 -17zM154 536l108 156l60 -44l-132 -140z" />
    <glyph glyph-name="thorn" unicode="&#xfe;" horiz-adv-x="536" 
d="M80 -228v916l88 24v-304q57 60 136 60q90 0 139 -58.5t49 -169.5q0 -114 -63 -183t-165 -69q-56 0 -96 24v-216zM264 400q-48 0 -96 -32v-212q0 -51 29 -77.5t71 -26.5q58 0 95 48.5t37 131.5q0 168 -136 168z" />
    <glyph glyph-name="ydieresis" unicode="&#xff;" horiz-adv-x="420" 
d="M24 -228l-40 88h52q98 0 132 112l3 10l-163 474h92l115 -343l117 343h80l-180 -484q-16 -44 -30 -72t-38 -61t-59 -50t-81 -17zM134 540q-21 0 -34.5 16t-13.5 40t13.5 40t34.5 16t34.5 -16t13.5 -40t-13.5 -40t-34.5 -16zM298 540q-21 0 -34.5 16t-13.5 40t13.5 40
t34.5 16t34.5 -16t13.5 -40t-13.5 -40t-34.5 -16z" />
    <glyph glyph-name="Amacron" unicode="&#x100;" horiz-adv-x="552" 
d="M440 0l-56 152h-235l-53 -152h-88l215 596l-19 48h104l236 -644h-104zM264 480l-90 -256h184zM392 716h-252v64h252v-64z" />
    <glyph glyph-name="amacron" unicode="&#x101;" horiz-adv-x="468" 
d="M436 0q-27 -12 -64 -12q-57 0 -73 55q-55 -55 -131 -55q-58 0 -91 29.5t-33 82.5q0 94 136 132l116 32v68q0 37 -14 54.5t-46 17.5q-34 0 -92 -52l-44 -40l-52 60q109 96 220 96q59 0 88 -28t28 -80l-4 -252q-1 -35 10.5 -44t57.5 -12zM200 52q48 0 96 32v126l-84 -26
q-38 -12 -59 -28.5t-21 -47.5q0 -56 68 -56zM354 568h-252v64h252v-64z" />
    <glyph glyph-name="Abreve" unicode="&#x102;" horiz-adv-x="552" 
d="M440 0l-56 152h-235l-53 -152h-88l215 596l-19 48h104l236 -644h-104zM264 480l-90 -256h184zM264 772q33 0 58.5 11t61.5 41l24 -20q-29 -52 -63 -74t-81 -22t-81 22t-63 74l24 20q36 -30 61.5 -41t58.5 -11z" />
    <glyph glyph-name="abreve" unicode="&#x103;" horiz-adv-x="468" 
d="M436 0q-27 -12 -64 -12q-57 0 -73 55q-55 -55 -131 -55q-58 0 -91 29.5t-33 82.5q0 94 136 132l116 32v68q0 37 -14 54.5t-46 17.5q-34 0 -92 -52l-44 -40l-52 60q109 96 220 96q59 0 88 -28t28 -80l-4 -252q-1 -35 10.5 -44t57.5 -12zM200 52q48 0 96 32v126l-84 -26
q-38 -12 -59 -28.5t-21 -47.5q0 -56 68 -56zM230 600q34 0 59.5 13.5t60.5 54.5l28 -20q-33 -62 -67.5 -87t-80.5 -25t-80.5 26t-67.5 88l28 20q35 -41 60.5 -55.5t59.5 -14.5z" />
    <glyph glyph-name="Aogonek" unicode="&#x104;" horiz-adv-x="552" 
d="M544 0h-81q-47 -56 -61.5 -78.5t-14.5 -45.5q0 -22 12.5 -35t35.5 -13q26 0 76 32l24 -44q-51 -44 -104 -44q-52 0 -82 24t-30 68q0 18 5.5 35t19 36t22.5 29t32 33.5t31 31.5l-45 123h-235l-53 -152h-88l215 596l-19 48h104zM264 480l-90 -256h184z" />
    <glyph glyph-name="aogonek" unicode="&#x105;" horiz-adv-x="468" 
d="M437 2q-81 -27 -115 -60.5t-34 -65.5q0 -22 12.5 -35t35.5 -13q26 0 76 32l24 -44q-51 -44 -104 -44q-52 0 -82 24t-30 68q0 75 105 139q-19 14 -26 40q-55 -55 -131 -55q-58 0 -91 29.5t-33 82.5q0 94 136 132l116 32v68q0 37 -14 54.5t-46 17.5q-34 0 -92 -52l-44 -40
l-52 60q109 96 220 96q59 0 88 -28t28 -80l-4 -252q-1 -35 10.5 -44t57.5 -12zM200 52q48 0 96 32v126l-84 -26q-38 -12 -59 -28.5t-21 -47.5q0 -56 68 -56z" />
    <glyph glyph-name="Cacute" unicode="&#x106;" horiz-adv-x="624" 
d="M572 132v-88q-32 -23 -87 -39.5t-109 -16.5q-153 0 -242.5 89.5t-89.5 242.5q0 147 92.5 241.5t239.5 94.5q63 0 115 -17t81 -39v-92q-97 68 -196 68q-101 0 -164.5 -66.5t-63.5 -181.5t63 -187.5t165 -72.5q118 0 196 64zM302 697l-35 38l148 156l56 -60z" />
    <glyph glyph-name="cacute" unicode="&#x107;" horiz-adv-x="432" 
d="M400 100l-16 -76q-49 -36 -132 -36q-99 0 -155.5 62.5t-56.5 173.5q0 115 64.5 179.5t159.5 64.5q91 0 156 -72l-60 -68l-80 76h-16q-52 0 -92 -45.5t-40 -122.5q0 -81 35.5 -126.5t108.5 -45.5q58 0 124 36zM190 536l108 156l60 -44l-132 -140z" />
    <glyph glyph-name="Ccircumflex" unicode="&#x108;" horiz-adv-x="624" 
d="M572 132v-88q-32 -23 -87 -39.5t-109 -16.5q-153 0 -242.5 89.5t-89.5 242.5q0 147 92.5 241.5t239.5 94.5q63 0 115 -17t81 -39v-92q-97 68 -196 68q-101 0 -164.5 -66.5t-63.5 -181.5t63 -187.5t165 -72.5q118 0 196 64zM368 772l-120 -68l-28 40l148 108l148 -108
l-28 -40z" />
    <glyph glyph-name="ccircumflex" unicode="&#x109;" horiz-adv-x="432" 
d="M400 100l-16 -76q-49 -36 -132 -36q-99 0 -155.5 62.5t-56.5 173.5q0 115 64.5 179.5t159.5 64.5q91 0 156 -72l-60 -68l-80 76h-16q-52 0 -92 -45.5t-40 -122.5q0 -81 35.5 -126.5t108.5 -45.5q58 0 124 36zM252 616l-120 -96l-36 32l156 144l156 -144l-36 -32z" />
    <glyph glyph-name="Cdotaccent" unicode="&#x10a;" horiz-adv-x="624" 
d="M572 132v-88q-32 -23 -87 -39.5t-109 -16.5q-153 0 -242.5 89.5t-89.5 242.5q0 147 92.5 241.5t239.5 94.5q63 0 115 -17t81 -39v-92q-97 68 -196 68q-101 0 -164.5 -66.5t-63.5 -181.5t63 -187.5t165 -72.5q118 0 196 64zM368 708q-21 0 -34.5 16t-13.5 40t13.5 40
t34.5 16t34.5 -16t13.5 -40t-13.5 -40t-34.5 -16z" />
    <glyph glyph-name="cdotaccent" unicode="&#x10b;" horiz-adv-x="432" 
d="M400 100l-16 -76q-49 -36 -132 -36q-99 0 -155.5 62.5t-56.5 173.5q0 115 64.5 179.5t159.5 64.5q91 0 156 -72l-60 -68l-80 76h-16q-52 0 -92 -45.5t-40 -122.5q0 -81 35.5 -126.5t108.5 -45.5q58 0 124 36zM252 588q-26 0 -41 15.5t-15 40.5t15 40.5t41 15.5t41 -15.5
t15 -40.5t-15 -40.5t-41 -15.5z" />
    <glyph glyph-name="Ccaron" unicode="&#x10c;" horiz-adv-x="624" 
d="M572 132v-88q-32 -23 -87 -39.5t-109 -16.5q-153 0 -242.5 89.5t-89.5 242.5q0 147 92.5 241.5t239.5 94.5q63 0 115 -17t81 -39v-92q-97 68 -196 68q-101 0 -164.5 -66.5t-63.5 -181.5t63 -187.5t165 -72.5q118 0 196 64zM248 852l120 -68l120 68l28 -40l-148 -108
l-148 108z" />
    <glyph glyph-name="ccaron" unicode="&#x10d;" horiz-adv-x="432" 
d="M400 100l-16 -76q-49 -36 -132 -36q-99 0 -155.5 62.5t-56.5 173.5q0 115 64.5 179.5t159.5 64.5q91 0 156 -72l-60 -68l-80 76h-16q-52 0 -92 -45.5t-40 -122.5q0 -81 35.5 -126.5t108.5 -45.5q58 0 124 36zM252 516l-156 144l36 32l120 -96l120 96l36 -32z" />
    <glyph glyph-name="Dcaron" unicode="&#x10e;" horiz-adv-x="656" 
d="M88 16v624q96 16 180 16q165 0 254.5 -88.5t89.5 -243.5q0 -154 -89.5 -245t-242.5 -91q-89 0 -192 28zM280 64q103 0 167.5 69t64.5 187q0 123 -67.5 193.5t-188.5 70.5h-72v-504q45 -16 96 -16zM192 852l120 -68l120 68l28 -40l-148 -108l-148 108z" />
    <glyph glyph-name="dcaron" unicode="&#x10f;" horiz-adv-x="536" 
d="M368 -12v55q-52 -55 -132 -55q-89 0 -140.5 65.5t-51.5 174.5q0 107 64 173.5t164 66.5q56 0 96 -24v244l88 24v-704zM272 56q49 0 96 28v216q0 51 -29 77.5t-71 26.5q-58 0 -95 -45.5t-37 -122.5q0 -92 36.5 -136t99.5 -44zM503 506v195l77 -2l-29 -196z" />
    <glyph glyph-name="Dcroat" unicode="&#x110;" horiz-adv-x="656" 
d="M20 300l8 68h60v272q96 16 180 16q165 0 254.5 -88.5t89.5 -243.5q0 -154 -89.5 -245t-242.5 -91q-89 0 -192 28v284h-68zM256 584h-72v-216h128l-8 -68h-120v-220q45 -16 96 -16q103 0 167.5 69t64.5 187q0 123 -67.5 193.5t-188.5 70.5z" />
    <glyph glyph-name="dcroat" unicode="&#x111;" horiz-adv-x="536" 
d="M248 552l8 60h112v76l88 24v-100h76l-8 -60h-68v-544l-88 -20v55q-52 -55 -132 -55q-89 0 -140.5 65.5t-51.5 174.5q0 107 64 173.5t164 66.5q56 0 96 -24v108h-120zM272 56q49 0 96 28v212q0 54 -29 81t-71 27q-58 0 -95 -45.5t-37 -122.5q0 -92 36.5 -136t99.5 -44z
" />
    <glyph glyph-name="Emacron" unicode="&#x112;" horiz-adv-x="492" 
d="M88 0v644h352l-32 -76h-224v-204h212l-32 -76h-180v-212h268l-32 -76h-332zM396 716h-252v64h252v-64z" />
    <glyph glyph-name="emacron" unicode="&#x113;" horiz-adv-x="474" 
d="M422 244l-290 -12v-16q0 -70 38 -113t106 -43q76 0 140 32l-24 -80q-48 -24 -128 -24q-106 0 -163 65.5t-57 178.5q0 100 60.5 168t155.5 68q81 0 125.5 -38t44.5 -110q0 -31 -8 -76zM260 404q-97 0 -124 -116l204 8q4 15 4 36q0 30 -24 51t-60 21zM378 568h-252v64h252
v-64z" />
    <glyph glyph-name="Ebreve" unicode="&#x114;" horiz-adv-x="492" 
d="M88 0v644h352l-32 -76h-224v-204h212l-32 -76h-180v-212h268l-32 -76h-332zM268 772q33 0 58.5 11t61.5 41l24 -20q-29 -52 -63 -74t-81 -22t-81 22t-63 74l24 20q36 -30 61.5 -41t58.5 -11z" />
    <glyph glyph-name="ebreve" unicode="&#x115;" horiz-adv-x="474" 
d="M422 244l-290 -12v-16q0 -70 38 -113t106 -43q76 0 140 32l-24 -80q-48 -24 -128 -24q-106 0 -163 65.5t-57 178.5q0 100 60.5 168t155.5 68q81 0 125.5 -38t44.5 -110q0 -31 -8 -76zM260 404q-97 0 -124 -116l204 8q4 15 4 36q0 30 -24 51t-60 21zM254 600
q34 0 59.5 13.5t60.5 54.5l28 -20q-33 -62 -67.5 -87t-80.5 -25t-80.5 26t-67.5 88l28 20q35 -41 60.5 -55.5t59.5 -14.5z" />
    <glyph glyph-name="Edotaccent" unicode="&#x116;" horiz-adv-x="492" 
d="M88 0v644h352l-32 -76h-224v-204h212l-32 -76h-180v-212h268l-32 -76h-332zM268 708q-21 0 -34.5 16t-13.5 40t13.5 40t34.5 16t34.5 -16t13.5 -40t-13.5 -40t-34.5 -16z" />
    <glyph glyph-name="edotaccent" unicode="&#x117;" horiz-adv-x="474" 
d="M422 244l-290 -12v-16q0 -70 38 -113t106 -43q76 0 140 32l-24 -80q-48 -24 -128 -24q-106 0 -163 65.5t-57 178.5q0 100 60.5 168t155.5 68q81 0 125.5 -38t44.5 -110q0 -31 -8 -76zM260 404q-97 0 -124 -116l204 8q4 15 4 36q0 30 -24 51t-60 21zM252 588
q-26 0 -41 15.5t-15 40.5t15 40.5t41 15.5t41 -15.5t15 -40.5t-15 -40.5t-41 -15.5z" />
    <glyph glyph-name="Eogonek" unicode="&#x118;" horiz-adv-x="492" 
d="M88 0v644h352l-32 -76h-224v-204h212l-32 -76h-180v-212h268l-32 -76h-60q-47 -56 -61.5 -78.5t-14.5 -45.5q0 -22 12.5 -35t35.5 -13q26 0 76 32l24 -44q-51 -44 -104 -44q-52 0 -82 24t-30 68q0 36 20.5 66t61.5 70h-210z" />
    <glyph glyph-name="eogonek" unicode="&#x119;" horiz-adv-x="474" 
d="M422 244l-290 -12v-16q0 -70 38 -113t106 -43q76 0 140 32l-24 -78q-143 -76 -143 -138q0 -22 12.5 -35t35.5 -13q26 0 76 32l24 -44q-51 -44 -104 -44q-52 0 -82 24t-30 68q0 36 21.5 64.5t68.5 59.5h-7q-106 0 -163 65.5t-57 178.5q0 100 60.5 168t155.5 68
q81 0 125.5 -38t44.5 -110q0 -31 -8 -76zM260 404q-97 0 -124 -116l204 8q4 15 4 36q0 30 -24 51t-60 21z" />
    <glyph glyph-name="Ecaron" unicode="&#x11a;" horiz-adv-x="492" 
d="M88 0v644h352l-32 -76h-224v-204h212l-32 -76h-180v-212h268l-32 -76h-332zM148 852l120 -68l120 68l28 -40l-148 -108l-148 108z" />
    <glyph glyph-name="ecaron" unicode="&#x11b;" horiz-adv-x="474" 
d="M422 244l-290 -12v-16q0 -70 38 -113t106 -43q76 0 140 32l-24 -80q-48 -24 -128 -24q-106 0 -163 65.5t-57 178.5q0 100 60.5 168t155.5 68q81 0 125.5 -38t44.5 -110q0 -31 -8 -76zM260 404q-97 0 -124 -116l204 8q4 15 4 36q0 30 -24 51t-60 21zM252 516l-156 144
l36 32l120 -96l120 96l36 -32z" />
    <glyph glyph-name="Gcircumflex" unicode="&#x11c;" horiz-adv-x="668" 
d="M584 -12l-65 28q-72 -28 -143 -28q-153 0 -242.5 89.5t-89.5 242.5q0 147 94.5 241.5t241.5 94.5q63 0 117 -17.5t83 -38.5v-92q-97 68 -200 68q-102 0 -167 -67t-65 -181q0 -115 63 -187.5t165 -72.5q62 0 116 20v176h-120l28 76h184v-352zM360 772l-120 -68l-28 40
l148 108l148 -108l-28 -40z" />
    <glyph glyph-name="gcircumflex" unicode="&#x11d;" horiz-adv-x="492" 
d="M356 452h152l-20 -72h-64q8 -24 8 -52q0 -83 -56 -133.5t-144 -50.5q-27 0 -55 5q-29 -21 -29 -45q0 -44 80 -44h112q59 0 93.5 -27.5t34.5 -80.5q0 -73 -73.5 -126.5t-182.5 -53.5q-83 0 -135.5 30t-52.5 90q0 34 27 65t71 49q-50 24 -50 70q0 43 64 85q-96 39 -96 143
q0 76 57.5 120t146.5 44q54 0 112 -16zM332 388q-33 20 -88 20t-85.5 -27t-30.5 -77q0 -46 27 -73t77 -27q55 0 83.5 30t28.5 78q0 52 -12 76zM300 -16l-149 4q-17 -11 -30 -32.5t-13 -43.5q0 -84 120 -84q69 0 110.5 27.5t41.5 72.5q0 32 -18.5 43.5t-61.5 12.5zM244 616
l-120 -96l-36 32l156 144l156 -144l-36 -32z" />
    <glyph glyph-name="Gbreve" unicode="&#x11e;" horiz-adv-x="668" 
d="M584 -12l-65 28q-72 -28 -143 -28q-153 0 -242.5 89.5t-89.5 242.5q0 147 94.5 241.5t241.5 94.5q63 0 117 -17.5t83 -38.5v-92q-97 68 -200 68q-102 0 -167 -67t-65 -181q0 -115 63 -187.5t165 -72.5q62 0 116 20v176h-120l28 76h184v-352zM360 772q33 0 58.5 11
t61.5 41l24 -20q-29 -52 -63 -74t-81 -22t-81 22t-63 74l24 20q36 -30 61.5 -41t58.5 -11z" />
    <glyph glyph-name="gbreve" unicode="&#x11f;" horiz-adv-x="492" 
d="M356 452h152l-20 -72h-64q8 -24 8 -52q0 -83 -56 -133.5t-144 -50.5q-27 0 -55 5q-29 -21 -29 -45q0 -44 80 -44h112q59 0 93.5 -27.5t34.5 -80.5q0 -73 -73.5 -126.5t-182.5 -53.5q-83 0 -135.5 30t-52.5 90q0 34 27 65t71 49q-50 24 -50 70q0 43 64 85q-96 39 -96 143
q0 76 57.5 120t146.5 44q54 0 112 -16zM332 388q-33 20 -88 20t-85.5 -27t-30.5 -77q0 -46 27 -73t77 -27q55 0 83.5 30t28.5 78q0 52 -12 76zM300 -16l-149 4q-17 -11 -30 -32.5t-13 -43.5q0 -84 120 -84q69 0 110.5 27.5t41.5 72.5q0 32 -18.5 43.5t-61.5 12.5zM246 600
q34 0 59.5 13.5t60.5 54.5l28 -20q-33 -62 -67.5 -87t-80.5 -25t-80.5 26t-67.5 88l28 20q35 -41 60.5 -55.5t59.5 -14.5z" />
    <glyph glyph-name="Gdotaccent" unicode="&#x120;" horiz-adv-x="668" 
d="M584 -12l-65 28q-72 -28 -143 -28q-153 0 -242.5 89.5t-89.5 242.5q0 147 94.5 241.5t241.5 94.5q63 0 117 -17.5t83 -38.5v-92q-97 68 -200 68q-102 0 -167 -67t-65 -181q0 -115 63 -187.5t165 -72.5q62 0 116 20v176h-120l28 76h184v-352zM360 708q-21 0 -34.5 16
t-13.5 40t13.5 40t34.5 16t34.5 -16t13.5 -40t-13.5 -40t-34.5 -16z" />
    <glyph glyph-name="gdotaccent" unicode="&#x121;" horiz-adv-x="492" 
d="M356 452h152l-20 -72h-64q8 -24 8 -52q0 -83 -56 -133.5t-144 -50.5q-27 0 -55 5q-29 -21 -29 -45q0 -44 80 -44h112q59 0 93.5 -27.5t34.5 -80.5q0 -73 -73.5 -126.5t-182.5 -53.5q-83 0 -135.5 30t-52.5 90q0 34 27 65t71 49q-50 24 -50 70q0 43 64 85q-96 39 -96 143
q0 76 57.5 120t146.5 44q54 0 112 -16zM332 388q-33 20 -88 20t-85.5 -27t-30.5 -77q0 -46 27 -73t77 -27q55 0 83.5 30t28.5 78q0 52 -12 76zM300 -16l-149 4q-17 -11 -30 -32.5t-13 -43.5q0 -84 120 -84q69 0 110.5 27.5t41.5 72.5q0 32 -18.5 43.5t-61.5 12.5zM244 588
q-26 0 -41 15.5t-15 40.5t15 40.5t41 15.5t41 -15.5t15 -40.5t-15 -40.5t-41 -15.5z" />
    <glyph glyph-name="Gcommaaccent" unicode="&#x122;" horiz-adv-x="668" 
d="M584 -12l-65 28q-72 -28 -143 -28q-153 0 -242.5 89.5t-89.5 242.5q0 147 94.5 241.5t241.5 94.5q63 0 117 -17.5t83 -38.5v-92q-97 68 -200 68q-102 0 -167 -67t-65 -181q0 -115 63 -187.5t165 -72.5q62 0 116 20v176h-120l28 76h184v-352zM354 -40q26 0 41 -18.5
t15 -49.5q0 -72 -80 -132l-28 24q48 44 48 80q-48 5 -48 48q0 22 14.5 35t37.5 13z" />
    <glyph glyph-name="gcommaaccent" unicode="&#x123;" horiz-adv-x="492" 
d="M356 452h152l-20 -72h-64q8 -24 8 -52q0 -83 -56 -133.5t-144 -50.5q-27 0 -55 5q-29 -21 -29 -45q0 -44 80 -44h112q59 0 93.5 -27.5t34.5 -80.5q0 -73 -73.5 -126.5t-182.5 -53.5q-83 0 -135.5 30t-52.5 90q0 34 27 65t71 49q-50 24 -50 70q0 43 64 85q-96 39 -96 143
q0 76 57.5 120t146.5 44q54 0 112 -16zM332 388q-33 20 -88 20t-85.5 -27t-30.5 -77q0 -46 27 -73t77 -27q55 0 83.5 30t28.5 78q0 52 -12 76zM300 -16l-149 4q-17 -11 -30 -32.5t-13 -43.5q0 -84 120 -84q69 0 110.5 27.5t41.5 72.5q0 32 -18.5 43.5t-61.5 12.5zM242 524
q-26 0 -41 18.5t-15 49.5q0 72 80 132l28 -24q-48 -44 -48 -80q48 -5 48 -48q0 -22 -14.5 -35t-37.5 -13z" />
    <glyph glyph-name="Hcircumflex" unicode="&#x124;" horiz-adv-x="672" 
d="M488 0v296h-304v-296h-96v644h96v-272h304v272h96v-644h-96zM336 772l-120 -68l-28 40l148 108l148 -108l-28 -40z" />
    <glyph glyph-name="hcircumflex" unicode="&#x125;" horiz-adv-x="532" 
d="M364 0v292q0 58 -18.5 83t-65.5 25q-57 0 -112 -48v-352h-88v688l88 24v-304q66 60 144 60q65 0 102.5 -35t37.5 -105v-328h-88zM265 806l-120 -68l-28 40l148 108l148 -108l-28 -40z" />
    <glyph glyph-name="Hbar" unicode="&#x126;" horiz-adv-x="672" 
d="M488 0v296h-304v-296h-96v468h-68l8 68h60v108h96v-108h304v108h96v-108h64l-8 -68h-56v-468h-96zM184 468v-96h304v96h-304z" />
    <glyph glyph-name="hbar" unicode="&#x127;" horiz-adv-x="532" 
d="M364 0v292q0 58 -18.5 83t-65.5 25q-57 0 -112 -48v-352h-88v552h-72l8 60h64v76l88 24v-100h124l-8 -60h-116v-144q66 60 144 60q65 0 102.5 -35t37.5 -105v-328h-88z" />
    <glyph glyph-name="Itilde" unicode="&#x128;" horiz-adv-x="272" 
d="M88 0v644h96v-644h-96zM12 716l-36 28l60 80h24q30 0 80 -20t68 -20t36 24l12 16l36 -28l-60 -80h-24q-30 0 -80 20t-68 20t-36 -24z" />
    <glyph glyph-name="itilde" unicode="&#x129;" horiz-adv-x="248" 
d="M80 0v444l88 24v-468h-88zM286 640l-76 -100h-24q-24 0 -68 28t-56 28q-18 0 -36 -24l-28 -36l-36 28l76 100h24q24 0 68 -28t56 -28q18 0 36 24l28 36z" />
    <glyph glyph-name="Imacron" unicode="&#x12a;" horiz-adv-x="272" 
d="M88 0v644h96v-644h-96zM264 716h-252v64h252v-64z" />
    <glyph glyph-name="imacron" unicode="&#x12b;" horiz-adv-x="248" 
d="M80 0v444l88 24v-468h-88zM250 568h-252v64h252v-64z" />
    <glyph glyph-name="Ibreve" unicode="&#x12c;" horiz-adv-x="272" 
d="M88 0v644h96v-644h-96zM136 772q33 0 58.5 11t61.5 41l24 -20q-29 -52 -63 -74t-81 -22t-81 22t-63 74l24 20q36 -30 61.5 -41t58.5 -11z" />
    <glyph glyph-name="ibreve" unicode="&#x12d;" horiz-adv-x="248" 
d="M80 0v444l88 24v-468h-88zM126 600q34 0 59.5 13.5t60.5 54.5l28 -20q-33 -62 -67.5 -87t-80.5 -25t-80.5 26t-67.5 88l28 20q35 -41 60.5 -55.5t59.5 -14.5z" />
    <glyph glyph-name="Iogonek" unicode="&#x12e;" horiz-adv-x="272" 
d="M184 0h-36q-47 -56 -61.5 -78.5t-14.5 -45.5q0 -22 12.5 -35t35.5 -13q26 0 76 32l24 -44q-51 -44 -104 -44q-52 0 -82 24t-30 68q0 25 13.5 51t27.5 42t43 45v642h96v-644z" />
    <glyph glyph-name="iogonek" unicode="&#x12f;" horiz-adv-x="248" 
d="M80 0v444l88 24v-468h-14q-47 -56 -61.5 -78.5t-14.5 -45.5q0 -22 12.5 -35t35.5 -13q26 0 76 32l24 -44q-51 -44 -104 -44q-52 0 -82 24t-30 68q0 36 20.5 66t61.5 70h-12zM128 588q-26 0 -41 15.5t-15 40.5t15 40.5t41 15.5t41 -15.5t15 -40.5t-15 -40.5t-41 -15.5z
" />
    <glyph glyph-name="Idotaccent" unicode="&#x130;" horiz-adv-x="272" 
d="M88 0v644h96v-644h-96zM136 708q-21 0 -34.5 16t-13.5 40t13.5 40t34.5 16t34.5 -16t13.5 -40t-13.5 -40t-34.5 -16z" />
    <glyph glyph-name="dotlessi" unicode="&#x131;" horiz-adv-x="248" 
d="M80 0v444l88 24v-468h-88z" />
    <glyph glyph-name="IJ" unicode="&#x132;" horiz-adv-x="544" 
d="M88 0v644h96v-644h-96zM260 -196l-36 80h40q53 0 74.5 28t21.5 88v644h96v-644q0 -102 -49.5 -149t-146.5 -47z" />
    <glyph glyph-name="ij" unicode="&#x133;" horiz-adv-x="496" 
d="M80 0v444l88 24v-468h-88zM128 588q-26 0 -41 15.5t-15 40.5t15 40.5t41 15.5t41 -15.5t15 -40.5t-15 -40.5t-41 -15.5zM228 -228l-24 68q72 0 98 33t26 107v464l88 24v-488q0 -103 -48.5 -155.5t-139.5 -52.5zM376 588q-26 0 -41 15.5t-15 40.5t15 40.5t41 15.5
t41 -15.5t15 -40.5t-15 -40.5t-41 -15.5z" />
    <glyph glyph-name="Jcircumflex" unicode="&#x134;" horiz-adv-x="272" 
d="M-12 -196l-36 80h40q53 0 74.5 28t21.5 88v644h96v-644q0 -102 -49.5 -149t-146.5 -47zM136 772l-120 -68l-28 40l148 108l148 -108l-28 -40z" />
    <glyph glyph-name="jcircumflex" unicode="&#x135;" horiz-adv-x="248" 
d="M-20 -228l-24 68q72 0 98 33t26 107v464l88 24v-488q0 -103 -48.5 -155.5t-139.5 -52.5zM124 616l-120 -96l-36 32l156 144l156 -144l-36 -32z" />
    <glyph glyph-name="Kcommaaccent" unicode="&#x136;" horiz-adv-x="588" 
d="M88 0v644h96v-644h-96zM456 0l-260 320l256 324h108l-256 -312l272 -332h-120zM302 -40q26 0 41 -18.5t15 -49.5q0 -72 -80 -132l-28 24q48 44 48 80q-48 5 -48 48q0 22 14.5 35t37.5 13z" />
    <glyph glyph-name="kcommaaccent" unicode="&#x137;" horiz-adv-x="488" 
d="M80 0v688l88 24v-712h-88zM372 0q-69 70 -188 244l176 212h112l-192 -200l196 -256h-104zM250 -40q26 0 41 -18.5t15 -49.5q0 -72 -80 -132l-28 24q48 44 48 80q-48 5 -48 48q0 22 14.5 35t37.5 13z" />
    <glyph glyph-name="kgreenlandic" unicode="&#x138;" horiz-adv-x="488" 
d="M80 0v444l88 24v-468h-88zM372 0q-69 70 -188 244l176 212h112l-192 -200l196 -256h-104z" />
    <glyph glyph-name="Lacute" unicode="&#x139;" horiz-adv-x="460" 
d="M88 0v644h96v-568h252l-32 -76h-316zM74 697l-35 38l148 156l56 -60z" />
    <glyph glyph-name="lacute" unicode="&#x13a;" horiz-adv-x="248" 
d="M80 0v688l88 24v-712h-88zM58 753l-35 38l148 156l56 -60z" />
    <glyph glyph-name="Lcommaaccent" unicode="&#x13b;" horiz-adv-x="460" 
d="M88 0v644h96v-568h252l-32 -76h-316zM246 -40q26 0 41 -18.5t15 -49.5q0 -72 -80 -132l-28 24q48 44 48 80q-48 5 -48 48q0 22 14.5 35t37.5 13z" />
    <glyph glyph-name="lcommaaccent" unicode="&#x13c;" horiz-adv-x="248" 
d="M80 0v688l88 24v-712h-88zM118 -40q26 0 41 -18.5t15 -49.5q0 -72 -80 -132l-28 24q48 44 48 80q-48 5 -48 48q0 22 14.5 35t37.5 13z" />
    <glyph glyph-name="Lcaron" unicode="&#x13d;" horiz-adv-x="460" 
d="M88 0v644h96v-568h252l-32 -76h-316zM254 450v195l77 -2l-29 -196z" />
    <glyph glyph-name="lcaron" unicode="&#x13e;" horiz-adv-x="248" 
d="M80 0v688l88 24v-712h-88zM215 506v195l77 -2l-29 -196z" />
    <glyph glyph-name="Ldot" unicode="&#x13f;" horiz-adv-x="460" 
d="M88 0v644h96v-568h252l-32 -76h-316zM359 284q-21 0 -34.5 16t-13.5 40t13.5 40t34.5 16t34.5 -16t13.5 -40t-13.5 -40t-34.5 -16z" />
    <glyph glyph-name="ldot" unicode="&#x140;" horiz-adv-x="312" 
d="M80 0v688l88 24v-712h-88zM276 288q-21 0 -34.5 16t-13.5 40t13.5 40t34.5 16t34.5 -16t13.5 -40t-13.5 -40t-34.5 -16z" />
    <glyph glyph-name="Lslash" unicode="&#x141;" horiz-adv-x="460" 
d="M40 232l-36 60l84 61v291h96v-221l72 53l36 -60l-108 -79v-261h252l-32 -76h-316v267z" />
    <glyph glyph-name="lslash" unicode="&#x142;" horiz-adv-x="248" 
d="M36 240l-32 52l76 60v336l88 24v-290l48 38l32 -52l-80 -64v-344h-88v275z" />
    <glyph glyph-name="Nacute" unicode="&#x143;" horiz-adv-x="664" 
d="M536 0l-368 459v-459h-80v559l-68 85h120l356 -445v445h80v-644h-40zM266 697l-35 38l148 156l56 -60z" />
    <glyph glyph-name="nacute" unicode="&#x144;" horiz-adv-x="532" 
d="M364 0v292q0 58 -18.5 83t-65.5 25q-57 0 -112 -48v-352h-88v444l88 24v-60q66 60 144 60q65 0 102.5 -35t37.5 -105v-328h-88zM206 536l108 156l60 -44l-132 -140z" />
    <glyph glyph-name="Ncommaaccent" unicode="&#x145;" horiz-adv-x="664" 
d="M536 0l-368 459v-459h-80v559l-68 85h120l356 -445v445h80v-644h-40zM326 -40q26 0 41 -18.5t15 -49.5q0 -72 -80 -132l-28 24q48 44 48 80q-48 5 -48 48q0 22 14.5 35t37.5 13z" />
    <glyph glyph-name="ncommaaccent" unicode="&#x146;" horiz-adv-x="532" 
d="M364 0v292q0 58 -18.5 83t-65.5 25q-57 0 -112 -48v-352h-88v444l88 24v-60q66 60 144 60q65 0 102.5 -35t37.5 -105v-328h-88zM260 -40q26 0 41 -18.5t15 -49.5q0 -72 -80 -132l-28 24q48 44 48 80q-48 5 -48 48q0 22 14.5 35t37.5 13z" />
    <glyph glyph-name="Ncaron" unicode="&#x147;" horiz-adv-x="664" 
d="M536 0l-368 459v-459h-80v559l-68 85h120l356 -445v445h80v-644h-40zM212 852l120 -68l120 68l28 -40l-148 -108l-148 108z" />
    <glyph glyph-name="ncaron" unicode="&#x148;" horiz-adv-x="532" 
d="M364 0v292q0 58 -18.5 83t-65.5 25q-57 0 -112 -48v-352h-88v444l88 24v-60q66 60 144 60q65 0 102.5 -35t37.5 -105v-328h-88zM268 516l-156 144l36 32l120 -96l120 96l36 -32z" />
    <glyph glyph-name="napostrophe" unicode="&#x149;" horiz-adv-x="673" 
d="M78 368l-40 36q68 58 68 116l-16 4q-56 14 -56 60q0 30 18.5 49t45.5 19q72 0 72 -100q0 -97 -92 -184zM505 0v292q0 58 -18.5 83t-65.5 25q-57 0 -112 -48v-352h-88v444l88 24v-60q66 60 144 60q65 0 102.5 -35t37.5 -105v-328h-88z" />
    <glyph glyph-name="Eng" unicode="&#x14a;" horiz-adv-x="664" 
d="M380 -196l-20 80h40q46 0 71 29.5t25 86.5v50l-328 409v-459h-80v559l-68 85h120l356 -445v445h80v-644q0 -100 -52.5 -148t-143.5 -48z" />
    <glyph glyph-name="eng" unicode="&#x14b;" horiz-adv-x="532" 
d="M264 -228l-24 68q72 0 98 33t26 107v312q0 58 -18.5 83t-65.5 25q-57 0 -112 -48v-352h-88v444l88 24v-60q66 60 144 60q65 0 102.5 -35t37.5 -105v-348q0 -103 -48.5 -155.5t-139.5 -52.5z" />
    <glyph glyph-name="Omacron" unicode="&#x14c;" horiz-adv-x="712" 
d="M356 68q99 0 153.5 70.5t54.5 185.5q0 114 -54 183t-154 69t-154 -69t-54 -183q0 -115 54.5 -185.5t153.5 -70.5zM356 656q139 0 225.5 -90t86.5 -242q0 -147 -87 -241.5t-225 -94.5q-139 0 -225.5 92t-86.5 244q0 147 87 239.5t225 92.5zM484 716h-252v64h252v-64z" />
    <glyph glyph-name="omacron" unicode="&#x14d;" horiz-adv-x="524" 
d="M248 -12q-97 0 -150.5 59.5t-53.5 172.5q0 114 62 181t170 67q97 0 150.5 -59.5t53.5 -172.5q0 -114 -62 -181t-170 -67zM260 52q57 0 92.5 48t35.5 128q0 176 -124 176q-58 0 -93 -46t-35 -126q0 -180 124 -180zM390 568h-252v64h252v-64z" />
    <glyph glyph-name="Obreve" unicode="&#x14e;" horiz-adv-x="712" 
d="M356 68q99 0 153.5 70.5t54.5 185.5q0 114 -54 183t-154 69t-154 -69t-54 -183q0 -115 54.5 -185.5t153.5 -70.5zM356 656q139 0 225.5 -90t86.5 -242q0 -147 -87 -241.5t-225 -94.5q-139 0 -225.5 92t-86.5 244q0 147 87 239.5t225 92.5zM356 772q33 0 58.5 11t61.5 41
l24 -20q-29 -52 -63 -74t-81 -22t-81 22t-63 74l24 20q36 -30 61.5 -41t58.5 -11z" />
    <glyph glyph-name="obreve" unicode="&#x14f;" horiz-adv-x="524" 
d="M248 -12q-97 0 -150.5 59.5t-53.5 172.5q0 114 62 181t170 67q97 0 150.5 -59.5t53.5 -172.5q0 -114 -62 -181t-170 -67zM260 52q57 0 92.5 48t35.5 128q0 176 -124 176q-58 0 -93 -46t-35 -126q0 -180 124 -180zM266 600q34 0 59.5 13.5t60.5 54.5l28 -20
q-33 -62 -67.5 -87t-80.5 -25t-80.5 26t-67.5 88l28 20q35 -41 60.5 -55.5t59.5 -14.5z" />
    <glyph glyph-name="Ohungarumlaut" unicode="&#x150;" horiz-adv-x="712" 
d="M356 68q99 0 153.5 70.5t54.5 185.5q0 114 -54 183t-154 69t-154 -69t-54 -183q0 -115 54.5 -185.5t153.5 -70.5zM356 656q139 0 225.5 -90t86.5 -242q0 -147 -87 -241.5t-225 -94.5q-139 0 -225.5 92t-86.5 244q0 147 87 239.5t225 92.5zM238 697l-35 38l148 156l56 -60
zM402 697l-35 38l148 156l56 -60z" />
    <glyph glyph-name="ohungarumlaut" unicode="&#x151;" horiz-adv-x="524" 
d="M248 -12q-97 0 -150.5 59.5t-53.5 172.5q0 114 62 181t170 67q97 0 150.5 -59.5t53.5 -172.5q0 -114 -62 -181t-170 -67zM260 52q57 0 92.5 48t35.5 128q0 176 -124 176q-58 0 -93 -46t-35 -126q0 -180 124 -180zM142 536l108 156l60 -44l-132 -140zM310 536l108 156
l60 -44l-132 -140z" />
    <glyph glyph-name="OE" unicode="&#x152;" horiz-adv-x="916" 
d="M512 0v33q-68 -45 -156 -45q-137 0 -224.5 92.5t-87.5 243.5q0 147 89.5 239.5t230.5 92.5q89 0 148 -46v34h352l-32 -76h-224v-204h212l-32 -76h-180v-212h268l-32 -76h-332zM360 68q96 0 152 56v388q-52 64 -152 64t-156 -69t-56 -183t56 -185t156 -71z" />
    <glyph glyph-name="oe" unicode="&#x153;" horiz-adv-x="818" 
d="M736 12q-48 -24 -128 -24q-124 0 -179 90q-56 -90 -181 -90q-97 0 -150.5 59.5t-53.5 172.5q0 114 62 181t170 67q115 0 161 -85q60 85 167 85q81 0 125.5 -38t44.5 -110q0 -31 -8 -76l-290 -12v-16q0 -70 38 -113t106 -43q76 0 140 32zM260 52q57 0 92.5 48t35.5 128
q0 176 -124 176q-58 0 -93 -46t-35 -126q0 -180 124 -180zM604 404q-97 0 -124 -116l204 8q4 15 4 36q0 30 -24 51t-60 21z" />
    <glyph glyph-name="Racute" unicode="&#x154;" horiz-adv-x="568" 
d="M456 0l-180 264h-92v-264h-96v636q102 20 180 20q101 0 164.5 -47.5t63.5 -136.5q0 -66 -40 -113.5t-90 -68.5l202 -290h-112zM240 584h-56v-252h132q31 16 55.5 51t24.5 81q0 63 -37.5 91.5t-118.5 28.5zM206 697l-35 38l148 156l56 -60z" />
    <glyph glyph-name="racute" unicode="&#x155;" horiz-adv-x="336" 
d="M80 0v444l88 24v-90q57 90 108 90q32 0 60 -28l-36 -88l-56 28q-24 0 -76 -67v-313h-88zM146 536l108 156l60 -44l-132 -140z" />
    <glyph glyph-name="Rcommaaccent" unicode="&#x156;" horiz-adv-x="568" 
d="M456 0l-180 264h-92v-264h-96v636q102 20 180 20q101 0 164.5 -47.5t63.5 -136.5q0 -66 -40 -113.5t-90 -68.5l202 -290h-112zM240 584h-56v-252h132q31 16 55.5 51t24.5 81q0 63 -37.5 91.5t-118.5 28.5zM302 -40q26 0 41 -18.5t15 -49.5q0 -72 -80 -132l-28 24
q48 44 48 80q-48 5 -48 48q0 22 14.5 35t37.5 13z" />
    <glyph glyph-name="rcommaaccent" unicode="&#x157;" horiz-adv-x="336" 
d="M80 0v444l88 24v-90q57 90 108 90q32 0 60 -28l-36 -88l-56 28q-24 0 -76 -67v-313h-88zM122 -40q26 0 41 -18.5t15 -49.5q0 -72 -80 -132l-28 24q48 44 48 80q-48 5 -48 48q0 22 14.5 35t37.5 13z" />
    <glyph glyph-name="Rcaron" unicode="&#x158;" horiz-adv-x="568" 
d="M456 0l-180 264h-92v-264h-96v636q102 20 180 20q101 0 164.5 -47.5t63.5 -136.5q0 -66 -40 -113.5t-90 -68.5l202 -290h-112zM240 584h-56v-252h132q31 16 55.5 51t24.5 81q0 63 -37.5 91.5t-118.5 28.5zM152 852l120 -68l120 68l28 -40l-148 -108l-148 108z" />
    <glyph glyph-name="rcaron" unicode="&#x159;" horiz-adv-x="336" 
d="M80 0v444l88 24v-90q57 90 108 90q32 0 60 -28l-36 -88l-56 28q-24 0 -76 -67v-313h-88zM208 516l-156 144l36 32l120 -96l120 96l36 -32z" />
    <glyph glyph-name="Sacute" unicode="&#x15a;" horiz-adv-x="464" 
d="M52 20l-12 112q78 -64 172 -64q48 0 80 25t32 71q0 30 -15.5 53.5t-29.5 33t-43 25.5l-64 36q-65 36 -92.5 74t-27.5 94q0 81 58 128.5t154 47.5q91 0 140 -36v-104q-24 24 -64 42t-80 18q-49 0 -80.5 -21.5t-31.5 -66.5q0 -36 21 -57.5t67 -46.5l72 -40
q55 -30 85.5 -67.5t30.5 -100.5q0 -88 -58.5 -138t-153.5 -50q-90 0 -160 32zM174 697l-35 38l148 156l56 -60z" />
    <glyph glyph-name="sacute" unicode="&#x15b;" horiz-adv-x="388" 
d="M28 28l32 68q67 -40 128 -40q80 0 80 60q0 42 -64 68l-68 28q-96 40 -96 124q0 63 47 97.5t117 34.5q80 0 144 -32l-28 -72q-65 36 -116 36q-31 0 -53.5 -14t-22.5 -42q0 -39 52 -60l68 -28q53 -22 80.5 -49.5t27.5 -82.5q0 -65 -45.5 -100.5t-122.5 -35.5q-93 0 -160 40
zM134 536l108 156l60 -44l-132 -140z" />
    <glyph glyph-name="Scircumflex" unicode="&#x15c;" horiz-adv-x="464" 
d="M52 20l-12 112q78 -64 172 -64q48 0 80 25t32 71q0 30 -15.5 53.5t-29.5 33t-43 25.5l-64 36q-65 36 -92.5 74t-27.5 94q0 81 58 128.5t154 47.5q91 0 140 -36v-104q-24 24 -64 42t-80 18q-49 0 -80.5 -21.5t-31.5 -66.5q0 -36 21 -57.5t67 -46.5l72 -40
q55 -30 85.5 -67.5t30.5 -100.5q0 -88 -58.5 -138t-153.5 -50q-90 0 -160 32zM240 772l-120 -68l-28 40l148 108l148 -108l-28 -40z" />
    <glyph glyph-name="scircumflex" unicode="&#x15d;" horiz-adv-x="388" 
d="M28 28l32 68q67 -40 128 -40q80 0 80 60q0 42 -64 68l-68 28q-96 40 -96 124q0 63 47 97.5t117 34.5q80 0 144 -32l-28 -72q-65 36 -116 36q-31 0 -53.5 -14t-22.5 -42q0 -39 52 -60l68 -28q53 -22 80.5 -49.5t27.5 -82.5q0 -65 -45.5 -100.5t-122.5 -35.5q-93 0 -160 40
zM196 616l-120 -96l-36 32l156 144l156 -144l-36 -32z" />
    <glyph glyph-name="Scedilla" unicode="&#x15e;" horiz-adv-x="464" 
d="M234 -48q52 -13 74 -34t22 -54q0 -42 -29.5 -67t-82.5 -25q-56 0 -96 28l22 44q37 -20 74 -20q22 0 35 10.5t13 25.5q0 20 -18 31t-74 25l27 72q-87 3 -149 32l-12 112q78 -64 172 -64q48 0 80 25t32 71q0 30 -15.5 53.5t-29.5 33t-43 25.5l-64 36q-65 36 -92.5 74
t-27.5 94q0 81 58 128.5t154 47.5q91 0 140 -36v-104q-24 24 -64 42t-80 18q-49 0 -80.5 -21.5t-31.5 -66.5q0 -36 21 -57.5t67 -46.5l72 -40q55 -30 85.5 -67.5t30.5 -100.5q0 -81 -49.5 -129.5t-131.5 -56.5z" />
    <glyph glyph-name="scedilla" unicode="&#x15f;" horiz-adv-x="388" 
d="M202 -48q52 -13 74 -34t22 -54q0 -42 -29.5 -67t-82.5 -25q-56 0 -96 28l22 44q37 -20 74 -20q22 0 35 10.5t13 25.5q0 20 -18 31t-74 25l27 73q-85 5 -141 39l32 68q67 -40 128 -40q80 0 80 60q0 42 -64 68l-68 28q-96 40 -96 124q0 63 47 97.5t117 34.5q80 0 144 -32
l-28 -72q-65 36 -116 36q-31 0 -53.5 -14t-22.5 -42q0 -39 52 -60l68 -28q53 -22 80.5 -49.5t27.5 -82.5q0 -60 -39 -95t-106 -40z" />
    <glyph glyph-name="Scaron" unicode="&#x160;" horiz-adv-x="464" 
d="M52 20l-12 112q78 -64 172 -64q48 0 80 25t32 71q0 30 -15.5 53.5t-29.5 33t-43 25.5l-64 36q-65 36 -92.5 74t-27.5 94q0 81 58 128.5t154 47.5q91 0 140 -36v-104q-24 24 -64 42t-80 18q-49 0 -80.5 -21.5t-31.5 -66.5q0 -36 21 -57.5t67 -46.5l72 -40
q55 -30 85.5 -67.5t30.5 -100.5q0 -88 -58.5 -138t-153.5 -50q-90 0 -160 32zM120 852l120 -68l120 68l28 -40l-148 -108l-148 108z" />
    <glyph glyph-name="scaron" unicode="&#x161;" horiz-adv-x="388" 
d="M28 28l32 68q67 -40 128 -40q80 0 80 60q0 42 -64 68l-68 28q-96 40 -96 124q0 63 47 97.5t117 34.5q80 0 144 -32l-28 -72q-65 36 -116 36q-31 0 -53.5 -14t-22.5 -42q0 -39 52 -60l68 -28q53 -22 80.5 -49.5t27.5 -82.5q0 -65 -45.5 -100.5t-122.5 -35.5q-93 0 -160 40
zM196 516l-156 144l36 32l120 -96l120 96l36 -32z" />
    <glyph glyph-name="Tcommaaccent" unicode="&#x162;" 
d="M262 -48q52 -13 74 -34t22 -54q0 -42 -29.5 -67t-82.5 -25q-56 0 -96 28l22 44q37 -20 74 -20q22 0 35 10.5t13 25.5q0 20 -18 31t-74 25l32 84h-30v568h-192v76h492l-32 -76h-172v-568h-26z" />
    <glyph glyph-name="tcommaaccent" unicode="&#x163;" horiz-adv-x="308" 
d="M194 -48q52 -13 74 -34t22 -54q0 -42 -29.5 -67t-82.5 -25q-56 0 -96 28l22 44q37 -20 74 -20q22 0 35 10.5t13 25.5q0 20 -18 31t-74 25l29 76q-83 16 -83 132v264h-80l20 68h60v96l96 32l-8 -128h128l-20 -68h-108v-252q0 -44 13 -62t43 -18q43 0 76 20l-20 -72
q-42 -15 -77 -16z" />
    <glyph glyph-name="Tcaron" unicode="&#x164;" 
d="M12 568v76h492l-32 -76h-172v-568h-96v568h-192zM132 852l120 -68l120 68l28 -40l-148 -108l-148 108z" />
    <glyph glyph-name="tcaron" unicode="&#x165;" horiz-adv-x="308" 
d="M0 388l20 68h60v96l96 32l-8 -128h128l-20 -68h-108v-252q0 -44 13 -62t43 -18q43 0 76 20l-20 -72q-40 -16 -80 -16q-61 0 -90.5 32.5t-29.5 103.5v264h-80zM215 506v195l77 -2l-29 -196z" />
    <glyph glyph-name="Tbar" unicode="&#x166;" 
d="M12 568v76h492l-32 -76h-172v-204h124l-8 -68h-116v-296h-96v296h-116l8 68h108v204h-192z" />
    <glyph glyph-name="tbar" unicode="&#x167;" horiz-adv-x="308" 
d="M0 388l20 68h60v96l96 32l-8 -128h128l-20 -68h-108v-124h100l-8 -60h-92v-68q0 -44 13 -62t43 -18q43 0 76 20l-20 -72q-40 -16 -80 -16q-61 0 -90.5 32.5t-29.5 103.5v80h-72l8 60h64v124h-80z" />
    <glyph glyph-name="Utilde" unicode="&#x168;" horiz-adv-x="648" 
d="M80 244v400h96v-392q0 -84 39 -134t113 -50q75 0 117.5 45.5t42.5 126.5v404h80v-408q0 -109 -66.5 -178.5t-173.5 -69.5q-116 0 -182 67t-66 189zM208 716l-36 28l60 80h24q30 0 80 -20t68 -20t36 24l12 16l36 -28l-60 -80h-24q-30 0 -80 20t-68 20t-36 -24z" />
    <glyph glyph-name="utilde" unicode="&#x169;" horiz-adv-x="528" 
d="M360 -12v60q-66 -60 -144 -60q-64 0 -102 33.5t-38 102.5v320l88 24v-304q0 -57 19.5 -82.5t64.5 -25.5q57 0 112 48v340l88 24v-456zM426 640l-76 -100h-24q-24 0 -68 28t-56 28q-18 0 -36 -24l-28 -36l-36 28l76 100h24q24 0 68 -28t56 -28q18 0 36 24l28 36z" />
    <glyph glyph-name="Umacron" unicode="&#x16a;" horiz-adv-x="648" 
d="M80 244v400h96v-392q0 -84 39 -134t113 -50q75 0 117.5 45.5t42.5 126.5v404h80v-408q0 -109 -66.5 -178.5t-173.5 -69.5q-116 0 -182 67t-66 189zM460 716h-252v64h252v-64z" />
    <glyph glyph-name="umacron" unicode="&#x16b;" horiz-adv-x="528" 
d="M360 -12v60q-66 -60 -144 -60q-64 0 -102 33.5t-38 102.5v320l88 24v-304q0 -57 19.5 -82.5t64.5 -25.5q57 0 112 48v340l88 24v-456zM390 568h-252v64h252v-64z" />
    <glyph glyph-name="Ubreve" unicode="&#x16c;" horiz-adv-x="648" 
d="M80 244v400h96v-392q0 -84 39 -134t113 -50q75 0 117.5 45.5t42.5 126.5v404h80v-408q0 -109 -66.5 -178.5t-173.5 -69.5q-116 0 -182 67t-66 189zM332 772q33 0 58.5 11t61.5 41l24 -20q-29 -52 -63 -74t-81 -22t-81 22t-63 74l24 20q36 -30 61.5 -41t58.5 -11z" />
    <glyph glyph-name="ubreve" unicode="&#x16d;" horiz-adv-x="528" 
d="M360 -12v60q-66 -60 -144 -60q-64 0 -102 33.5t-38 102.5v320l88 24v-304q0 -57 19.5 -82.5t64.5 -25.5q57 0 112 48v340l88 24v-456zM266 600q34 0 59.5 13.5t60.5 54.5l28 -20q-33 -62 -67.5 -87t-80.5 -25t-80.5 26t-67.5 88l28 20q35 -41 60.5 -55.5t59.5 -14.5z" />
    <glyph glyph-name="Uring" unicode="&#x16e;" horiz-adv-x="648" 
d="M80 244v400h96v-392q0 -84 39 -134t113 -50q75 0 117.5 45.5t42.5 126.5v404h80v-408q0 -109 -66.5 -178.5t-173.5 -69.5q-116 0 -182 67t-66 189zM332 744q23 0 37.5 11.5t14.5 32.5t-14.5 32.5t-37.5 11.5t-37.5 -11.5t-14.5 -32.5t14.5 -32.5t37.5 -11.5zM332 704
q-42 0 -69 24t-27 60t27 60t69 24t69 -24t27 -60t-27 -60t-69 -24z" />
    <glyph glyph-name="uring" unicode="&#x16f;" horiz-adv-x="528" 
d="M360 -12v60q-66 -60 -144 -60q-64 0 -102 33.5t-38 102.5v320l88 24v-304q0 -57 19.5 -82.5t64.5 -25.5q57 0 112 48v340l88 24v-456zM264 568q23 0 37.5 14t14.5 38t-14.5 38t-37.5 14t-37.5 -14t-14.5 -38t14.5 -38t37.5 -14zM264 528q-42 0 -69 26.5t-27 65.5t27 65.5
t69 26.5t69 -26.5t27 -65.5t-27 -65.5t-69 -26.5z" />
    <glyph glyph-name="Uhungarumlaut" unicode="&#x170;" horiz-adv-x="648" 
d="M80 244v400h96v-392q0 -84 39 -134t113 -50q75 0 117.5 45.5t42.5 126.5v404h80v-408q0 -109 -66.5 -178.5t-173.5 -69.5q-116 0 -182 67t-66 189zM222 697l-35 38l148 156l56 -60zM386 697l-35 38l148 156l56 -60z" />
    <glyph glyph-name="uhungarumlaut" unicode="&#x171;" horiz-adv-x="528" 
d="M360 -12v60q-66 -60 -144 -60q-64 0 -102 33.5t-38 102.5v320l88 24v-304q0 -57 19.5 -82.5t64.5 -25.5q57 0 112 48v340l88 24v-456zM142 536l108 156l60 -44l-132 -140zM310 536l108 156l60 -44l-132 -140z" />
    <glyph glyph-name="Uogonek" unicode="&#x172;" horiz-adv-x="648" 
d="M80 244v400h96v-392q0 -84 39 -134t113 -50q75 0 117.5 45.5t42.5 126.5v404h80v-408q0 -109 -80 -191q-71 -72 -92 -106.5t-21 -62.5q0 -22 12.5 -35t35.5 -13q26 0 76 32l24 -44q-51 -44 -104 -44q-52 0 -82 24t-30 68q0 31 16.5 57.5t61.5 72.5q-27 -6 -57 -6
q-116 0 -182 67t-66 189z" />
    <glyph glyph-name="uogonek" unicode="&#x173;" horiz-adv-x="528" 
d="M246 -136q0 65 114 142v42q-66 -60 -144 -60q-64 0 -102 33.5t-38 102.5v320l88 24v-304q0 -57 19.5 -82.5t64.5 -25.5q57 0 112 48v340l88 24v-456q-134 -75 -134 -136q0 -48 42 -48q24 0 72 32l24 -44q-49 -44 -100 -44q-49 0 -77.5 24t-28.5 68z" />
    <glyph glyph-name="Wcircumflex" unicode="&#x174;" horiz-adv-x="840" 
d="M540 -12l-117 392l-143 -376l-80 -16l-192 656h100l144 -520l136 371l-44 149h96l148 -520l156 520h88l-212 -640zM420 772l-120 -68l-28 40l148 108l148 -108l-28 -40z" />
    <glyph glyph-name="wcircumflex" unicode="&#x175;" horiz-adv-x="672" 
d="M412 -12l-76 245l-96 -221l-76 -24l-156 468h92l116 -356l93 223l-41 133h92l104 -356l120 356h80l-164 -444zM336 616l-120 -96l-36 32l156 144l156 -144l-36 -32z" />
    <glyph glyph-name="Ycircumflex" unicode="&#x176;" horiz-adv-x="524" 
d="M212 0v268l-204 376h104l154 -283l158 283h92l-208 -366v-278h-96zM268 772l-120 -68l-28 40l148 108l148 -108l-28 -40z" />
    <glyph glyph-name="ycircumflex" unicode="&#x177;" horiz-adv-x="420" 
d="M24 -228l-40 88h52q98 0 132 112l3 10l-163 474h92l115 -343l117 343h80l-180 -484q-16 -44 -30 -72t-38 -61t-59 -50t-81 -17zM216 616l-120 -96l-36 32l156 144l156 -144l-36 -32z" />
    <glyph glyph-name="Ydieresis" unicode="&#x178;" horiz-adv-x="524" 
d="M212 0v268l-204 376h104l154 -283l158 283h92l-208 -366v-278h-96zM168 708q-21 0 -34.5 16t-13.5 40t13.5 40t34.5 16t34.5 -16t13.5 -40t-13.5 -40t-34.5 -16zM368 708q-21 0 -34.5 16t-13.5 40t13.5 40t34.5 16t34.5 -16t13.5 -40t-13.5 -40t-34.5 -16z" />
    <glyph glyph-name="Zacute" unicode="&#x179;" horiz-adv-x="520" 
d="M20 0l328 568h-312v76h460l-328 -568h344l-32 -76h-460zM194 697l-35 38l148 156l56 -60z" />
    <glyph glyph-name="zacute" unicode="&#x17a;" horiz-adv-x="404" 
d="M24 0v32l232 352h-228l20 72h328v-36l-232 -348h240l-24 -72h-336zM142 536l108 156l60 -44l-132 -140z" />
    <glyph glyph-name="Zdotaccent" unicode="&#x17b;" horiz-adv-x="520" 
d="M20 0l328 568h-312v76h460l-328 -568h344l-32 -76h-460zM260 708q-21 0 -34.5 16t-13.5 40t13.5 40t34.5 16t34.5 -16t13.5 -40t-13.5 -40t-34.5 -16z" />
    <glyph glyph-name="zdotaccent" unicode="&#x17c;" horiz-adv-x="404" 
d="M24 0v32l232 352h-228l20 72h328v-36l-232 -348h240l-24 -72h-336zM204 588q-26 0 -41 15.5t-15 40.5t15 40.5t41 15.5t41 -15.5t15 -40.5t-15 -40.5t-41 -15.5z" />
    <glyph glyph-name="Zcaron" unicode="&#x17d;" horiz-adv-x="520" 
d="M20 0l328 568h-312v76h460l-328 -568h344l-32 -76h-460zM140 852l120 -68l120 68l28 -40l-148 -108l-148 108z" />
    <glyph glyph-name="zcaron" unicode="&#x17e;" horiz-adv-x="404" 
d="M24 0v32l232 352h-228l20 72h328v-36l-232 -348h240l-24 -72h-336zM204 516l-156 144l36 32l120 -96l120 96l36 -32z" />
    <glyph glyph-name="longs" unicode="&#x17f;" horiz-adv-x="248" 
d="M80 0v492q0 103 53 161.5t151 58.5q68 0 116 -24l-32 -68l-88 36h-16q-41 0 -68.5 -37t-27.5 -103v-516h-88z" />
    <glyph glyph-name="uni018F" unicode="&#x18f;" horiz-adv-x="688" 
d="M52 304h487q0 3 0.5 9.5t0.5 10.5q0 112 -58.5 182t-169.5 70q-56 0 -109 -18t-87 -46v88q83 56 204 56q145 0 234.5 -90t89.5 -242q0 -148 -84 -242t-220 -94q-127 0 -207.5 84.5t-80.5 231.5zM344 68q75 0 122 42.5t64 117.5h-371q15 -76 62.5 -118t122.5 -42z" />
    <glyph glyph-name="florin" unicode="&#x192;" horiz-adv-x="468" 
d="M44 312l28 68h85l3 44q15 232 212 232q74 0 128 -28l-40 -68l-96 40h-16q-37 0 -64 -40.5t-32 -127.5l-3 -52h151l-32 -68h-123l-17 -328q-5 -96 -62 -154t-150 -58q-71 0 -140 40l44 76l100 -60h16q43 0 69.5 37.5t30.5 110.5l18 336h-110z" />
    <glyph glyph-name="Aringacute" unicode="&#x1fa;" horiz-adv-x="552" 
d="M440 0l-56 152h-235l-53 -152h-88l215 596l-19 48h104l236 -644h-104zM264 480l-90 -256h184zM264 707q23 0 37.5 11.5t14.5 32.5t-14.5 32.5t-37.5 11.5t-37.5 -11.5t-14.5 -32.5t14.5 -32.5t37.5 -11.5zM264 667q-42 0 -69 24t-27 60t27 60t69 24t69 -24t27 -60
t-27 -60t-69 -24zM206 838l-35 38l148 156l56 -60z" />
    <glyph glyph-name="aringacute" unicode="&#x1fb;" horiz-adv-x="468" 
d="M436 0q-27 -12 -64 -12q-57 0 -73 55q-55 -55 -131 -55q-58 0 -91 29.5t-33 82.5q0 94 136 132l116 32v68q0 37 -14 54.5t-46 17.5q-34 0 -92 -52l-44 -40l-52 60q109 96 220 96q59 0 88 -28t28 -80l-4 -252q-1 -35 10.5 -44t57.5 -12zM200 52q48 0 96 32v126l-84 -26
q-38 -12 -59 -28.5t-21 -47.5q0 -56 68 -56zM248 534q23 0 37.5 14t14.5 38t-14.5 38t-37.5 14t-37.5 -14t-14.5 -38t14.5 -38t37.5 -14zM248 494q-42 0 -69 26.5t-27 65.5t27 65.5t69 26.5t69 -26.5t27 -65.5t-27 -65.5t-69 -26.5zM189 684l-35 38l148 156l56 -60z" />
    <glyph glyph-name="AEacute" unicode="&#x1fc;" horiz-adv-x="748" 
d="M344 0v172h-174l-90 -172h-88l352 644h352l-32 -76h-224v-204h212l-32 -76h-180v-212h268l-32 -76h-332zM208 244h136v258zM430 697l-35 38l148 156l56 -60z" />
    <glyph glyph-name="aeacute" unicode="&#x1fd;" horiz-adv-x="714" 
d="M168 -12q-58 0 -91 29.5t-33 82.5q0 54 37 84t99 48l108 32v68q0 37 -14 54.5t-46 17.5q-13 0 -27.5 -7.5t-24 -15.5t-32.5 -29l-44 -40l-52 60q109 96 212 96q83 0 105 -60q63 60 142 60q77 0 120 -38.5t43 -109.5q0 -31 -8 -76l-286 -12v-16q0 -71 36.5 -113.5
t103.5 -42.5q76 0 140 32l-24 -80q-48 -24 -128 -24q-117 0 -171 77q-27 -27 -44 -40.5t-48.5 -25t-72.5 -11.5zM204 52q58 0 110 44q-23 49 -26 114l-80 -26q-76 -25 -76 -76q0 -56 72 -56zM500 404q-93 0 -120 -116l200 8q4 15 4 36q0 30 -24 51t-60 21zM282 536l108 156
l60 -44l-132 -140z" />
    <glyph glyph-name="Oslashacute" unicode="&#x1fe;" horiz-adv-x="712" 
d="M448 712l-11 -65q106 -25 168.5 -110.5t62.5 -212.5q0 -147 -87 -241.5t-225 -94.5q-5 0 -14.5 0.5t-13.5 0.5l-16 -97l-40 16l14 87q-111 22 -176.5 110t-65.5 219q0 147 87 239.5t225 92.5q13 0 39 -2l13 74zM148 324q0 -97 39.5 -163.5t112.5 -85.5l82 499
q-16 2 -26 2q-100 0 -154 -69t-54 -183zM356 68q99 0 153.5 70.5t54.5 185.5q0 92 -36 156t-104 86l-83 -498h15zM290 697l-35 38l148 156l56 -60z" />
    <glyph glyph-name="oslashacute" unicode="&#x1ff;" horiz-adv-x="524" 
d="M176 -84l16 78q-71 16 -109.5 73t-38.5 153q0 114 62 181t170 67h13l19 92l40 -16l-17 -82q71 -16 110 -73.5t39 -152.5q0 -114 -62 -181t-170 -67h-14l-18 -88zM260 52q57 0 92.5 48t35.5 128q0 134 -71 166l-70 -342h13zM136 232q0 -136 70 -169l70 340q-4 1 -12 1
q-58 0 -93 -46t-35 -126zM200 536l108 156l60 -44l-132 -140z" />
    <glyph glyph-name="Scommaaccent" unicode="&#x218;" horiz-adv-x="464" 
d="M52 20l-12 112q78 -64 172 -64q48 0 80 25t32 71q0 30 -15.5 53.5t-29.5 33t-43 25.5l-64 36q-65 36 -92.5 74t-27.5 94q0 81 58 128.5t154 47.5q91 0 140 -36v-104q-24 24 -64 42t-80 18q-49 0 -80.5 -21.5t-31.5 -66.5q0 -36 21 -57.5t67 -46.5l72 -40
q55 -30 85.5 -67.5t30.5 -100.5q0 -88 -58.5 -138t-153.5 -50q-90 0 -160 32zM214 -40q26 0 41 -18.5t15 -49.5q0 -72 -80 -132l-28 24q48 44 48 80q-48 5 -48 48q0 22 14.5 35t37.5 13z" />
    <glyph glyph-name="scommaaccent" unicode="&#x219;" horiz-adv-x="388" 
d="M28 28l32 68q67 -40 128 -40q80 0 80 60q0 42 -64 68l-68 28q-96 40 -96 124q0 63 47 97.5t117 34.5q80 0 144 -32l-28 -72q-65 36 -116 36q-31 0 -53.5 -14t-22.5 -42q0 -39 52 -60l68 -28q53 -22 80.5 -49.5t27.5 -82.5q0 -65 -45.5 -100.5t-122.5 -35.5q-93 0 -160 40
zM182 -40q26 0 41 -18.5t15 -49.5q0 -72 -80 -132l-28 24q48 44 48 80q-48 5 -48 48q0 22 14.5 35t37.5 13z" />
    <glyph glyph-name="uni021A" unicode="&#x21a;" 
d="M12 568v76h492l-32 -76h-172v-568h-96v568h-192zM246 -40q26 0 41 -18.5t15 -49.5q0 -72 -80 -132l-28 24q48 44 48 80q-48 5 -48 48q0 22 14.5 35t37.5 13z" />
    <glyph glyph-name="uni021B" unicode="&#x21b;" horiz-adv-x="308" 
d="M0 388l20 68h60v96l96 32l-8 -128h128l-20 -68h-108v-252q0 -44 13 -62t43 -18q43 0 76 20l-20 -72q-40 -16 -80 -16q-61 0 -90.5 32.5t-29.5 103.5v264h-80zM174 -40q26 0 41 -18.5t15 -49.5q0 -72 -80 -132l-28 24q48 44 48 80q-48 5 -48 48q0 22 14.5 35t37.5 13z" />
    <glyph glyph-name="uni0237" unicode="&#x237;" horiz-adv-x="248" 
d="M-20 -228l-24 68q72 0 98 33t26 107v464l88 24v-488q0 -103 -48.5 -155.5t-139.5 -52.5z" />
    <glyph glyph-name="uni0259" unicode="&#x259;" horiz-adv-x="478" 
d="M48 144q0 35 8 80h290v16q0 70 -38 113t-106 43q-76 0 -140 -32l24 80q48 24 128 24q106 0 163 -65.5t57 -178.5q0 -100 -60.5 -168t-155.5 -68q-82 0 -126 39.5t-44 116.5zM218 52q97 0 124 116h-204q-4 -14 -4 -40q0 -33 24 -54.5t60 -21.5z" />
    <glyph glyph-name="uni02BB" unicode="&#x2bb;" horiz-adv-x="268" 
d="M132 520l16 -4q56 -14 56 -60q0 -30 -18.5 -49t-45.5 -19q-72 0 -72 100q0 97 92 184l40 -36q-68 -58 -68 -116z" />
    <glyph glyph-name="afii57929" unicode="&#x2bc;" horiz-adv-x="268" 
d="M108 368l-40 36q68 58 68 116l-16 4q-56 14 -56 60q0 30 18.5 49t45.5 19q72 0 72 -100q0 -97 -92 -184z" />
    <glyph glyph-name="circumflex" unicode="&#x2c6;" horiz-adv-x="524" 
d="M262 616l-120 -96l-36 32l156 144l156 -144l-36 -32z" />
    <glyph glyph-name="caron" unicode="&#x2c7;" horiz-adv-x="524" 
d="M262 516l-156 144l36 32l120 -96l120 96l36 -32z" />
    <glyph glyph-name="uni02C9" unicode="&#x2c9;" horiz-adv-x="524" 
d="M388 568h-252v64h252v-64z" />
    <glyph glyph-name="breve" unicode="&#x2d8;" horiz-adv-x="524" 
d="M264 600q34 0 59.5 13.5t60.5 54.5l28 -20q-33 -62 -67.5 -87t-80.5 -25t-80.5 26t-67.5 88l28 20q35 -41 60.5 -55.5t59.5 -14.5z" />
    <glyph glyph-name="dotaccent" unicode="&#x2d9;" horiz-adv-x="524" 
d="M262 588q-26 0 -41 15.5t-15 40.5t15 40.5t41 15.5t41 -15.5t15 -40.5t-15 -40.5t-41 -15.5z" />
    <glyph glyph-name="ring" unicode="&#x2da;" horiz-adv-x="524" 
d="M262 568q23 0 37.5 14t14.5 38t-14.5 38t-37.5 14t-37.5 -14t-14.5 -38t14.5 -38t37.5 -14zM262 528q-42 0 -69 26.5t-27 65.5t27 65.5t69 26.5t69 -26.5t27 -65.5t-27 -65.5t-69 -26.5z" />
    <glyph glyph-name="ogonek" unicode="&#x2db;" horiz-adv-x="524" 
d="M273 45l19 -45q-47 -56 -61.5 -78.5t-14.5 -45.5q0 -22 12.5 -35t35.5 -13q26 0 76 32l24 -44q-51 -44 -104 -44q-52 0 -82 24t-30 68q0 25 13 50t27 41.5t43 45.5t42 44z" />
    <glyph glyph-name="tilde" unicode="&#x2dc;" horiz-adv-x="524" 
d="M424 640l-76 -100h-24q-24 0 -68 28t-56 28q-18 0 -36 -24l-28 -36l-36 28l76 100h24q24 0 68 -28t56 -28q18 0 36 24l28 36z" />
    <glyph glyph-name="hungarumlaut" unicode="&#x2dd;" horiz-adv-x="524" 
d="M140 536l108 156l60 -44l-132 -140zM308 536l108 156l60 -44l-132 -140z" />
    <glyph glyph-name="gravecomb" unicode="&#x300;" horiz-adv-x="1" 
d="M-197 536l-36 -28l-132 140l60 44z" />
    <glyph glyph-name="acutecomb" unicode="&#x301;" horiz-adv-x="1" 
d="M-321 536l108 156l60 -44l-132 -140z" />
    <glyph glyph-name="uni0302" unicode="&#x302;" horiz-adv-x="1" 
d="M-259 616l-120 -96l-36 32l156 144l156 -144l-36 -32z" />
    <glyph glyph-name="tildecomb" unicode="&#x303;" horiz-adv-x="1" 
d="M-97 640l-76 -100h-24q-24 0 -68 28t-56 28q-18 0 -36 -24l-28 -36l-36 28l76 100h24q24 0 68 -28t56 -28q18 0 36 24l28 36z" />
    <glyph glyph-name="uni0304" unicode="&#x304;" horiz-adv-x="1" 
d="M-135 612h-252v64h252v-64z" />
    <glyph glyph-name="uni0306" unicode="&#x306;" horiz-adv-x="1" 
d="M-259 580q34 0 59.5 13.5t60.5 54.5l28 -20q-33 -62 -67.5 -87t-80.5 -25t-80.5 26t-67.5 88l28 20q35 -41 60.5 -55.5t59.5 -14.5z" />
    <glyph glyph-name="uni0307" unicode="&#x307;" horiz-adv-x="1" 
d="M-119 588q-26 0 -41 15.5t-15 40.5t15 40.5t41 15.5t41 -15.5t15 -40.5t-15 -40.5t-41 -15.5z" />
    <glyph glyph-name="uni0308" unicode="&#x308;" horiz-adv-x="1" 
d="M-343 540q-21 0 -34.5 16t-13.5 40t13.5 40t34.5 16t34.5 -16t13.5 -40t-13.5 -40t-34.5 -16zM-179 540q-21 0 -34.5 16t-13.5 40t13.5 40t34.5 16t34.5 -16t13.5 -40t-13.5 -40t-34.5 -16z" />
    <glyph glyph-name="uni030A" unicode="&#x30a;" horiz-adv-x="1" 
d="M-261 568q23 0 37.5 14t14.5 38t-14.5 38t-37.5 14t-37.5 -14t-14.5 -38t14.5 -38t37.5 -14zM-261 528q-42 0 -69 26.5t-27 65.5t27 65.5t69 26.5t69 -26.5t27 -65.5t-27 -65.5t-69 -26.5z" />
    <glyph glyph-name="uni030B" unicode="&#x30b;" horiz-adv-x="1" 
d="M-383 536l108 156l60 -44l-132 -140zM-215 536l108 156l60 -44l-132 -140z" />
    <glyph glyph-name="uni030C" unicode="&#x30c;" horiz-adv-x="1" 
d="M-199 516l-156 144l36 32l120 -96l120 96l36 -32z" />
    <glyph glyph-name="uni0312" unicode="&#x312;" horiz-adv-x="1" 
d="M-264 524q-26 0 -41 18.5t-15 49.5q0 72 80 132l28 -24q-48 -44 -48 -80q48 -5 48 -48q0 -22 -14.5 -35t-37.5 -13z" />
    <glyph glyph-name="uni0315" unicode="&#x315;" horiz-adv-x="1" 
d="M-325 506v195l77 -2l-29 -196z" />
    <glyph glyph-name="uni0326" unicode="&#x326;" horiz-adv-x="1" 
d="M-268 -40q26 0 41 -18.5t15 -49.5q0 -72 -80 -132l-28 24q48 44 48 80q-48 5 -48 48q0 22 14.5 35t37.5 13z" />
    <glyph glyph-name="uni0327" unicode="&#x327;" horiz-adv-x="1" 
d="M-247 -52q52 -13 74 -34t22 -54q0 -42 -29.5 -67t-82.5 -25q-56 0 -96 28l22 44q37 -20 74 -20q22 0 35 10.5t13 25.5q0 20 -18 31t-74 25l32 84h40z" />
    <glyph glyph-name="uni0328" unicode="&#x328;" horiz-adv-x="1" 
d="M-250 41l19 -45q-47 -56 -61.5 -78.5t-14.5 -45.5q0 -22 12.5 -35t35.5 -13q26 0 76 32l24 -44q-51 -44 -104 -44q-52 0 -82 24t-30 68q0 25 13 50t27 41.5t43 45.5t42 44z" />
    <glyph glyph-name="uni0394" unicode="&#x394;" horiz-adv-x="544" 
d="M0 0l272 656l272 -656h-544zM268 451l-152 -379h303z" />
    <glyph glyph-name="uni03A9" unicode="&#x3a9;" horiz-adv-x="688" 
d="M40 0v76h120q-53 41 -86.5 110t-33.5 142q0 147 83.5 237.5t220.5 90.5t220.5 -90.5t83.5 -237.5q0 -73 -33.5 -142t-86.5 -110h120v-76h-236v60q26 19 44.5 37t42 50t36.5 78.5t13 102.5q0 114 -52.5 181t-151.5 67t-151.5 -67t-52.5 -181q0 -56 13 -102.5t36.5 -78.5
t42 -50t44.5 -37v-60h-236z" />
    <glyph glyph-name="uni03BC" unicode="&#x3bc;" horiz-adv-x="536" 
d="M360 48q-17 -27 -46.5 -43.5t-61.5 -16.5q-55 0 -88 44v-248h-88v660l88 24v-252q0 -35 2.5 -57t11 -49t29 -40.5t53.5 -13.5q23 0 42.5 7.5t31 16.5t26.5 24v340l88 24v-360q0 -33 16 -43t64 -13l-12 -48q-32 -16 -76 -16q-27 0 -51 14t-29 46z" />
    <glyph glyph-name="pi" unicode="&#x3c0;" horiz-adv-x="528" 
d="M360 0v384h-192v-384h-88v456h368v-456h-88z" />
    <glyph glyph-name="uni0400" unicode="&#x400;" horiz-adv-x="492" 
d="M88 0v644h352l-32 -76h-224v-204h212l-32 -76h-180v-212h268l-32 -76h-332zM369 735l-35 -38l-169 134l56 60z" />
    <glyph glyph-name="afii10023" unicode="&#x401;" horiz-adv-x="492" 
d="M88 0v644h352l-32 -76h-224v-204h212l-32 -76h-180v-212h268l-32 -76h-332zM168 708q-21 0 -34.5 16t-13.5 40t13.5 40t34.5 16t34.5 -16t13.5 -40t-13.5 -40t-34.5 -16zM368 708q-21 0 -34.5 16t-13.5 40t13.5 40t34.5 16t34.5 -16t13.5 -40t-13.5 -40t-34.5 -16z" />
    <glyph glyph-name="afii10051" unicode="&#x402;" horiz-adv-x="708" 
d="M440 -196l-36 80h40q53 0 74.5 28t21.5 88v212q0 74 -21.5 105t-78.5 31q-70 0 -140 -60v-288h-96v568h-192v76h492l-32 -76h-172v-212q80 72 172 72q76 0 120 -42t44 -126v-260q0 -102 -49.5 -149t-146.5 -47z" />
    <glyph glyph-name="afii10052" unicode="&#x403;" horiz-adv-x="460" 
d="M88 0v644h348l-32 -76h-220v-568h-96zM194 697l-35 38l148 156l56 -60z" />
    <glyph glyph-name="afii10053" unicode="&#x404;" horiz-adv-x="608" 
d="M420 368v-80h-271q10 -103 73 -161.5t150 -58.5q94 0 184 52v-88q-81 -44 -184 -44q-143 0 -235.5 90.5t-92.5 241.5t92.5 243.5t235.5 92.5q103 0 184 -44v-88q-90 52 -184 52q-85 0 -147.5 -55t-74.5 -153h270z" />
    <glyph glyph-name="afii10054" unicode="&#x405;" horiz-adv-x="464" 
d="M52 20l-12 112q78 -64 172 -64q48 0 80 25t32 71q0 30 -15.5 53.5t-29.5 33t-43 25.5l-64 36q-65 36 -92.5 74t-27.5 94q0 81 58 128.5t154 47.5q91 0 140 -36v-104q-24 24 -64 42t-80 18q-49 0 -80.5 -21.5t-31.5 -66.5q0 -36 21 -57.5t67 -46.5l72 -40
q55 -30 85.5 -67.5t30.5 -100.5q0 -88 -58.5 -138t-153.5 -50q-90 0 -160 32z" />
    <glyph glyph-name="afii10055" unicode="&#x406;" horiz-adv-x="272" 
d="M88 0v644h96v-644h-96z" />
    <glyph glyph-name="afii10056" unicode="&#x407;" horiz-adv-x="272" 
d="M88 0v644h96v-644h-96zM36 708q-21 0 -34.5 16t-13.5 40t13.5 40t34.5 16t34.5 -16t13.5 -40t-13.5 -40t-34.5 -16zM236 708q-21 0 -34.5 16t-13.5 40t13.5 40t34.5 16t34.5 -16t13.5 -40t-13.5 -40t-34.5 -16z" />
    <glyph glyph-name="afii10057" unicode="&#x408;" horiz-adv-x="272" 
d="M-12 -196l-36 80h40q53 0 74.5 28t21.5 88v644h96v-644q0 -102 -49.5 -149t-146.5 -47z" />
    <glyph glyph-name="afii10058" unicode="&#x409;" horiz-adv-x="952" 
d="M912 200q0 -91 -58 -145.5t-166 -54.5h-212v568h-168q-31 -234 -64.5 -354t-77.5 -167t-118 -47l-36 76q90 0 125 97t91 471h344v-568h116q57 0 90.5 32.5t33.5 87.5q0 51 -33.5 81.5t-90.5 30.5h-60v56q34 12 72 12q101 0 156.5 -49.5t55.5 -126.5z" />
    <glyph glyph-name="afii10059" unicode="&#x40a;" horiz-adv-x="916" 
d="M876 200q0 -91 -58 -145.5t-166 -54.5h-212v296h-256v-296h-96v644h96v-272h256v272h96v-568h116q57 0 90.5 32.5t33.5 87.5q0 51 -33.5 81.5t-90.5 30.5h-60v56q34 12 72 12q101 0 156.5 -49.5t55.5 -126.5z" />
    <glyph glyph-name="afii10060" unicode="&#x40b;" horiz-adv-x="708" 
d="M12 568v76h492l-32 -76h-172v-212q80 72 172 72q76 0 120 -42t44 -126v-260h-96v212q0 74 -21.5 105t-78.5 31q-70 0 -140 -60v-288h-96v568h-192z" />
    <glyph glyph-name="afii10061" unicode="&#x40c;" horiz-adv-x="588" 
d="M88 0v644h96v-644h-96zM576 0h-116q-51 49 -131 162t-129 162l260 320h108l-264 -312q44 -42 130 -160t142 -172zM262 697l-35 38l148 156l56 -60z" />
    <glyph glyph-name="uni040D" unicode="&#x40d;" horiz-adv-x="676" 
d="M184 644v-487l312 487h92v-644h-96v486l-312 -486h-92v644h96zM441 735l-35 -38l-169 134l56 60z" />
    <glyph glyph-name="afii10062" unicode="&#x40e;" horiz-adv-x="536" 
d="M152 0l78 176l-222 468h104l165 -361l159 361h92l-288 -644h-88zM280 772q33 0 58.5 11t61.5 41l24 -20q-29 -52 -63 -74t-81 -22t-81 22t-63 74l24 20q36 -30 61.5 -41t58.5 -11z" />
    <glyph glyph-name="afii10145" unicode="&#x40f;" horiz-adv-x="660" 
d="M88 0v644h96v-568h292v568h96v-644h-205l-9 -168h-56l-10 168h-204z" />
    <glyph glyph-name="afii10017" unicode="&#x410;" horiz-adv-x="552" 
d="M440 0l-56 152h-235l-53 -152h-88l215 596l-19 48h104l236 -644h-104zM264 480l-90 -256h184z" />
    <glyph glyph-name="afii10018" unicode="&#x411;" horiz-adv-x="568" 
d="M524 200q0 -91 -58 -145.5t-166 -54.5h-212v644h396l-32 -76h-268v-492h116q57 0 90.5 32.5t33.5 87.5q0 51 -33.5 81.5t-90.5 30.5h-60v56q35 12 72 12q101 0 156.5 -49.5t55.5 -126.5z" />
    <glyph glyph-name="afii10019" unicode="&#x412;" horiz-adv-x="556" 
d="M88 16v620q88 20 180 20q105 0 162.5 -42.5t57.5 -113.5q0 -97 -97 -157q57 -16 89 -58t32 -97q0 -91 -63.5 -145.5t-176.5 -54.5q-100 0 -184 28zM264 288h-80v-208q36 -16 88 -16q64 0 102 30t38 86q0 108 -148 108zM248 584h-64v-224h143q61 53 61 124q0 100 -140 100
z" />
    <glyph glyph-name="afii10020" unicode="&#x413;" horiz-adv-x="460" 
d="M88 0v644h348l-32 -76h-220v-568h-96z" />
    <glyph glyph-name="afii10021" unicode="&#x414;" horiz-adv-x="672" 
d="M632 -168h-56v168h-480v-168h-52l-32 244h9q78 0 108.5 95.5t87.5 454.5q1 4 1 6t1 5.5t1 6.5h356v-568h84zM300 568q-28 -204 -55.5 -319.5t-64.5 -172.5h300v492h-180z" />
    <glyph glyph-name="afii10022" unicode="&#x415;" horiz-adv-x="492" 
d="M88 0v644h352l-32 -76h-224v-204h212l-32 -76h-180v-212h268l-32 -76h-332z" />
    <glyph glyph-name="afii10024" unicode="&#x416;" horiz-adv-x="852" 
d="M376 0v644h96v-644h-96zM840 0h-116q-42 46 -114 159t-122 165l240 320h104l-240 -308q45 -45 123 -165t125 -171zM124 0h-112q47 51 123 169t121 163l-224 312h108l220 -320q-50 -52 -122 -165t-114 -159z" />
    <glyph glyph-name="afii10025" unicode="&#x417;" horiz-adv-x="496" 
d="M64 544l20 84q71 28 140 28q85 0 144.5 -42.5t59.5 -121.5q0 -101 -91 -151q115 -38 115 -157q0 -94 -73 -145t-195 -51q-64 0 -148 20v56h152q74 0 117 29.5t43 86.5q0 54 -37 85t-101 31h-110l20 72h96q54 0 83 31.5t29 76.5q0 49 -32 76.5t-88 27.5q-64 0 -144 -36z
" />
    <glyph glyph-name="afii10026" unicode="&#x418;" horiz-adv-x="676" 
d="M184 644v-487l312 487h92v-644h-96v486l-312 -486h-92v644h96z" />
    <glyph glyph-name="afii10027" unicode="&#x419;" horiz-adv-x="676" 
d="M184 644v-487l312 487h92v-644h-96v486l-312 -486h-92v644h96zM340 772q33 0 58.5 11t61.5 41l24 -20q-29 -52 -63 -74t-81 -22t-81 22t-63 74l24 20q36 -30 61.5 -41t58.5 -11z" />
    <glyph glyph-name="afii10028" unicode="&#x41a;" horiz-adv-x="588" 
d="M88 0v644h96v-644h-96zM576 0h-116q-51 49 -131 162t-129 162l260 320h108l-264 -312q44 -42 130 -160t142 -172z" />
    <glyph glyph-name="afii10029" unicode="&#x41b;" horiz-adv-x="672" 
d="M308 568q-31 -234 -64.5 -354t-77.5 -167t-118 -47l-36 76q90 0 125 97t91 471h356v-644h-96v568h-180z" />
    <glyph glyph-name="afii10030" unicode="&#x41c;" horiz-adv-x="784" 
d="M392 204l-208 272v-476h-96v644h76l230 -307l230 307h72v-644h-96v476z" />
    <glyph glyph-name="afii10031" unicode="&#x41d;" horiz-adv-x="672" 
d="M488 0v296h-304v-296h-96v644h96v-272h304v272h96v-644h-96z" />
    <glyph glyph-name="afii10032" unicode="&#x41e;" horiz-adv-x="712" 
d="M356 68q99 0 153.5 70.5t54.5 185.5q0 114 -54 183t-154 69t-154 -69t-54 -183q0 -115 54.5 -185.5t153.5 -70.5zM356 656q139 0 225.5 -90t86.5 -242q0 -147 -87 -241.5t-225 -94.5q-139 0 -225.5 92t-86.5 244q0 147 87 239.5t225 92.5z" />
    <glyph glyph-name="afii10033" unicode="&#x41f;" horiz-adv-x="664" 
d="M480 0v568h-296v-568h-96v644h488v-644h-96z" />
    <glyph glyph-name="afii10034" unicode="&#x420;" horiz-adv-x="536" 
d="M88 0v636q73 20 168 20q114 0 181 -54t67 -154q0 -98 -53.5 -157t-150.5 -59q-33 0 -60 8v44h16q72 0 110 40t38 120q0 39 -15.5 67.5t-43 44t-58.5 22t-67 6.5h-36v-584h-96z" />
    <glyph glyph-name="afii10035" unicode="&#x421;" horiz-adv-x="624" 
d="M572 132v-88q-32 -23 -87 -39.5t-109 -16.5q-153 0 -242.5 89.5t-89.5 242.5q0 147 92.5 241.5t239.5 94.5q63 0 115 -17t81 -39v-92q-97 68 -196 68q-101 0 -164.5 -66.5t-63.5 -181.5t63 -187.5t165 -72.5q118 0 196 64z" />
    <glyph glyph-name="afii10036" unicode="&#x422;" 
d="M12 568v76h492l-32 -76h-172v-568h-96v568h-192z" />
    <glyph glyph-name="afii10037" unicode="&#x423;" horiz-adv-x="536" 
d="M152 0l78 176l-222 468h104l165 -361l159 361h92l-288 -644h-88z" />
    <glyph glyph-name="afii10038" unicode="&#x424;" horiz-adv-x="764" 
d="M336 0v75q-148 13 -226 78.5t-78 174.5q0 106 77 169t227 76v71h92v-71q149 -13 226.5 -76t77.5 -169q0 -109 -78 -174.5t-226 -78.5v-75h-92zM632 328q0 149 -204 172v-352q204 27 204 180zM132 328q0 -75 49 -120t155 -60v352q-204 -23 -204 -172z" />
    <glyph glyph-name="afii10039" unicode="&#x425;" horiz-adv-x="552" 
d="M432 0l-164 255l-164 -255h-92l213 323l-205 321h108l152 -238l152 238h92l-201 -305l217 -339h-108z" />
    <glyph glyph-name="afii10040" unicode="&#x426;" horiz-adv-x="668" 
d="M88 0v644h96v-568h292v568h96v-568h84l-28 -244h-56v168h-484z" />
    <glyph glyph-name="afii10041" unicode="&#x427;" horiz-adv-x="608" 
d="M424 0v280q-80 -72 -180 -72q-80 0 -126 42t-46 126v268h96v-220q0 -73 24 -104.5t84 -31.5q78 0 148 60v296h96v-644h-96z" />
    <glyph glyph-name="afii10042" unicode="&#x428;" horiz-adv-x="944" 
d="M88 0v644h96v-568h240v568h96v-568h240v568h96v-644h-768z" />
    <glyph glyph-name="afii10043" unicode="&#x429;" horiz-adv-x="952" 
d="M88 0v644h96v-568h240v568h96v-568h240v568h96v-568h84l-28 -244h-56v168h-768z" />
    <glyph glyph-name="afii10044" unicode="&#x42a;" horiz-adv-x="608" 
d="M0 568v76h228v-568h116q57 0 90.5 32.5t33.5 87.5q0 51 -33.5 81.5t-90.5 30.5h-60v56q35 12 72 12q101 0 156.5 -49.5t55.5 -126.5q0 -91 -58 -145.5t-166 -54.5h-212v568h-132z" />
    <glyph glyph-name="afii10045" unicode="&#x42b;" horiz-adv-x="784" 
d="M88 0v644h96v-568h104q57 0 90.5 32.5t33.5 87.5q0 51 -33.5 81.5t-90.5 30.5h-48v56q35 12 60 12q101 0 156.5 -49.5t55.5 -126.5q0 -91 -58 -145.5t-166 -54.5h-200zM600 0v644h96v-644h-96z" />
    <glyph glyph-name="afii10046" unicode="&#x42c;" horiz-adv-x="564" 
d="M524 200q0 -91 -58 -145.5t-166 -54.5h-212v644h96v-568h116q57 0 90.5 32.5t33.5 87.5q0 51 -33.5 81.5t-90.5 30.5h-60v56q35 12 72 12q101 0 156.5 -49.5t55.5 -126.5z" />
    <glyph glyph-name="afii10047" unicode="&#x42d;" horiz-adv-x="608" 
d="M188 288v80h269q-14 97 -76 152.5t-145 55.5q-94 0 -184 -52v88q81 44 184 44q143 0 235.5 -90.5t92.5 -241.5t-92.5 -243.5t-235.5 -92.5q-103 0 -184 44v88q90 -52 184 -52q88 0 150.5 58t71.5 162h-270z" />
    <glyph glyph-name="afii10048" unicode="&#x42e;" horiz-adv-x="908" 
d="M568 -12q-123 0 -204.5 83t-90.5 221h-89v-292h-96v644h96v-272h90q14 128 95 206t199 78q131 0 213.5 -90.5t82.5 -241.5q0 -147 -83.5 -241.5t-212.5 -94.5zM568 68q91 0 141.5 71t50.5 185t-50.5 183t-141.5 69t-141.5 -69t-50.5 -183t50.5 -185t141.5 -71z" />
    <glyph glyph-name="afii10049" unicode="&#x42f;" horiz-adv-x="588" 
d="M500 0h-96v260h-105q-34 -43 -83 -132t-80 -128h-108q35 43 91.5 140.5t94.5 139.5q-50 25 -86 70.5t-36 109.5q0 91 64 143.5t180 52.5q84 0 164 -20v-636zM192 464q0 -83 88 -132h124v252h-56q-156 0 -156 -120z" />
    <glyph glyph-name="afii10065" unicode="&#x430;" horiz-adv-x="468" 
d="M436 0q-27 -12 -64 -12q-57 0 -73 55q-55 -55 -131 -55q-58 0 -91 29.5t-33 82.5q0 94 136 132l116 32v68q0 37 -14 54.5t-46 17.5q-34 0 -92 -52l-44 -40l-52 60q109 96 220 96q59 0 88 -28t28 -80l-4 -252q-1 -35 10.5 -44t57.5 -12zM200 52q48 0 96 32v126l-84 -26
q-38 -12 -59 -28.5t-21 -47.5q0 -56 68 -56z" />
    <glyph glyph-name="afii10066" unicode="&#x431;" horiz-adv-x="520" 
d="M312 624q-88 -12 -124 -60.5t-45 -151.5q59 56 137 56q90 0 143 -61t53 -167q0 -112 -59.5 -182t-160.5 -70q-104 0 -156 77t-52 223q0 91 10.5 157.5t37.5 122t76.5 87.5t123.5 41l64 8q31 4 44 12l16 -72q-15 -8 -44 -12zM260 404q-52 0 -119 -48q-1 -25 -1 -80
q0 -224 116 -224q62 0 95 49t33 131q0 172 -124 172z" />
    <glyph glyph-name="afii10067" unicode="&#x432;" horiz-adv-x="464" 
d="M80 16v440q60 12 148 12t134 -31.5t46 -84.5q0 -70 -62 -103q78 -31 78 -109q0 -70 -52 -111t-144 -41q-42 0 -85 8t-63 20zM228 204h-60v-136q28 -12 64 -12q104 0 104 76q0 40 -27 56t-81 16zM236 404h-68v-136h116q15 9 25.5 31t10.5 45q0 60 -84 60z" />
    <glyph glyph-name="afii10068" unicode="&#x433;" horiz-adv-x="384" 
d="M80 0v456h288l-36 -72h-164v-384h-88z" />
    <glyph glyph-name="afii10069" unicode="&#x434;" horiz-adv-x="536" 
d="M500 -168h-52v168h-356v-168h-56l-24 240q38 0 59 20.5t45 104t52 259.5h280v-384h80zM244 384q-37 -241 -89 -312h205v312h-116z" />
    <glyph glyph-name="afii10070" unicode="&#x435;" horiz-adv-x="474" 
d="M422 244l-290 -12v-16q0 -70 38 -113t106 -43q76 0 140 32l-24 -80q-48 -24 -128 -24q-106 0 -163 65.5t-57 178.5q0 100 60.5 168t155.5 68q81 0 125.5 -38t44.5 -110q0 -31 -8 -76zM260 404q-97 0 -124 -116l204 8q4 15 4 36q0 30 -24 51t-60 21z" />
    <glyph glyph-name="afii10072" unicode="&#x436;" horiz-adv-x="680" 
d="M296 0v456h88v-456h-88zM400 244l160 212h100l-160 -204l168 -252h-100zM280 244l-168 -244h-100l168 248l-160 208h100z" />
    <glyph glyph-name="afii10073" unicode="&#x437;" horiz-adv-x="392" 
d="M48 372l20 72q52 24 116 24q68 0 112 -30.5t44 -89.5q0 -74 -64 -106q76 -32 76 -110q0 -67 -52.5 -105.5t-147.5 -38.5q-55 0 -112 16v48h124q50 0 77 21.5t27 58.5q0 68 -87 68h-89l16 68h72q35 0 55.5 21t20.5 51q0 32 -23.5 48t-60.5 16q-65 0 -124 -32z" />
    <glyph glyph-name="afii10074" unicode="&#x438;" horiz-adv-x="540" 
d="M372 0v308l-216 -308h-76v456h88v-308l216 308h76v-456h-88z" />
    <glyph glyph-name="afii10075" unicode="&#x439;" horiz-adv-x="540" 
d="M372 0v308l-216 -308h-76v456h88v-308l216 308h76v-456h-88zM274 600q34 0 59.5 13.5t60.5 54.5l28 -20q-33 -62 -67.5 -87t-80.5 -25t-80.5 26t-67.5 88l28 20q35 -41 60.5 -55.5t59.5 -14.5z" />
    <glyph glyph-name="afii10076" unicode="&#x43a;" horiz-adv-x="488" 
d="M80 0v456h88v-456h-88zM370 0l-186 244l184 212h100l-184 -204l192 -252h-106z" />
    <glyph glyph-name="afii10077" unicode="&#x43b;" horiz-adv-x="528" 
d="M360 0v384h-116q-25 -161 -53.5 -244t-63 -111.5t-91.5 -28.5l-24 72q38 0 59 20.5t45 104t52 259.5h280v-456h-88z" />
    <glyph glyph-name="afii10078" unicode="&#x43c;" horiz-adv-x="608" 
d="M80 456h68l158 -193l158 193h64v-456h-88v308l-136 -168l-136 168v-308h-88v456z" />
    <glyph glyph-name="afii10079" unicode="&#x43d;" horiz-adv-x="536" 
d="M368 0v196h-200v-196h-88v456h88v-188h200v188h88v-456h-88z" />
    <glyph glyph-name="afii10080" unicode="&#x43e;" horiz-adv-x="524" 
d="M248 -12q-97 0 -150.5 59.5t-53.5 172.5q0 114 62 181t170 67q97 0 150.5 -59.5t53.5 -172.5q0 -114 -62 -181t-170 -67zM260 52q57 0 92.5 48t35.5 128q0 176 -124 176q-58 0 -93 -46t-35 -126q0 -180 124 -180z" />
    <glyph glyph-name="afii10081" unicode="&#x43f;" horiz-adv-x="528" 
d="M360 0v384h-192v-384h-88v456h368v-456h-88z" />
    <glyph glyph-name="afii10082" unicode="&#x440;" horiz-adv-x="536" 
d="M80 -228v672l88 24v-60q57 60 136 60q90 0 139 -58.5t49 -169.5q0 -114 -63 -183t-165 -69q-56 0 -96 24v-216zM264 400q-48 0 -96 -32v-212q0 -51 29 -77.5t71 -26.5q58 0 95 48.5t37 131.5q0 168 -136 168z" />
    <glyph glyph-name="afii10083" unicode="&#x441;" horiz-adv-x="432" 
d="M400 100l-16 -76q-49 -36 -132 -36q-99 0 -155.5 62.5t-56.5 173.5q0 115 64.5 179.5t159.5 64.5q91 0 156 -72l-60 -68l-80 76h-16q-52 0 -92 -45.5t-40 -122.5q0 -81 35.5 -126.5t108.5 -45.5q58 0 124 36z" />
    <glyph glyph-name="afii10084" unicode="&#x442;" horiz-adv-x="368" 
d="M12 384v72h356l-36 -72h-104v-384h-88v384h-128z" />
    <glyph glyph-name="afii10085" unicode="&#x443;" horiz-adv-x="420" 
d="M24 -228l-40 88h52q98 0 132 112l3 10l-163 474h92l115 -343l117 343h80l-180 -484q-16 -44 -30 -72t-38 -61t-59 -50t-81 -17z" />
    <glyph glyph-name="afii10086" unicode="&#x444;" horiz-adv-x="748" 
d="M416 712v-303q49 59 120 59q78 0 123 -60.5t45 -167.5q0 -116 -55.5 -184t-148.5 -68q-44 0 -84 24v-216l-84 -24v275q-51 -59 -120 -59q-79 0 -123.5 61.5t-44.5 174.5q0 111 55.5 177.5t148.5 66.5q44 0 84 -24v244zM244 56q48 0 88 32v216q0 45 -24 72.5t-60 27.5
q-52 0 -82 -45.5t-30 -130.5q0 -172 108 -172zM504 400q-48 0 -88 -32v-216q0 -44 24 -72t60 -28q52 0 82 46.5t30 137.5q0 84 -29 124t-79 40z" />
    <glyph glyph-name="afii10087" unicode="&#x445;" horiz-adv-x="412" 
d="M304 0l-103 162l-105 -162h-88l155 222l-147 234h100l99 -158l101 158h88l-151 -218l151 -238h-100z" />
    <glyph glyph-name="afii10088" unicode="&#x446;" horiz-adv-x="532" 
d="M80 0v456h88v-384h188v384h88v-384h80l-28 -240h-52v168h-364z" />
    <glyph glyph-name="afii10089" unicode="&#x447;" 
d="M336 456h88v-456h-88v204q-66 -60 -140 -60q-63 0 -99.5 35t-36.5 105v172h88v-136q0 -58 18 -83t62 -25q53 0 108 48v196z" />
    <glyph glyph-name="afii10090" unicode="&#x448;" horiz-adv-x="752" 
d="M80 0v456h88v-384h164v384h88v-384h164v384h88v-456h-592z" />
    <glyph glyph-name="afii10091" unicode="&#x449;" horiz-adv-x="760" 
d="M80 0v456h88v-384h164v384h88v-384h164v384h88v-384h80l-28 -240h-52v168h-592z" />
    <glyph glyph-name="afii10092" unicode="&#x44a;" horiz-adv-x="496" 
d="M0 388v68h196v-188h96q168 0 168 -132q0 -70 -52 -109t-144 -39q-42 0 -89 8.5t-67 19.5v372h-108zM292 200h-96v-132q27 -12 72 -12q49 0 76.5 18.5t27.5 53.5q0 38 -23 55t-57 17z" />
    <glyph glyph-name="afii10093" unicode="&#x44b;" horiz-adv-x="668" 
d="M80 16v440h88v-188h84q168 0 168 -132q0 -70 -50.5 -109t-141.5 -39q-41 0 -84 8.5t-64 19.5zM588 0h-88v456h88v-456zM252 200h-84v-132q27 -12 64 -12q100 0 100 72q0 38 -23 55t-57 17z" />
    <glyph glyph-name="afii10094" unicode="&#x44c;" horiz-adv-x="468" 
d="M80 16v440h88v-188h96q168 0 168 -132q0 -70 -52 -109t-144 -39q-42 0 -89 8.5t-67 19.5zM264 200h-96v-132q27 -12 72 -12q49 0 76.5 18.5t27.5 53.5q0 38 -23 55t-57 17z" />
    <glyph glyph-name="afii10095" unicode="&#x44d;" horiz-adv-x="448" 
d="M124 196v72h185q-11 64 -51.5 96t-93.5 32q-57 0 -124 -40v80q61 32 132 32q100 0 166 -58.5t66 -177.5t-66 -181.5t-174 -62.5q-73 0 -124 24v80q61 -36 124 -36q58 0 98 36t48 104h-186z" />
    <glyph glyph-name="afii10096" unicode="&#x44e;" horiz-adv-x="700" 
d="M436 -12q-81 0 -131.5 53.5t-56.5 154.5h-80v-196h-88v456h88v-188h83q12 93 69.5 146.5t143.5 53.5q89 0 140.5 -60t51.5 -172q0 -113 -60 -180.5t-160 -67.5zM448 52q49 0 82.5 48.5t33.5 127.5q0 176 -112 176q-50 0 -83 -46.5t-33 -125.5q0 -90 29.5 -135t82.5 -45z
" />
    <glyph glyph-name="afii10097" unicode="&#x44f;" 
d="M424 452v-452h-88v168h-83l-121 -168h-92l138 186q-38 17 -66 53t-28 89q0 66 51.5 103t136.5 37q66 0 152 -16zM176 324q0 -29 15 -54t41 -38h104v172h-52q-59 0 -83.5 -20.5t-24.5 -59.5z" />
    <glyph glyph-name="uni0450" unicode="&#x450;" horiz-adv-x="474" 
d="M422 244l-290 -12v-16q0 -70 38 -113t106 -43q76 0 140 32l-24 -80q-48 -24 -128 -24q-106 0 -163 65.5t-57 178.5q0 100 60.5 168t155.5 68q81 0 125.5 -38t44.5 -110q0 -31 -8 -76zM260 404q-97 0 -124 -116l204 8q4 15 4 36q0 30 -24 51t-60 21zM314 536l-36 -28
l-132 140l60 44z" />
    <glyph glyph-name="afii10071" unicode="&#x451;" horiz-adv-x="474" 
d="M422 244l-290 -12v-16q0 -70 38 -113t106 -43q76 0 140 32l-24 -80q-48 -24 -128 -24q-106 0 -163 65.5t-57 178.5q0 100 60.5 168t155.5 68q81 0 125.5 -38t44.5 -110q0 -31 -8 -76zM260 404q-97 0 -124 -116l204 8q4 15 4 36q0 30 -24 51t-60 21zM170 540
q-21 0 -34.5 16t-13.5 40t13.5 40t34.5 16t34.5 -16t13.5 -40t-13.5 -40t-34.5 -16zM334 540q-21 0 -34.5 16t-13.5 40t13.5 40t34.5 16t34.5 -16t13.5 -40t-13.5 -40t-34.5 -16z" />
    <glyph glyph-name="afii10099" unicode="&#x452;" horiz-adv-x="532" 
d="M264 -228l-24 68q72 0 98 33t26 107v312q0 58 -18.5 83t-65.5 25q-57 0 -112 -48v-352h-88v552h-72l8 60h64v76l88 24v-100h124l-8 -60h-116v-144q66 60 144 60q65 0 102.5 -35t37.5 -105v-348q0 -103 -48.5 -155.5t-139.5 -52.5z" />
    <glyph glyph-name="afii10100" unicode="&#x453;" horiz-adv-x="384" 
d="M80 0v456h288l-36 -72h-164v-384h-88zM162 536l108 156l60 -44l-132 -140z" />
    <glyph glyph-name="afii10101" unicode="&#x454;" horiz-adv-x="448" 
d="M324 196h-187q8 -68 50 -102t97 -34q57 0 124 40v-80q-61 -32 -132 -32q-100 0 -166 58.5t-66 177.5t66 181.5t174 62.5q73 0 124 -24v-80q-61 36 -124 36q-57 0 -96.5 -34.5t-48.5 -97.5h185v-72z" />
    <glyph glyph-name="afii10102" unicode="&#x455;" horiz-adv-x="388" 
d="M28 28l32 68q67 -40 128 -40q80 0 80 60q0 42 -64 68l-68 28q-96 40 -96 124q0 63 47 97.5t117 34.5q80 0 144 -32l-28 -72q-65 36 -116 36q-31 0 -53.5 -14t-22.5 -42q0 -39 52 -60l68 -28q53 -22 80.5 -49.5t27.5 -82.5q0 -65 -45.5 -100.5t-122.5 -35.5q-93 0 -160 40
z" />
    <glyph glyph-name="afii10103" unicode="&#x456;" horiz-adv-x="248" 
d="M80 0v456h88v-456h-88zM128 588q-26 0 -41 15.5t-15 40.5t15 40.5t41 15.5t41 -15.5t15 -40.5t-15 -40.5t-41 -15.5z" />
    <glyph glyph-name="afii10104" unicode="&#x457;" horiz-adv-x="248" 
d="M80 0v456h88v-456h-88zM42 540q-21 0 -34.5 16t-13.5 40t13.5 40t34.5 16t34.5 -16t13.5 -40t-13.5 -40t-34.5 -16zM206 540q-21 0 -34.5 16t-13.5 40t13.5 40t34.5 16t34.5 -16t13.5 -40t-13.5 -40t-34.5 -16z" />
    <glyph glyph-name="afii10105" unicode="&#x458;" horiz-adv-x="248" 
d="M-20 -228l-24 68q72 0 98 33t26 107v476h88v-476q0 -103 -48.5 -155.5t-139.5 -52.5zM128 588q-26 0 -41 15.5t-15 40.5t15 40.5t41 15.5t41 -15.5t15 -40.5t-15 -40.5t-41 -15.5z" />
    <glyph glyph-name="afii10106" unicode="&#x459;" horiz-adv-x="740" 
d="M244 384q-25 -161 -53.5 -244t-63 -111.5t-91.5 -28.5l-24 72q38 0 59 20.5t45 104t52 259.5h272v-188h96q168 0 168 -132q0 -70 -52 -109t-144 -39q-42 0 -89 8.5t-67 19.5v368h-108zM536 200h-96v-132q27 -12 72 -12q49 0 76.5 18.5t27.5 53.5q0 38 -23 55t-57 17z" />
    <glyph glyph-name="afii10107" unicode="&#x45a;" horiz-adv-x="732" 
d="M432 456v-188h96q168 0 168 -132q0 -70 -52 -109t-144 -39q-42 0 -89 8.5t-67 19.5v180h-176v-196h-88v456h88v-188h176v188h88zM608 128q0 38 -23 55t-57 17h-96v-132q27 -12 72 -12q49 0 76.5 18.5t27.5 53.5z" />
    <glyph glyph-name="afii10108" unicode="&#x45b;" horiz-adv-x="532" 
d="M364 0v292q0 58 -18.5 83t-65.5 25q-57 0 -112 -48v-352h-88v552h-72l8 60h64v76l88 24v-100h124l-8 -60h-116v-144q66 60 144 60q65 0 102.5 -35t37.5 -105v-328h-88z" />
    <glyph glyph-name="afii10109" unicode="&#x45c;" horiz-adv-x="488" 
d="M80 0v456h88v-456h-88zM370 0l-186 244l184 212h100l-184 -204l192 -252h-106zM206 536l108 156l60 -44l-132 -140z" />
    <glyph glyph-name="uni045D" unicode="&#x45d;" horiz-adv-x="540" 
d="M372 0v308l-216 -308h-76v456h88v-308l216 308h76v-456h-88zM340 536l-36 -28l-132 140l60 44z" />
    <glyph glyph-name="afii10110" unicode="&#x45e;" horiz-adv-x="420" 
d="M218 600q34 0 59.5 13.5t60.5 54.5l28 -20q-33 -62 -67.5 -87t-80.5 -25t-80.5 26t-67.5 88l28 20q35 -41 60.5 -55.5t59.5 -14.5zM24 -228l-40 88h52q98 0 132 112l3 10l-163 474h92l115 -343l117 343h80l-180 -484q-16 -44 -30 -72t-38 -61t-59 -50t-81 -17z" />
    <glyph glyph-name="afii10193" unicode="&#x45f;" horiz-adv-x="524" 
d="M80 0v456h88v-384h188v384h88v-456h-146l-10 -168h-52l-10 168h-146z" />
    <glyph glyph-name="afii10146" unicode="&#x462;" horiz-adv-x="680" 
d="M12 568v76h492l-32 -76h-172v-492h72q44 0 79 10t62 40t27 78q0 62 -43 87t-125 25h-16v56q35 12 72 12q101 0 156.5 -50t55.5 -130q0 -87 -68 -145.5t-176 -58.5h-192v568h-192z" />
    <glyph glyph-name="afii10194" unicode="&#x463;" horiz-adv-x="468" 
d="M8 388l20 68h52v244h88v-244h120l-20 -68h-100v-120h96q168 0 168 -132q0 -70 -52 -109t-144 -39q-42 0 -89 8.5t-67 19.5v372h-72zM264 200h-96v-132q27 -12 72 -12q49 0 76.5 18.5t27.5 53.5q0 38 -23 55t-57 17z" />
    <glyph glyph-name="afii10147" unicode="&#x472;" horiz-adv-x="712" 
d="M356 656q139 0 225.5 -90t86.5 -242q0 -147 -87 -241.5t-225 -94.5q-139 0 -225.5 92t-86.5 244q0 147 87 239.5t225 92.5zM456 256q-44 0 -108.5 34t-91.5 34q-45 0 -106 -49q10 -95 63.5 -151t142.5 -56q95 0 149 65.5t58 172.5q-59 -50 -107 -50zM356 576
q-95 0 -149 -65.5t-59 -172.5q60 50 108 50q44 0 108.5 -34t91.5 -34q46 0 106 48q-11 96 -64 152t-142 56z" />
    <glyph glyph-name="afii10195" unicode="&#x473;" horiz-adv-x="524" 
d="M248 -12q-97 0 -150.5 59.5t-53.5 172.5q0 114 62 181t170 67q97 0 150.5 -59.5t53.5 -172.5q0 -114 -62 -181t-170 -67zM318 181q-24 0 -60.5 19t-51.5 19q-30 0 -68 -35q16 -132 122 -132q55 0 90 44.5t38 120.5q-39 -36 -70 -36zM264 404q-55 0 -90 -42.5t-38 -116.5
q41 36 70 36q24 0 60 -19t52 -19q31 0 67 33q-14 128 -121 128z" />
    <glyph glyph-name="afii10148" unicode="&#x474;" horiz-adv-x="576" 
d="M108 644l164 -520l96 288q45 135 82.5 183.5t109.5 48.5h28l-22 -76h-2q-40 0 -62.5 -38.5t-73.5 -181.5l-124 -344l-84 -16l-212 656h100z" />
    <glyph glyph-name="afii10196" unicode="&#x475;" horiz-adv-x="444" 
d="M100 456l116 -354l64 186q34 101 67 134.5t101 33.5h16l-20 -64q-35 0 -51.5 -23t-46.5 -103l-95 -255l-87 -23l-156 468h92z" />
    <glyph glyph-name="afii10050" unicode="&#x490;" horiz-adv-x="460" 
d="M436 760v-116l-32 -76h-220v-568h-96v644h264v116h84z" />
    <glyph glyph-name="afii10098" unicode="&#x491;" horiz-adv-x="384" 
d="M368 572v-116l-36 -72h-164v-384h-88v456h208v116h80z" />
    <glyph glyph-name="uni0492" unicode="&#x492;" horiz-adv-x="460" 
d="M324 356l-32 -76h-108v-280h-96v280h-88v76h88v288h348l-32 -76h-220v-212h140z" />
    <glyph glyph-name="uni0493" unicode="&#x493;" horiz-adv-x="384" 
d="M0 192v60h80v204h288l-36 -72h-164v-132h112l-32 -60h-80v-192h-88v192h-80z" />
    <glyph glyph-name="uni0496" unicode="&#x496;" horiz-adv-x="868" 
d="M828 -168h-56v168h-32q-42 46 -114 159t-122 165l240 320h104l-240 -308q30 -30 60.5 -72.5t68 -100t58.5 -87.5h61zM140 0h-112q47 51 123 169t121 163l-224 312h108l220 -320q-50 -52 -122 -165t-114 -159zM392 0v644h96v-644h-96z" />
    <glyph glyph-name="uni0497" unicode="&#x497;" horiz-adv-x="680" 
d="M568 0l-168 244l160 212h100l-160 -204l120 -180h48l-28 -240h-52v168h-20zM280 244l-168 -244h-100l168 248l-160 208h100zM296 0v456h88v-456h-88z" />
    <glyph glyph-name="uni049A" unicode="&#x49a;" horiz-adv-x="588" 
d="M548 -168h-56v168h-32q-51 49 -131 162t-129 162l260 320h108l-264 -312q41 -40 112 -136t91 -120h69zM88 0v644h96v-644h-96z" />
    <glyph glyph-name="uni049B" unicode="&#x49b;" horiz-adv-x="488" 
d="M370 0l-186 244l184 212h100l-184 -204l137 -180h55l-28 -240h-52v168h-26zM80 0v456h88v-456h-88z" />
    <glyph glyph-name="uni049C" unicode="&#x49c;" horiz-adv-x="600" 
d="M232 176v108h-48v-284h-96v644h96v-284h48v108h36v-103l200 279h104l-228 -312q49 -41 126 -163t118 -169h-116q-47 51 -110.5 150.5t-91.5 133.5h-2v-108h-36z" />
    <glyph glyph-name="uni049D" unicode="&#x49d;" horiz-adv-x="496" 
d="M204 108v96h-36v-204h-88v456h88v-180h36v92h36v-87l132 175h96l-160 -204l168 -252h-102l-134 201v-93h-36z" />
    <glyph glyph-name="uni04A2" unicode="&#x4a2;" horiz-adv-x="680" 
d="M488 0v296h-304v-296h-96v644h96v-272h304v272h96v-568h84l-28 -244h-56v168h-96z" />
    <glyph glyph-name="uni04A3" unicode="&#x4a3;" horiz-adv-x="544" 
d="M368 0v196h-200v-196h-88v456h88v-188h200v188h88v-384h80l-28 -240h-52v168h-88z" />
    <glyph glyph-name="uni04AE" unicode="&#x4ae;" horiz-adv-x="524" 
d="M212 0v268l-204 376h104l154 -283l158 283h92l-208 -366v-278h-96z" />
    <glyph glyph-name="uni04AF" unicode="&#x4af;" horiz-adv-x="424" 
d="M164 -228v216l-156 468h92l116 -356l120 356h80l-164 -443v-217z" />
    <glyph glyph-name="uni04B0" unicode="&#x4b0;" horiz-adv-x="524" 
d="M68 132v76h144v60l-204 376h104l154 -283l158 283h92l-208 -366v-70h144v-76h-144v-132h-96v132h-144z" />
    <glyph glyph-name="uni04B1" unicode="&#x4b1;" horiz-adv-x="424" 
d="M56 0l8 60h76l-132 396h92l116 -356l120 356h80l-148 -396h72l-8 -60h-84v-204l-88 -24v228h-104z" />
    <glyph glyph-name="uni04B2" unicode="&#x4b2;" horiz-adv-x="552" 
d="M432 0l-164 255l-164 -255h-92l213 323l-205 321h108l152 -238l152 238h92l-201 -305l168 -263h49l-28 -244h-56v168h-24z" />
    <glyph glyph-name="uni04B3" unicode="&#x4b3;" horiz-adv-x="412" 
d="M304 0l-103 162l-105 -162h-88l155 222l-147 234h100l99 -158l101 158h88l-151 -218l105 -166h46l-28 -240h-52v168h-20z" />
    <glyph glyph-name="uni04B6" unicode="&#x4b6;" horiz-adv-x="616" 
d="M576 -168h-56v168h-96v280q-80 -72 -180 -72q-80 0 -126 42t-46 126v268h96v-220q0 -73 24 -104.5t84 -31.5q78 0 148 60v296h96v-568h84z" />
    <glyph glyph-name="uni04B7" unicode="&#x4b7;" horiz-adv-x="512" 
d="M476 -168h-52v168h-88v204q-66 -60 -140 -60q-63 0 -99.5 35t-36.5 105v172h88v-136q0 -58 18 -83t62 -25q53 0 108 48v196h88v-384h80z" />
    <glyph glyph-name="uni04B8" unicode="&#x4b8;" horiz-adv-x="608" 
d="M324 124h-56v85q-8 -1 -24 -1q-80 0 -126 42t-46 126v268h96v-220q0 -71 22.5 -103t77.5 -33v116h56v-109q52 13 100 53v296h96v-644h-96v280q-47 -42 -100 -60v-96z" />
    <glyph glyph-name="uni04B9" unicode="&#x4b9;" 
d="M336 456h88v-456h-88v204q-35 -32 -72 -47v-89h-52v76h-16q-63 0 -99.5 35t-36.5 105v172h88v-136q0 -53 14.5 -78t49.5 -29v115h52v-110q37 12 72 42v196z" />
    <glyph glyph-name="uni04BA" unicode="&#x4ba;" horiz-adv-x="608" 
d="M184 644v-280q80 72 180 72q80 0 126 -42t46 -126v-268h-96v220q0 73 -24 104.5t-84 31.5q-78 0 -148 -60v-296h-96v644h96z" />
    <glyph glyph-name="uni04BB" unicode="&#x4bb;" horiz-adv-x="532" 
d="M372 0v292q0 58 -18.5 83t-65.5 25q-57 0 -112 -48v-352h-88v644h88v-236q66 60 144 60q65 0 102.5 -35t37.5 -105v-328h-88z" />
    <glyph glyph-name="uni04C0" unicode="&#x4c0;" horiz-adv-x="272" 
d="M88 0v644h96v-644h-96z" />
    <glyph glyph-name="uni04CF" unicode="&#x4cf;" horiz-adv-x="248" 
d="M80 0v702h88v-702h-88z" />
    <glyph glyph-name="uni04D8" unicode="&#x4d8;" horiz-adv-x="688" 
d="M52 304h487q0 3 0.5 9.5t0.5 10.5q0 112 -58.5 182t-169.5 70q-56 0 -109 -18t-87 -46v88q83 56 204 56q145 0 234.5 -90t89.5 -242q0 -148 -84 -242t-220 -94q-127 0 -207.5 84.5t-80.5 231.5zM344 68q75 0 122 42.5t64 117.5h-371q15 -76 62.5 -118t122.5 -42z" />
    <glyph glyph-name="afii10846" unicode="&#x4d9;" horiz-adv-x="478" 
d="M48 144q0 35 8 80h290v16q0 70 -38 113t-106 43q-76 0 -140 -32l24 80q48 24 128 24q106 0 163 -65.5t57 -178.5q0 -100 -60.5 -168t-155.5 -68q-82 0 -126 39.5t-44 116.5zM218 52q97 0 124 116h-204q-4 -14 -4 -40q0 -33 24 -54.5t60 -21.5z" />
    <glyph glyph-name="uni04E2" unicode="&#x4e2;" horiz-adv-x="676" 
d="M184 644v-487l312 487h92v-644h-96v486l-312 -486h-92v644h96zM468 716h-252v64h252v-64z" />
    <glyph glyph-name="uni04E3" unicode="&#x4e3;" horiz-adv-x="540" 
d="M372 0v308l-216 -308h-76v456h88v-308l216 308h76v-456h-88zM398 568h-252v64h252v-64z" />
    <glyph glyph-name="uni04E8" unicode="&#x4e8;" horiz-adv-x="712" 
d="M356 656q139 0 225.5 -90t86.5 -242q0 -147 -87 -241.5t-225 -94.5q-139 0 -225.5 92t-86.5 244q0 147 87 239.5t225 92.5zM356 68q93 0 146.5 62t60.5 166h-414q6 -104 60 -166t147 -62zM356 576q-91 0 -145 -58.5t-62 -157.5h413q-8 99 -61.5 157.5t-144.5 58.5z" />
    <glyph glyph-name="uni04E9" unicode="&#x4e9;" horiz-adv-x="524" 
d="M248 -12q-97 0 -150.5 59.5t-53.5 172.5q0 114 62 181t170 67q97 0 150.5 -59.5t53.5 -172.5q0 -114 -62 -181t-170 -67zM260 52q52 0 86 39.5t40 108.5h-249q10 -148 123 -148zM264 404q-51 0 -85.5 -37t-41.5 -103h249q-11 140 -122 140z" />
    <glyph glyph-name="uni04EE" unicode="&#x4ee;" horiz-adv-x="536" 
d="M152 0l78 176l-222 468h104l165 -361l159 361h92l-288 -644h-88zM408 716h-252v64h252v-64z" />
    <glyph glyph-name="uni04EF" unicode="&#x4ef;" horiz-adv-x="420" 
d="M24 -228l-40 88h52q98 0 132 112l3 10l-163 474h92l115 -343l117 343h80l-180 -484q-16 -44 -30 -72t-38 -61t-59 -50t-81 -17zM342 568h-252v64h252v-64z" />
    <glyph glyph-name="Wgrave" unicode="&#x1e80;" horiz-adv-x="840" 
d="M540 -12l-117 392l-143 -376l-80 -16l-192 656h100l144 -520l136 371l-44 149h96l148 -520l156 520h88l-212 -640zM521 735l-35 -38l-169 134l56 60z" />
    <glyph glyph-name="wgrave" unicode="&#x1e81;" horiz-adv-x="672" 
d="M412 -12l-76 245l-96 -221l-76 -24l-156 468h92l116 -356l93 223l-41 133h92l104 -356l120 356h80l-164 -444zM398 536l-36 -28l-132 140l60 44z" />
    <glyph glyph-name="Wacute" unicode="&#x1e82;" horiz-adv-x="840" 
d="M540 -12l-117 392l-143 -376l-80 -16l-192 656h100l144 -520l136 371l-44 149h96l148 -520l156 520h88l-212 -640zM354 697l-35 38l148 156l56 -60z" />
    <glyph glyph-name="wacute" unicode="&#x1e83;" horiz-adv-x="672" 
d="M412 -12l-76 245l-96 -221l-76 -24l-156 468h92l116 -356l93 223l-41 133h92l104 -356l120 356h80l-164 -444zM274 536l108 156l60 -44l-132 -140z" />
    <glyph glyph-name="Wdieresis" unicode="&#x1e84;" horiz-adv-x="840" 
d="M540 -12l-117 392l-143 -376l-80 -16l-192 656h100l144 -520l136 371l-44 149h96l148 -520l156 520h88l-212 -640zM320 708q-21 0 -34.5 16t-13.5 40t13.5 40t34.5 16t34.5 -16t13.5 -40t-13.5 -40t-34.5 -16zM520 708q-21 0 -34.5 16t-13.5 40t13.5 40t34.5 16t34.5 -16
t13.5 -40t-13.5 -40t-34.5 -16z" />
    <glyph glyph-name="wdieresis" unicode="&#x1e85;" horiz-adv-x="672" 
d="M412 -12l-76 245l-96 -221l-76 -24l-156 468h92l116 -356l93 223l-41 133h92l104 -356l120 356h80l-164 -444zM254 540q-21 0 -34.5 16t-13.5 40t13.5 40t34.5 16t34.5 -16t13.5 -40t-13.5 -40t-34.5 -16zM418 540q-21 0 -34.5 16t-13.5 40t13.5 40t34.5 16t34.5 -16
t13.5 -40t-13.5 -40t-34.5 -16z" />
    <glyph glyph-name="Ygrave" unicode="&#x1ef2;" horiz-adv-x="524" 
d="M212 0v268l-204 376h104l154 -283l158 283h92l-208 -366v-278h-96zM369 735l-35 -38l-169 134l56 60z" />
    <glyph glyph-name="ygrave" unicode="&#x1ef3;" horiz-adv-x="420" 
d="M24 -228l-40 88h52q98 0 132 112l3 10l-163 474h92l115 -343l117 343h80l-180 -484q-16 -44 -30 -72t-38 -61t-59 -50t-81 -17zM278 536l-36 -28l-132 140l60 44z" />
    <glyph glyph-name="uni2007" unicode="&#x2007;" horiz-adv-x="496" 
 />
    <glyph glyph-name="uni2008" unicode="&#x2008;" horiz-adv-x="264" 
 />
    <glyph glyph-name="uni200B" unicode="&#x200b;" horiz-adv-x="0" 
 />
    <glyph glyph-name="endash" unicode="&#x2013;" horiz-adv-x="496" 
d="M16 228v64h464v-64h-464z" />
    <glyph glyph-name="emdash" unicode="&#x2014;" horiz-adv-x="992" 
d="M16 228v64h960v-64h-960z" />
    <glyph glyph-name="quoteleft" unicode="&#x2018;" horiz-adv-x="268" 
d="M132 520l16 -4q56 -14 56 -60q0 -30 -18.5 -49t-45.5 -19q-72 0 -72 100q0 97 92 184l40 -36q-68 -58 -68 -116z" />
    <glyph glyph-name="quoteright" unicode="&#x2019;" horiz-adv-x="268" 
d="M108 368l-40 36q68 58 68 116l-16 4q-56 14 -56 60q0 30 18.5 49t45.5 19q72 0 72 -100q0 -97 -92 -184z" />
    <glyph glyph-name="quotesinglbase" unicode="&#x201a;" horiz-adv-x="268" 
d="M108 -168l-40 36q68 58 68 116l-16 4q-56 14 -56 60q0 30 18.5 49t45.5 19q72 0 72 -100q0 -97 -92 -184z" />
    <glyph glyph-name="quotedblleft" unicode="&#x201c;" horiz-adv-x="460" 
d="M132 520l16 -4q56 -14 56 -60q0 -30 -18.5 -49t-45.5 -19q-72 0 -72 100q0 97 92 184l40 -36q-68 -58 -68 -116zM324 520l16 -4q56 -14 56 -60q0 -30 -18.5 -49t-45.5 -19q-72 0 -72 100q0 97 92 184l40 -36q-68 -58 -68 -116z" />
    <glyph glyph-name="quotedblright" unicode="&#x201d;" horiz-adv-x="460" 
d="M108 368l-40 36q68 58 68 116l-16 4q-56 14 -56 60q0 30 18.5 49t45.5 19q72 0 72 -100q0 -97 -92 -184zM300 368l-40 36q68 58 68 116l-16 4q-56 14 -56 60q0 30 18.5 49t45.5 19q72 0 72 -100q0 -97 -92 -184z" />
    <glyph glyph-name="quotedblbase" unicode="&#x201e;" horiz-adv-x="460" 
d="M108 -168l-40 36q68 58 68 116l-16 4q-56 14 -56 60q0 30 18.5 49t45.5 19q72 0 72 -100q0 -97 -92 -184zM300 -168l-40 36q68 58 68 116l-16 4q-56 14 -56 60q0 30 18.5 49t45.5 19q72 0 72 -100q0 -97 -92 -184z" />
    <glyph glyph-name="dagger" unicode="&#x2020;" horiz-adv-x="496" 
d="M16 472v68l192 -12v172h72v-172l200 12v-68l-200 8v-536q0 -18 -10.5 -31t-25.5 -13t-25.5 13t-10.5 31v536z" />
    <glyph glyph-name="daggerdbl" unicode="&#x2021;" horiz-adv-x="496" 
d="M16 472v68l192 -12v172h72v-172l200 12v-68l-200 8v-416l200 12v-68l-200 8v-168q0 -18 -10.5 -31t-25.5 -13t-25.5 13t-10.5 31v168l-192 -8v68l192 -12v416z" />
    <glyph glyph-name="bullet" unicode="&#x2022;" horiz-adv-x="416" 
d="M96 268q0 47 33 79.5t79 32.5t79 -32.5t33 -79.5t-33 -79.5t-79 -32.5t-79 32.5t-33 79.5z" />
    <glyph glyph-name="ellipsis" unicode="&#x2026;" horiz-adv-x="792" 
d="M132 -12q-29 0 -46.5 20t-17.5 48t17.5 48t46.5 20t46.5 -20t17.5 -48t-17.5 -48t-46.5 -20zM396 -12q-29 0 -46.5 20t-17.5 48t17.5 48t46.5 20t46.5 -20t17.5 -48t-17.5 -48t-46.5 -20zM660 -12q-29 0 -46.5 20t-17.5 48t17.5 48t46.5 20t46.5 -20t17.5 -48t-17.5 -48
t-46.5 -20z" />
    <glyph glyph-name="perthousand" unicode="&#x2030;" horiz-adv-x="1236" 
d="M192 292q-77 0 -122.5 46t-45.5 134q0 85 46 134.5t122 49.5q77 0 122.5 -46t45.5 -134q0 -85 -46 -134.5t-122 -49.5zM192 344q42 0 65 34t23 98q0 61 -23.5 94.5t-64.5 33.5q-42 0 -65 -34t-23 -98q0 -61 23.5 -94.5t64.5 -33.5zM272 0l256 660l52 -20l-256 -660z
M660 -8q-77 0 -122.5 46t-45.5 134q0 85 46 134.5t122 49.5q77 0 122.5 -46t45.5 -134q0 -85 -46 -134.5t-122 -49.5zM660 44q42 0 65 34t23 98q0 61 -23.5 94.5t-64.5 33.5q-42 0 -65 -34t-23 -98q0 -61 23.5 -94.5t64.5 -33.5zM1044 -8q-77 0 -122.5 46t-45.5 134
q0 85 46 134.5t122 49.5q77 0 122.5 -46t45.5 -134q0 -85 -46 -134.5t-122 -49.5zM1044 44q42 0 65 34t23 98q0 61 -23.5 94.5t-64.5 33.5q-42 0 -65 -34t-23 -98q0 -61 23.5 -94.5t64.5 -33.5z" />
    <glyph glyph-name="guilsinglleft" unicode="&#x2039;" horiz-adv-x="260" 
d="M168 48l-132 200l132 180l60 -8l-96 -172l96 -188z" />
    <glyph glyph-name="guilsinglright" unicode="&#x203a;" horiz-adv-x="260" 
d="M32 60l96 188l-96 172l60 8l132 -180l-132 -200z" />
    <glyph glyph-name="fraction" unicode="&#x2044;" horiz-adv-x="84" 
d="M-112 0l256 660l52 -20l-256 -660z" />
    <glyph glyph-name="uni2070" unicode="&#x2070;" horiz-adv-x="384" 
d="M192 452q-77 0 -122.5 46t-45.5 134q0 85 46 134.5t122 49.5q77 0 122.5 -46t45.5 -134q0 -85 -46 -134.5t-122 -49.5zM192 504q42 0 65 34t23 98q0 61 -23.5 94.5t-64.5 33.5q-42 0 -65 -34t-23 -98q0 -61 23.5 -94.5t64.5 -33.5z" />
    <glyph glyph-name="uni2071" unicode="&#x2071;" horiz-adv-x="216" 
d="M68 460v336l80 20v-356h-80zM108 900q-23 0 -37.5 14t-14.5 34t14.5 34t37.5 14t37.5 -14t14.5 -34t-14.5 -34t-37.5 -14z" />
    <glyph glyph-name="uni2074" unicode="&#x2074;" horiz-adv-x="384" 
d="M24 540l-12 48l180 208l92 20v-220h72l-12 -56h-60v-80h-76v80h-184zM84 596h124v147z" />
    <glyph glyph-name="uni2075" unicode="&#x2075;" horiz-adv-x="384" 
d="M52 468v60q51 -20 96 -20q42 0 67 15.5t25 44.5q0 60 -120 60h-48l12 180h240l-16 -60h-169l-6 -64h23q70 0 117 -26t47 -86q0 -59 -52.5 -89.5t-123.5 -30.5q-50 0 -92 16z" />
    <glyph glyph-name="uni2076" unicode="&#x2076;" horiz-adv-x="384" 
d="M168 648v28q25 16 60 16q57 0 88.5 -30.5t31.5 -77.5q0 -61 -39.5 -96.5t-108.5 -35.5q-77 0 -116.5 44t-39.5 116q0 88 60 146t160 58q60 0 84 -16v-36h-76q-148 0 -148 -148q0 -116 80 -116q28 0 48 19.5t20 52.5q0 37 -21.5 56.5t-58.5 19.5h-24z" />
    <glyph glyph-name="uni2077" unicode="&#x2077;" horiz-adv-x="384" 
d="M84 472l184 272h-224l12 64h284l12 -28l-200 -332z" />
    <glyph glyph-name="uni2078" unicode="&#x2078;" horiz-adv-x="384" 
d="M112 624l15 6l-3 2q-24 14 -35.5 22.5t-22 25.5t-10.5 40q0 42 40.5 69t103.5 27q61 0 96.5 -24.5t35.5 -63.5q0 -25 -14.5 -42.5t-49.5 -37.5l-12 -7l12 -5q41 -17 56.5 -37.5t15.5 -50.5q0 -46 -41.5 -71t-114.5 -25q-66 0 -103 24t-37 64q0 57 68 84zM212 592l-35 16
l-25 -16q-32 -20 -32 -48q0 -23 20.5 -35.5t51.5 -12.5q33 0 52.5 13.5t19.5 34.5q0 15 -12 25t-40 23zM132 724q0 -16 10.5 -26t37.5 -22l27 -12l17 12q36 26 36 48q0 19 -18 33.5t-46 14.5q-29 0 -46.5 -14t-17.5 -34z" />
    <glyph glyph-name="uni2079" unicode="&#x2079;" horiz-adv-x="384" 
d="M44 468v36h76q148 0 148 148q0 116 -80 116q-28 0 -48 -19.5t-20 -52.5q0 -37 21.5 -56.5t58.5 -19.5h24v-28q-25 -16 -60 -16q-57 0 -88.5 30.5t-31.5 77.5q0 61 39.5 96.5t108.5 35.5q77 0 116.5 -44t39.5 -116q0 -88 -60 -146t-160 -58q-60 0 -84 16z" />
    <glyph glyph-name="uni207A" unicode="&#x207a;" horiz-adv-x="384" 
d="M36 624v56h120v112h68v-112h124v-56h-124v-116h-68v116h-120z" />
    <glyph glyph-name="uni207B" unicode="&#x207b;" horiz-adv-x="384" 
d="M36 624v56h312v-56h-312z" />
    <glyph glyph-name="uni207C" unicode="&#x207c;" horiz-adv-x="384" 
d="M36 680v56h312v-56h-312zM36 540v56h312v-56h-312z" />
    <glyph glyph-name="uni207D" unicode="&#x207d;" horiz-adv-x="248" 
d="M240 408l-48 -16q-67 33 -101.5 94.5t-34.5 137.5q0 77 35 144.5t101 99.5l48 -16q-54 -36 -85 -98t-31 -130q0 -66 30.5 -123t85.5 -93z" />
    <glyph glyph-name="uni207E" unicode="&#x207e;" horiz-adv-x="248" 
d="M56 392l-48 16q55 36 85.5 96t30.5 128q0 67 -30.5 125.5t-85.5 94.5l48 16q67 -33 101.5 -96t34.5 -140t-35 -142t-101 -98z" />
    <glyph glyph-name="uni207F" unicode="&#x207f;" horiz-adv-x="448" 
d="M300 460v220q0 43 -15.5 61.5t-52.5 18.5q-39 0 -84 -36v-264h-80v336l80 20v-48q54 48 116 48q55 0 85.5 -27t30.5 -81v-248h-80z" />
    <glyph glyph-name="uni2080" unicode="&#x2080;" horiz-adv-x="384" 
d="M192 -168q-77 0 -122.5 46t-45.5 134q0 85 46 134.5t122 49.5q77 0 122.5 -46t45.5 -134q0 -85 -46 -134.5t-122 -49.5zM192 -116q42 0 65 34t23 98q0 61 -23.5 94.5t-64.5 33.5q-42 0 -65 -34t-23 -98q0 -61 23.5 -94.5t64.5 -33.5z" />
    <glyph glyph-name="uni2081" unicode="&#x2081;" horiz-adv-x="384" 
d="M168 -160v260l-96 -16v40l176 72v-356h-80z" />
    <glyph glyph-name="uni2082" unicode="&#x2082;" horiz-adv-x="384" 
d="M48 -160l-20 32l100 84q60 50 78 71t18 45q0 56 -76 56q-54 0 -100 -28l20 80q39 16 104 16q63 0 99.5 -27t36.5 -77q0 -23 -10.5 -45t-34 -44t-37.5 -33t-46 -34l-44 -32h204v-64h-292z" />
    <glyph glyph-name="uni2083" unicode="&#x2083;" horiz-adv-x="384" 
d="M60 112l24 72q35 12 100 12q60 0 92 -23.5t32 -60.5q0 -28 -21 -49.5t-51 -31.5q40 -8 64 -29.5t24 -53.5q0 -60 -51 -88t-123 -28q-61 0 -106 16v60q49 -20 100 -20q45 0 72.5 13.5t27.5 38.5q0 48 -92 48h-72l24 52h76q21 10 34.5 24.5t13.5 27.5q0 17 -18.5 28.5
t-53.5 11.5q-53 0 -96 -20z" />
    <glyph glyph-name="uni2084" unicode="&#x2084;" horiz-adv-x="384" 
d="M24 -80l-12 48l180 208l92 20v-220h72l-12 -56h-60v-80h-76v80h-184zM84 -24h124v147z" />
    <glyph glyph-name="uni2085" unicode="&#x2085;" horiz-adv-x="384" 
d="M52 -152v60q51 -20 96 -20q42 0 67 15.5t25 44.5q0 60 -120 60h-48l12 180h240l-16 -60h-169l-6 -64h23q70 0 117 -26t47 -86q0 -59 -52.5 -89.5t-123.5 -30.5q-50 0 -92 16z" />
    <glyph glyph-name="uni2086" unicode="&#x2086;" horiz-adv-x="384" 
d="M168 28v28q25 16 60 16q57 0 88.5 -30.5t31.5 -77.5q0 -61 -39.5 -96.5t-108.5 -35.5q-77 0 -116.5 44t-39.5 116q0 88 60 146t160 58q60 0 84 -16v-36h-76q-148 0 -148 -148q0 -116 80 -116q28 0 48 19.5t20 52.5q0 37 -21.5 56.5t-58.5 19.5h-24z" />
    <glyph glyph-name="uni2087" unicode="&#x2087;" horiz-adv-x="384" 
d="M84 -148l184 272h-224l12 64h284l12 -28l-200 -332z" />
    <glyph glyph-name="uni2088" unicode="&#x2088;" horiz-adv-x="384" 
d="M112 4l15 6l-3 2q-24 14 -35.5 22.5t-22 25.5t-10.5 40q0 42 40.5 69t103.5 27q61 0 96.5 -24.5t35.5 -63.5q0 -25 -14.5 -42.5t-49.5 -37.5l-12 -7l12 -5q41 -17 56.5 -37.5t15.5 -50.5q0 -46 -41.5 -71t-114.5 -25q-66 0 -103 24t-37 64q0 57 68 84zM212 -28l-35 16
l-25 -16q-32 -20 -32 -48q0 -23 20.5 -35.5t51.5 -12.5q33 0 52.5 13.5t19.5 34.5q0 15 -12 25t-40 23zM132 104q0 -16 10.5 -26t37.5 -22l27 -12l17 12q36 26 36 48q0 19 -18 33.5t-46 14.5q-29 0 -46.5 -14t-17.5 -34z" />
    <glyph glyph-name="uni2089" unicode="&#x2089;" horiz-adv-x="384" 
d="M44 -152v36h76q148 0 148 148q0 116 -80 116q-28 0 -48 -19.5t-20 -52.5q0 -37 21.5 -56.5t58.5 -19.5h24v-28q-25 -16 -60 -16q-57 0 -88.5 30.5t-31.5 77.5q0 61 39.5 96.5t108.5 35.5q77 0 116.5 -44t39.5 -116q0 -88 -60 -146t-160 -58q-60 0 -84 16z" />
    <glyph glyph-name="uni208A" unicode="&#x208a;" horiz-adv-x="384" 
d="M36 4v56h120v112h68v-112h124v-56h-124v-116h-68v116h-120z" />
    <glyph glyph-name="uni208B" unicode="&#x208b;" horiz-adv-x="384" 
d="M36 4v56h312v-56h-312z" />
    <glyph glyph-name="uni208C" unicode="&#x208c;" horiz-adv-x="384" 
d="M36 60v56h312v-56h-312zM36 -80v56h312v-56h-312z" />
    <glyph glyph-name="uni208D" unicode="&#x208d;" horiz-adv-x="248" 
d="M240 -212l-48 -16q-67 33 -101.5 94.5t-34.5 137.5q0 77 35 144.5t101 99.5l48 -16q-54 -36 -85 -98t-31 -130q0 -66 30.5 -123t85.5 -93z" />
    <glyph glyph-name="uni208E" unicode="&#x208e;" horiz-adv-x="248" 
d="M56 -228l-48 16q55 36 85.5 96t30.5 128q0 67 -30.5 125.5t-85.5 94.5l48 16q67 -33 101.5 -96t34.5 -140t-35 -142t-101 -98z" />
    <glyph glyph-name="uni2090" unicode="&#x2090;" horiz-adv-x="384" 
d="M356 -160q-20 -8 -56 -8q-49 0 -65 39q-41 -39 -107 -39q-46 0 -73 22t-27 62q0 71 112 100l92 24v52q0 27 -10 39.5t-34 12.5q-30 0 -76 -40l-36 -32l-44 52q87 72 180 72q52 0 76.5 -23t23.5 -65l-4 -184q-1 -25 8.5 -31.5t47.5 -8.5zM160 -116q38 0 72 17v99l-64 -20
q-60 -18 -60 -56q0 -40 52 -40z" />
    <glyph glyph-name="uni2091" unicode="&#x2091;" horiz-adv-x="392" 
d="M348 -84l-20 -68q-35 -16 -108 -16q-89 0 -136.5 46t-47.5 138q0 79 50 129.5t130 50.5q69 0 106.5 -30t37.5 -84q0 -29 -12 -62l-232 -5v-11q0 -51 31 -81.5t85 -30.5q64 0 116 24zM216 144q-77 0 -95 -84l159 4q4 14 4 22q0 27 -18 42.5t-50 15.5z" />
    <glyph glyph-name="uni2092" unicode="&#x2092;" horiz-adv-x="432" 
d="M204 -168q-81 0 -124.5 45.5t-43.5 130.5q0 88 52 138t140 50q81 0 124.5 -45.5t43.5 -130.5q0 -88 -52 -138t-140 -50zM216 -116q43 0 69.5 34.5t26.5 93.5q0 132 -96 132q-43 0 -69.5 -34.5t-26.5 -93.5q0 -132 96 -132z" />
    <glyph glyph-name="uni2093" unicode="&#x2093;" horiz-adv-x="344" 
d="M248 -160l-83 118l-85 -118h-76l126 168l-122 176h88l79 -114l81 114h80l-125 -165l125 -179h-88z" />
    <glyph glyph-name="uni2095" unicode="&#x2095;" horiz-adv-x="448" 
d="M300 -160v220q0 43 -15.5 61.5t-52.5 18.5q-39 0 -84 -36v-264h-80v524l80 20v-236q54 48 116 48q55 0 85.5 -27t30.5 -81v-248h-80z" />
    <glyph glyph-name="uni2096" unicode="&#x2096;" horiz-adv-x="400" 
d="M68 -160v524l80 20v-544h-80zM300 -160q-40 43 -140 184l140 160h100l-156 -152l152 -192h-96z" />
    <glyph glyph-name="uni2097" unicode="&#x2097;" horiz-adv-x="216" 
d="M68 -160v524l80 20v-544h-80z" />
    <glyph glyph-name="uni2098" unicode="&#x2098;" horiz-adv-x="668" 
d="M292 -160v220q0 44 -13 62t-47 18q-39 0 -84 -36v-264h-80v336l80 20v-48q56 48 112 48q77 0 102 -54q56 54 126 54q112 0 112 -108v-248h-80v220q0 43 -14.5 61.5t-49.5 18.5q-41 0 -85 -37q1 -5 1 -15v-248h-80z" />
    <glyph glyph-name="uni2099" unicode="&#x2099;" horiz-adv-x="448" 
d="M300 -160v220q0 43 -15.5 61.5t-52.5 18.5q-39 0 -84 -36v-264h-80v336l80 20v-48q54 48 116 48q55 0 85.5 -27t30.5 -81v-248h-80z" />
    <glyph glyph-name="uni209A" unicode="&#x209a;" horiz-adv-x="448" 
d="M68 -336v512l80 20v-44q46 44 108 44q73 0 114.5 -44.5t41.5 -123.5q0 -90 -53 -143t-139 -53q-36 0 -72 16v-164zM220 140q-39 0 -72 -20v-164q0 -37 21.5 -56.5t54.5 -19.5q46 0 75 35.5t29 96.5q0 128 -108 128z" />
    <glyph glyph-name="uni209B" unicode="&#x209b;" horiz-adv-x="340" 
d="M32 -140l28 56q52 -28 104 -28q64 0 64 40q0 18 -12 27.5t-40 20.5l-52 20q-80 31 -80 96q0 50 40 77t100 27q63 0 120 -24l-24 -60q-58 28 -96 28q-60 0 -60 -40q0 -29 40 -44l52 -20q30 -12 46.5 -21t31 -29.5t14.5 -49.5q0 -51 -39 -77.5t-105 -26.5q-79 0 -132 28z
" />
    <glyph glyph-name="uni209C" unicode="&#x209c;" horiz-adv-x="272" 
d="M8 128l20 56h48v72l84 32l-4 -104h100l-20 -56h-80v-188q0 -28 8.5 -40t31.5 -12q32 0 64 16l-16 -60q-34 -12 -68 -12q-52 0 -76 24t-24 80v192h-68z" />
    <glyph glyph-name="Euro" unicode="&#x20ac;" horiz-adv-x="528" 
d="M28 356v36h65q18 122 94.5 193t184.5 71q64 0 120 -28v-92q-63 40 -124 40q-68 0 -115 -48t-60 -136h191v-36h-195q-1 -11 -1 -32q0 -22 1 -32h195v-36h-192q12 -86 55.5 -137t112.5 -51q76 0 140 48v-88q-62 -40 -144 -40q-109 0 -179 69t-86 199h-63v36h61q-1 10 -1 32
q0 21 1 32h-61z" />
    <glyph glyph-name="uni20B4" unicode="&#x20b4;" 
d="M52 392v36l224 -38q48 40 48 94q0 46 -30 69t-78 23q-82 0 -140 -64v104q54 40 140 40q87 0 143.5 -48t56.5 -128q0 -60 -37 -108l73 -12v-36l-101 17q-24 -20 -43 -33l-28 -19l172 -29v-36l-214 36q-23 -16 -36 -26.5t-25.5 -31.5t-12.5 -46q0 -43 29 -65.5t75 -22.5
q42 0 87 18t77 46l-12 -104q-60 -40 -152 -40q-90 0 -145 46.5t-55 125.5q0 70 53 120l-69 12v36l106 -18q16 12 26 18l51 33z" />
    <glyph glyph-name="afii61289" unicode="&#x2113;" horiz-adv-x="404" 
d="M372 112l20 -16q-35 -55 -74.5 -81.5t-93.5 -26.5q-65 0 -100.5 37.5t-35.5 134.5v60l-68 -48l-12 24l80 56v176q0 112 39 170t109 58q48 0 72 -37t24 -87q0 -73 -42 -136.5t-122 -131.5v-68q0 -85 23 -120.5t69 -35.5q62 0 112 72zM168 424v-116q104 109 104 224
q0 37 -11.5 64.5t-36.5 27.5q-31 0 -43.5 -46.5t-12.5 -153.5z" />
    <glyph glyph-name="afii61352" unicode="&#x2116;" horiz-adv-x="1052" 
d="M536 0l-368 459v-459h-80v559l-68 85h120l356 -445v445h80v-644h-40zM824 272q-66 0 -111 41t-45 111t45 111t111 41t111 -41t45 -111t-45 -111t-111 -41zM824 320q43 0 69.5 27t26.5 77t-26.5 77t-69.5 27t-69.5 -27t-26.5 -77t26.5 -77t69.5 -27zM972 172h-292v44h292
v-44zM972 80h-292v44h292v-44z" />
    <glyph glyph-name="trademark" unicode="&#x2122;" horiz-adv-x="860" 
d="M592 400l-116 136v-220h-56v286l-36 42h84l136 -160l136 160h40v-328h-68v220zM28 592v52h316l-24 -52h-104v-276h-68v276h-120z" />
    <glyph glyph-name="Omega" unicode="&#x2126;" horiz-adv-x="688" 
d="M40 0v76h120q-53 41 -86.5 110t-33.5 142q0 147 83.5 237.5t220.5 90.5t220.5 -90.5t83.5 -237.5q0 -73 -33.5 -142t-86.5 -110h120v-76h-236v60q26 19 44.5 37t42 50t36.5 78.5t13 102.5q0 114 -52.5 181t-151.5 67t-151.5 -67t-52.5 -181q0 -56 13 -102.5t36.5 -78.5
t42 -50t44.5 -37v-60h-236z" />
    <glyph glyph-name="estimated" unicode="&#x212e;" horiz-adv-x="784" 
d="M160 328h464q4 0 4 8v184q0 12 -8 20q-91 88 -228 88t-228 -88q-8 -8 -8 -20v-184q0 -8 4 -8zM392 16q157 0 244 100h52q-50 -59 -129 -93.5t-167 -34.5q-155 0 -263.5 96.5t-108.5 235.5q0 140 109 238t263 98q158 0 265 -101.5t107 -246.5h-604q-4 0 -4 -8v-180
q0 -12 8 -20q43 -41 103.5 -62.5t124.5 -21.5z" />
    <glyph glyph-name="uni2150" unicode="&#x2150;" horiz-adv-x="802" 
d="M168 300v260l-96 -16v40l176 72v-356h-80zM208 0l256 660l52 -20l-256 -660zM502 12l184 272h-224l12 64h284l12 -28l-200 -332z" />
    <glyph glyph-name="uni2151" unicode="&#x2151;" horiz-adv-x="792" 
d="M168 300v260l-96 -16v40l176 72v-356h-80zM212 0l256 660l52 -20l-256 -660zM452 8v36h76q148 0 148 148q0 116 -80 116q-28 0 -48 -19.5t-20 -52.5q0 -37 21.5 -56.5t58.5 -19.5h24v-28q-25 -16 -60 -16q-57 0 -88.5 30.5t-31.5 77.5q0 61 39.5 96.5t108.5 35.5
q77 0 116.5 -44t39.5 -116q0 -88 -60 -146t-160 -58q-60 0 -84 16z" />
    <glyph glyph-name="uni2152" unicode="&#x2152;" horiz-adv-x="1116" 
d="M168 300v260l-96 -16v40l176 72v-356h-80zM212 0l256 660l52 -20l-256 -660zM576 0v260l-96 -16v40l176 72v-356h-80zM924 -8q-77 0 -122.5 46t-45.5 134q0 85 46 134.5t122 49.5q77 0 122.5 -46t45.5 -134q0 -85 -46 -134.5t-122 -49.5zM924 44q42 0 65 34t23 98
q0 61 -23.5 94.5t-64.5 33.5q-42 0 -65 -34t-23 -98q0 -61 23.5 -94.5t64.5 -33.5z" />
    <glyph glyph-name="onethird" unicode="&#x2153;" horiz-adv-x="792" 
d="M168 300v260l-96 -16v40l176 72v-356h-80zM212 0l256 660l52 -20l-256 -660zM468 272l24 72q35 12 100 12q60 0 92 -23.5t32 -60.5q0 -28 -21 -49.5t-51 -31.5q40 -8 64 -29.5t24 -53.5q0 -60 -51 -88t-123 -28q-61 0 -106 16v60q49 -20 100 -20q45 0 72.5 13.5
t27.5 38.5q0 48 -92 48h-72l24 52h76q21 10 34.5 24.5t13.5 27.5q0 17 -18.5 28.5t-53.5 11.5q-53 0 -96 -20z" />
    <glyph glyph-name="twothirds" unicode="&#x2154;" horiz-adv-x="852" 
d="M48 300l-20 32l100 84q60 50 78 71t18 45q0 56 -76 56q-54 0 -100 -28l20 80q39 16 104 16q63 0 99.5 -27t36.5 -77q0 -23 -10.5 -45t-34 -44t-37.5 -33t-46 -34l-44 -32h204v-64h-292zM284 0l256 660l52 -20l-256 -660zM528 272l24 72q35 12 100 12q60 0 92 -23.5
t32 -60.5q0 -28 -21 -49.5t-51 -31.5q40 -8 64 -29.5t24 -53.5q0 -60 -51 -88t-123 -28q-61 0 -106 16v60q49 -20 100 -20q45 0 72.5 13.5t27.5 38.5q0 48 -92 48h-72l24 52h76q21 10 34.5 24.5t13.5 27.5q0 17 -18.5 28.5t-53.5 11.5q-53 0 -96 -20z" />
    <glyph glyph-name="uni2155" unicode="&#x2155;" horiz-adv-x="792" 
d="M168 300v260l-96 -16v40l176 72v-356h-80zM212 0l256 660l52 -20l-256 -660zM460 8v60q51 -20 96 -20q42 0 67 15.5t25 44.5q0 60 -120 60h-48l12 180h240l-16 -60h-169l-6 -64h23q70 0 117 -26t47 -86q0 -59 -52.5 -89.5t-123.5 -30.5q-50 0 -92 16z" />
    <glyph glyph-name="uni2156" unicode="&#x2156;" horiz-adv-x="852" 
d="M48 300l-20 32l100 84q60 50 78 71t18 45q0 56 -76 56q-54 0 -100 -28l20 80q39 16 104 16q63 0 99.5 -27t36.5 -77q0 -23 -10.5 -45t-34 -44t-37.5 -33t-46 -34l-44 -32h204v-64h-292zM288 0l256 660l52 -20l-256 -660zM520 8v60q51 -20 96 -20q42 0 67 15.5t25 44.5
q0 60 -120 60h-48l12 180h240l-16 -60h-169l-6 -64h23q70 0 117 -26t47 -86q0 -59 -52.5 -89.5t-123.5 -30.5q-50 0 -92 16z" />
    <glyph glyph-name="uni2157" unicode="&#x2157;" horiz-adv-x="852" 
d="M60 572l24 72q35 12 100 12q60 0 92 -23.5t32 -60.5q0 -28 -21 -49.5t-51 -31.5q40 -8 64 -29.5t24 -53.5q0 -60 -51 -88t-123 -28q-61 0 -106 16v60q49 -20 100 -20q45 0 72.5 13.5t27.5 38.5q0 48 -92 48h-72l24 52h76q21 10 34.5 24.5t13.5 27.5q0 17 -18.5 28.5
t-53.5 11.5q-53 0 -96 -20zM272 0l256 660l52 -20l-256 -660zM520 8v60q51 -20 96 -20q42 0 67 15.5t25 44.5q0 60 -120 60h-48l12 180h240l-16 -60h-169l-6 -64h23q70 0 117 -26t47 -86q0 -59 -52.5 -89.5t-123.5 -30.5q-50 0 -92 16z" />
    <glyph glyph-name="uni2158" unicode="&#x2158;" horiz-adv-x="852" 
d="M24 380l-12 48l180 208l92 20v-220h72l-12 -56h-60v-80h-76v80h-184zM84 436h124v147zM272 0l256 660l52 -20l-256 -660zM520 8v60q51 -20 96 -20q42 0 67 15.5t25 44.5q0 60 -120 60h-48l12 180h240l-16 -60h-169l-6 -64h23q70 0 117 -26t47 -86q0 -59 -52.5 -89.5
t-123.5 -30.5q-50 0 -92 16z" />
    <glyph glyph-name="uni2159" unicode="&#x2159;" horiz-adv-x="792" 
d="M168 300v260l-96 -16v40l176 72v-356h-80zM224 0l256 660l52 -20l-256 -660zM576 188v28q25 16 60 16q57 0 88.5 -30.5t31.5 -77.5q0 -61 -39.5 -96.5t-108.5 -35.5q-77 0 -116.5 44t-39.5 116q0 88 60 146t160 58q60 0 84 -16v-36h-76q-148 0 -148 -148q0 -116 80 -116
q28 0 48 19.5t20 52.5q0 37 -21.5 56.5t-58.5 19.5h-24z" />
    <glyph glyph-name="uni215A" unicode="&#x215a;" horiz-adv-x="852" 
d="M52 308v60q51 -20 96 -20q42 0 67 15.5t25 44.5q0 60 -120 60h-48l12 180h240l-16 -60h-169l-6 -64h23q70 0 117 -26t47 -86q0 -59 -52.5 -89.5t-123.5 -30.5q-50 0 -92 16zM272 0l256 660l52 -20l-256 -660zM636 188v28q25 16 60 16q57 0 88.5 -30.5t31.5 -77.5
q0 -61 -39.5 -96.5t-108.5 -35.5q-77 0 -116.5 44t-39.5 116q0 88 60 146t160 58q60 0 84 -16v-36h-76q-148 0 -148 -148q0 -116 80 -116q28 0 48 19.5t20 52.5q0 37 -21.5 56.5t-58.5 19.5h-24z" />
    <glyph glyph-name="oneeighth" unicode="&#x215b;" horiz-adv-x="792" 
d="M168 300v260l-96 -16v40l176 72v-356h-80zM216 0l256 660l52 -20l-256 -660zM520 164l15 6l-3 2q-24 14 -35.5 22.5t-22 25.5t-10.5 40q0 42 40.5 69t103.5 27q61 0 96.5 -24.5t35.5 -63.5q0 -25 -14.5 -42.5t-49.5 -37.5l-12 -7l12 -5q41 -17 56.5 -37.5t15.5 -50.5
q0 -46 -41.5 -71t-114.5 -25q-66 0 -103 24t-37 64q0 57 68 84zM620 132l-35 16l-25 -16q-32 -20 -32 -48q0 -23 20.5 -35.5t51.5 -12.5q33 0 52.5 13.5t19.5 34.5q0 15 -12 25t-40 23zM540 264q0 -16 10.5 -26t37.5 -22l27 -12l17 12q36 25 36 48q0 19 -18 33.5t-46 14.5
q-29 0 -46.5 -14t-17.5 -34z" />
    <glyph glyph-name="threeeighths" unicode="&#x215c;" horiz-adv-x="852" 
d="M60 572l24 72q35 12 100 12q60 0 92 -23.5t32 -60.5q0 -28 -21 -49.5t-51 -31.5q40 -8 64 -29.5t24 -53.5q0 -60 -51 -88t-123 -28q-61 0 -106 16v60q49 -20 100 -20q45 0 72.5 13.5t27.5 38.5q0 48 -92 48h-72l24 52h76q21 10 34.5 24.5t13.5 27.5q0 17 -18.5 28.5
t-53.5 11.5q-53 0 -96 -20zM272 0l256 660l52 -20l-256 -660zM580 164l15 6l-3 2q-24 14 -35.5 22.5t-22 25.5t-10.5 40q0 42 40.5 69t103.5 27q61 0 96.5 -24.5t35.5 -63.5q0 -25 -14.5 -42.5t-49.5 -37.5l-12 -7l12 -5q41 -17 56.5 -37.5t15.5 -50.5q0 -46 -41.5 -71
t-114.5 -25q-66 0 -103 24t-37 64q0 57 68 84zM680 132l-35 16l-25 -16q-32 -20 -32 -48q0 -23 20.5 -35.5t51.5 -12.5q33 0 52.5 13.5t19.5 34.5q0 15 -12 25t-40 23zM600 264q0 -16 10.5 -26t37.5 -22l27 -12l17 12q36 25 36 48q0 19 -18 33.5t-46 14.5q-29 0 -46.5 -14
t-17.5 -34z" />
    <glyph glyph-name="fiveeighths" unicode="&#x215d;" horiz-adv-x="852" 
d="M52 308v60q51 -20 96 -20q42 0 67 15.5t25 44.5q0 60 -120 60h-48l12 180h240l-16 -60h-169l-6 -64h23q70 0 117 -26t47 -86q0 -59 -52.5 -89.5t-123.5 -30.5q-50 0 -92 16zM272 0l256 660l52 -20l-256 -660zM580 164l15 6l-3 2q-24 14 -35.5 22.5t-22 25.5t-10.5 40
q0 42 40.5 69t103.5 27q61 0 96.5 -24.5t35.5 -63.5q0 -25 -14.5 -42.5t-49.5 -37.5l-12 -7l12 -5q41 -17 56.5 -37.5t15.5 -50.5q0 -46 -41.5 -71t-114.5 -25q-66 0 -103 24t-37 64q0 57 68 84zM680 132l-35 16l-25 -16q-32 -20 -32 -48q0 -23 20.5 -35.5t51.5 -12.5
q33 0 52.5 13.5t19.5 34.5q0 15 -12 25t-40 23zM600 264q0 -16 10.5 -26t37.5 -22l27 -12l17 12q36 25 36 48q0 19 -18 33.5t-46 14.5q-29 0 -46.5 -14t-17.5 -34z" />
    <glyph glyph-name="seveneighths" unicode="&#x215e;" horiz-adv-x="787" 
d="M84 312l184 272h-224l12 64h284l12 -28l-200 -332zM207 0l256 660l52 -20l-256 -660zM515 164l15 6l-3 2q-24 14 -35.5 22.5t-22 25.5t-10.5 40q0 42 40.5 69t103.5 27q61 0 96.5 -24.5t35.5 -63.5q0 -25 -14.5 -42.5t-49.5 -37.5l-12 -7l12 -5q41 -17 56.5 -37.5
t15.5 -50.5q0 -46 -41.5 -71t-114.5 -25q-66 0 -103 24t-37 64q0 57 68 84zM615 132l-35 16l-25 -16q-32 -20 -32 -48q0 -23 20.5 -35.5t51.5 -12.5q33 0 52.5 13.5t19.5 34.5q0 15 -12 25t-40 23zM535 264q0 -16 10.5 -26t37.5 -22l27 -12l17 12q36 25 36 48q0 19 -18 33.5
t-46 14.5q-29 0 -46.5 -14t-17.5 -34z" />
    <glyph glyph-name="uni215F" unicode="&#x215f;" horiz-adv-x="408" 
d="M168 300v260l-96 -16v40l176 72v-356h-80zM212 0l256 660l52 -20l-256 -660z" />
    <glyph glyph-name="uni2189" unicode="&#x2189;" horiz-adv-x="852" 
d="M192 292q-77 0 -122.5 46t-45.5 134q0 85 46 134.5t122 49.5q77 0 122.5 -46t45.5 -134q0 -85 -46 -134.5t-122 -49.5zM192 344q42 0 65 34t23 98q0 61 -23.5 94.5t-64.5 33.5q-42 0 -65 -34t-23 -98q0 -61 23.5 -94.5t64.5 -33.5zM272 0l256 660l52 -20l-256 -660z
M528 272l24 72q35 12 100 12q60 0 92 -23.5t32 -60.5q0 -28 -21 -49.5t-51 -31.5q40 -8 64 -29.5t24 -53.5q0 -60 -51 -88t-123 -28q-61 0 -106 16v60q49 -20 100 -20q45 0 72.5 13.5t27.5 38.5q0 48 -92 48h-72l24 52h76q21 10 34.5 24.5t13.5 27.5q0 17 -18.5 28.5
t-53.5 11.5q-53 0 -96 -20z" />
    <glyph glyph-name="arrowleft" unicode="&#x2190;" horiz-adv-x="764" 
d="M296 576l40 -44l-189 -171l565 7v-68l-565 7l189 -171l-40 -44l-244 236v12z" />
    <glyph glyph-name="arrowup" unicode="&#x2191;" horiz-adv-x="604" 
d="M104 372l-44 40l236 244h12l236 -244l-44 -40l-171 188l7 -560h-68l7 560z" />
    <glyph glyph-name="arrowright" unicode="&#x2192;" horiz-adv-x="764" 
d="M428 532l40 44l244 -236v-12l-244 -236l-40 44l188 171l-564 -7v68l564 -7z" />
    <glyph glyph-name="arrowdown" unicode="&#x2193;" horiz-adv-x="604" 
d="M500 272l44 -40l-236 -244h-12l-236 244l44 40l171 -189l-7 561h68l-7 -561z" />
    <glyph glyph-name="uni2196" unicode="&#x2196;" horiz-adv-x="604" 
d="M71 216l-6 339l9 9l338 -6l-3 -59l-254 12l405 -395l-48 -47l-395 406l13 -255z" />
    <glyph glyph-name="uni2197" unicode="&#x2197;" horiz-adv-x="604" 
d="M213 500l-3 59l339 6l9 -9l-6 -339l-59 3l12 255l-394 -405l-48 48l405 394z" />
    <glyph glyph-name="uni2198" unicode="&#x2198;" horiz-adv-x="604" 
d="M494 417l59 3l6 -339l-9 -9l-339 6l3 59l255 -12l-405 394l48 48l394 -405z" />
    <glyph glyph-name="uni2199" unicode="&#x2199;" horiz-adv-x="604" 
d="M412 78l-338 -6l-9 9l6 339l59 -4l-13 -255l395 406l48 -47l-405 -395l254 12z" />
    <glyph glyph-name="partialdiff" unicode="&#x2202;" horiz-adv-x="496" 
d="M80 648l32 64h16q84 0 148.5 -39.5t103 -105.5t57.5 -146t19 -169q0 -67 -20.5 -124.5t-71 -98.5t-124.5 -41q-94 0 -147 61.5t-53 166.5q0 106 64 165t156 59q48 0 89 -19q-26 105 -85.5 166t-151.5 61h-32zM368 252q0 48 -6 95q-40 33 -98 33q-59 0 -95.5 -42.5
t-36.5 -125.5q0 -73 30.5 -118.5t81.5 -45.5q61 0 92.5 56t31.5 148z" />
    <glyph glyph-name="Delta" unicode="&#x2206;" horiz-adv-x="544" 
d="M0 0l272 656l272 -656h-544zM268 451l-152 -379h303z" />
    <glyph glyph-name="product" unicode="&#x220f;" horiz-adv-x="652" 
d="M464 -222v790h-276v-790h-96v790h-40v76h548v-76h-40v-790h-96z" />
    <glyph glyph-name="summation" unicode="&#x2211;" horiz-adv-x="536" 
d="M12 -221l236 447l-228 418h480v-72h-340l179 -346l-195 -375h356v-72h-488z" />
    <glyph glyph-name="minus" unicode="&#x2212;" 
d="M48 288v60h408v-60h-408z" />
    <glyph glyph-name="uni2219" unicode="&#x2219;" 
d="M140 268q0 47 33 79.5t79 32.5t79 -32.5t33 -79.5t-33 -79.5t-79 -32.5t-79 32.5t-33 79.5z" />
    <glyph glyph-name="radical" unicode="&#x221a;" horiz-adv-x="520" 
d="M184 -12l-160 520h100l108 -384l144 520h196v-76h-132l-164 -564z" />
    <glyph glyph-name="infinity" unicode="&#x221e;" 
d="M138 192q-60 0 -92 38.5t-32 97.5q0 58 34.5 97t97.5 39q78 0 108 -74q36 74 112 74q60 0 92 -38.5t32 -97.5q0 -58 -34.5 -97t-97.5 -39q-80 0 -108 73q-37 -73 -112 -73zM142 236q53 0 84 80l3 8q-23 96 -83 96q-34 0 -57 -27t-23 -65q0 -40 21.5 -66t54.5 -26z
M278 340l-3 -9q21 -95 83 -95q34 0 57 27t23 65q0 40 -21.5 66t-54.5 26q-55 0 -84 -80z" />
    <glyph glyph-name="integral" unicode="&#x222b;" 
d="M-48 -188l48 76l80 -60h16q44 0 64 33.5t20 110.5v508q0 107 46.5 169.5t141.5 62.5q62 0 116 -28l-44 -68l-76 40h-16q-36 0 -58 -35t-22 -109v-517q0 -223 -196 -223q-51 0 -120 40z" />
    <glyph glyph-name="approxequal" unicode="&#x2248;" 
d="M40 352l96 116h36l104 -36q35 -12 64 -12q30 0 68 48l16 20l40 -28l-96 -116h-36l-104 36q-35 12 -64 12q-30 0 -68 -48l-16 -20zM40 172l96 116h36l104 -36q35 -12 64 -12q30 0 68 48l16 20l40 -28l-96 -116h-36l-104 36q-35 12 -64 12q-30 0 -68 -48l-16 -20z" />
    <glyph glyph-name="notequal" unicode="&#x2260;" 
d="M48 384v60h231l71 152l58 -28l-58 -124h106v-60h-134l-64 -136h198v-60h-226l-73 -157l-58 28l60 129h-111v60h139l64 136h-203z" />
    <glyph glyph-name="lessequal" unicode="&#x2264;" 
d="M60 336l348 188l32 -52l-256 -136l252 -140l-36 -52zM48 0v60h408v-60h-408z" />
    <glyph glyph-name="greaterequal" unicode="&#x2265;" 
d="M96 524l348 -188l-340 -192l-36 52l252 140l-256 136zM456 60v-60h-408v60h408z" />
    <glyph glyph-name="dotmath" unicode="&#x22c5;" 
d="M186 266q0 28 19 47t47 19t47 -19t19 -47t-19 -47t-47 -19t-47 19t-19 47z" />
    <glyph glyph-name="filledbox" unicode="&#x25a0;" horiz-adv-x="704" 
d="M672 0h-640v644h640v-644z" />
    <glyph glyph-name="H22073" unicode="&#x25a1;" horiz-adv-x="704" 
d="M672 0h-640v644h640v-644zM604 64v520h-504v-520h504z" />
    <glyph glyph-name="uni25B6" unicode="&#x25b6;" horiz-adv-x="432" 
d="M440 244l-408 -264v496z" />
    <glyph glyph-name="uni25B7" unicode="&#x25b7;" horiz-adv-x="432" 
d="M440 244l-408 -264v496zM96 92l236 152l-236 132v-284z" />
    <glyph glyph-name="uni25C0" unicode="&#x25c0;" horiz-adv-x="432" 
d="M400 -20l-408 264l408 232v-496z" />
    <glyph glyph-name="uni25C1" unicode="&#x25c1;" horiz-adv-x="432" 
d="M400 -20l-408 264l408 232v-496zM336 92v284l-236 -132z" />
    <glyph glyph-name="lozenge" unicode="&#x25ca;" horiz-adv-x="532" 
d="M0 324l268 336l264 -340l-268 -336zM261 535l-164 -206l174 -221l163 206z" />
    <glyph glyph-name="circle" unicode="&#x25cb;" horiz-adv-x="524" 
d="M88 228q0 -75 50.5 -127.5t123.5 -52.5t123.5 52.5t50.5 127.5t-50.5 127.5t-123.5 52.5t-123.5 -52.5t-50.5 -127.5zM20 228q0 99 71 169.5t171 70.5t171 -70.5t71 -169.5t-71 -169.5t-171 -70.5t-171 70.5t-71 169.5z" />
    <glyph glyph-name="H18533" unicode="&#x25cf;" horiz-adv-x="524" 
d="M20 228q0 99 71 169.5t171 70.5t171 -70.5t71 -169.5t-71 -169.5t-171 -70.5t-171 70.5t-71 169.5z" />
    <glyph glyph-name="uni25FB" unicode="&#x25fb;" horiz-adv-x="524" 
d="M492 0h-460v456h460v-456zM428 60v336h-332v-336h332z" />
    <glyph glyph-name="uni25FC" unicode="&#x25fc;" horiz-adv-x="524" 
d="M492 0h-460v456h460v-456z" />
    <glyph glyph-name="uni2605" unicode="&#x2605;" horiz-adv-x="524" 
d="M512 280l-156 -104l68 -176l-16 -8l-148 116l-144 -116l-16 8l68 176l-156 104l4 16l188 -8l52 180h12l52 -180l188 8z" />
    <glyph glyph-name="uniFB00" unicode="&#xfb00;" horiz-adv-x="540" 
d="M352 0v388h-180v-388h-88v388h-76l20 68h56v20q0 102 56.5 161t155.5 59q61 0 121 -31q53 47 139 47q68 0 116 -24l-32 -68l-88 36h-16q-41 0 -68.5 -37t-27.5 -103v-60h116l-20 -68h-96v-388h-88zM172 500v-44h180v36q0 62 20 110l-97 38h-7q-41 0 -68.5 -37t-27.5 -103
z" />
    <glyph glyph-name="fi" unicode="&#xfb01;" horiz-adv-x="516" 
d="M348 0v388h-176v-388h-88v388h-76l20 68h56v36q0 102 59.5 161t164.5 59q76 0 140 -32l-39 -75l-97 51h-24q-53 0 -84.5 -36.5t-31.5 -103.5v-60h220l44 12v-468h-88z" />
    <glyph glyph-name="fl" unicode="&#xfb02;" horiz-adv-x="520" 
d="M352 0v656h-84q-41 0 -68.5 -37t-27.5 -103v-60h116l-20 -68h-96v-388h-88v388h-76l20 68h56v36q0 103 53 161.5t151 58.5q53 0 96 -16l56 16v-712h-88z" />
    <glyph glyph-name="uniFB03" unicode="&#xfb03;" horiz-adv-x="780" 
d="M348 0v388h-176v-388h-88v388h-76l20 68h56v20q0 102 56.5 161t155.5 59q73 0 128 -29q57 45 148 45q76 0 140 -32l-39 -75l-97 51h-24q-53 0 -84.5 -36.5t-31.5 -103.5v-60h220l44 12v-468h-88v388h-176v-388h-88zM172 500v-44h176v36q0 67 25 114l-85 34h-20
q-41 0 -68.5 -37t-27.5 -103z" />
    <glyph glyph-name="uniFB04" unicode="&#xfb04;" horiz-adv-x="784" 
d="M348 0v388h-176v-388h-88v388h-76l20 68h56v20q0 102 56.5 161t155.5 59q65 0 122 -26q53 42 134 42q53 0 96 -16l56 16v-712h-88v656h-84q-41 0 -68.5 -37t-27.5 -103v-60h116l-20 -68h-96v-388h-88zM172 500v-44h176v36q0 68 22 115l-82 33h-20q-41 0 -68.5 -37
t-27.5 -103z" />
    <glyph glyph-name="uniFEFF" unicode="&#xfeff;" horiz-adv-x="0" 
 />
    <glyph glyph-name="i.latn_TRK" horiz-adv-x="248" 
d="M80 0v444l88 24v-468h-88zM128 588q-26 0 -41 15.5t-15 40.5t15 40.5t41 15.5t41 -15.5t15 -40.5t-15 -40.5t-41 -15.5z" />
    <glyph glyph-name="Ldot.latn_CAT" horiz-adv-x="460" 
d="M88 0v644h96v-568h252l-32 -76h-316zM359 284q-21 0 -34.5 16t-13.5 40t13.5 40t34.5 16t34.5 -16t13.5 -40t-13.5 -40t-34.5 -16z" />
    <glyph glyph-name="ldot.latn_CAT" horiz-adv-x="312" 
d="M80 0v688l88 24v-712h-88zM276 288q-21 0 -34.5 16t-13.5 40t13.5 40t34.5 16t34.5 -16t13.5 -40t-13.5 -40t-34.5 -16z" />
    <glyph glyph-name="dollar.subs" horiz-adv-x="384" 
d="M128 -224l12 57q-40 3 -76 15l-8 76q44 -31 96 -35l20 96l-32 15q-36 17 -54 38t-18 54q0 45 40.5 74.5t103.5 29.5h6l14 64h28l-15 -66q35 -5 71 -22v-68q-36 28 -83 34l-20 -96l31 -14q38 -17 57 -39t19 -57q0 -48 -41 -74t-107 -26h-4l-12 -56h-28zM244 -72
q0 24 -46 45l-18 -85q64 2 64 40zM144 96q0 -14 10 -22.5t33 -19.5l19 86q-28 -1 -45 -13t-17 -31z" />
    <glyph glyph-name="comma.subs" horiz-adv-x="208" 
d="M84 -280l-32 28q52 40 52 84h-12q-18 0 -31 14.5t-13 37.5q0 22 14.5 37t37.5 15q60 0 60 -76q0 -79 -76 -140z" />
    <glyph glyph-name="hyphen.subs" horiz-adv-x="253" 
d="M36 -12l-4 68l184 16l4 -68z" />
    <glyph glyph-name="period.subs" horiz-adv-x="208" 
d="M104 -168q-24 0 -40 15t-16 37t16 37t40 15t40 -15t16 -37t-16 -37t-40 -15z" />
    <glyph glyph-name="b.subs" horiz-adv-x="448" 
d="M68 -168v532l80 16v-228q46 44 108 44q75 0 115.5 -44.5t40.5 -123.5q0 -90 -52.5 -143t-139.5 -53q-51 0 -90 15zM220 140q-43 0 -72 -20v-220q26 -20 72 -20t77 36t31 96q0 128 -108 128z" />
    <glyph glyph-name="c.subs" horiz-adv-x="364" 
d="M336 -80l-16 -64q-43 -24 -108 -24q-78 0 -127 46t-49 130q0 87 54 137.5t134 50.5q74 0 128 -56l-52 -56l-68 60h-8q-40 0 -72 -34t-32 -90q0 -124 112 -124q59 0 104 24z" />
    <glyph glyph-name="d.subs" horiz-adv-x="452" 
d="M304 -168v44q-41 -44 -108 -44q-73 0 -116.5 47t-43.5 129q0 85 54.5 136.5t137.5 51.5q44 0 76 -16v184l80 16v-532zM232 -112q44 0 72 16v164q0 37 -23.5 56.5t-56.5 19.5q-46 0 -75 -33t-29 -91q0 -132 112 -132z" />
    <glyph glyph-name="f.subs" horiz-adv-x="248" 
d="M12 128l20 56h44v32q0 82 42.5 125t125.5 43q55 0 100 -20l-28 -60l-72 32h-12q-31 0 -53.5 -27t-22.5 -77v-48h96l-20 -56h-76v-288h-80v288h-64z" />
    <glyph glyph-name="g.subs" horiz-adv-x="432" 
d="M304 184h128l-16 -60h-52q4 -19 4 -40q0 -63 -47.5 -99.5t-116.5 -36.5q-24 0 -51 5q-17 -13 -17 -29q0 -36 64 -36h88q49 0 80.5 -22t31.5 -62q0 -57 -62 -98.5t-154 -41.5q-68 0 -110 22.5t-42 69.5q0 26 21.5 49.5t55.5 36.5q-41 19 -41 54q0 19 15.5 37.5t37.5 29.5
q-77 34 -77 109q0 56 48 90t120 34q46 0 92 -12zM284 132q-28 16 -72 16q-41 0 -66.5 -19.5t-25.5 -56.5q0 -35 22 -55.5t62 -20.5q43 0 65.5 24t22.5 60t-8 52zM260 -176l-121 3q-31 -21 -31 -51q0 -64 92 -64q57 0 88.5 20t31.5 52q0 21 -13.5 30t-46.5 10z" />
    <glyph glyph-name="i.subs" horiz-adv-x="216" 
d="M68 -160v336l80 20v-356h-80zM108 280q-23 0 -37.5 14t-14.5 34t14.5 34t37.5 14t37.5 -14t14.5 -34t-14.5 -34t-37.5 -14z" />
    <glyph glyph-name="j.subs" horiz-adv-x="216" 
d="M-12 -336l-24 60q58 0 81 23.5t23 76.5v352l80 20v-368q0 -164 -160 -164zM108 280q-23 0 -37.5 14t-14.5 34t14.5 34t37.5 14t37.5 -14t14.5 -34t-14.5 -34t-37.5 -14z" />
    <glyph glyph-name="q.subs" horiz-adv-x="452" 
d="M304 -336v212q-41 -44 -108 -44q-73 0 -116.5 47t-43.5 129q0 87 55 137.5t141 50.5q41 0 84 -17l68 17v-512zM232 -112q44 0 72 16v216q-28 24 -76 24q-46 0 -77 -33t-31 -91q0 -67 30 -99.5t82 -32.5z" />
    <glyph glyph-name="r.subs" horiz-adv-x="292" 
d="M68 -160v336l80 20v-72q44 72 96 72q26 0 48 -20l-32 -76l-52 24q-22 0 -60 -52v-232h-80z" />
    <glyph glyph-name="u.subs" horiz-adv-x="448" 
d="M380 196v-344l-80 -20v48q-54 -48 -116 -48q-55 0 -85.5 27t-30.5 81v236l80 20v-228q0 -43 15.5 -61.5t52.5 -18.5q39 0 84 36v252z" />
    <glyph glyph-name="v.subs" horiz-adv-x="356" 
d="M140 -168l-128 352h84l88 -256l96 256h76l-140 -336z" />
    <glyph glyph-name="w.subs" horiz-adv-x="556" 
d="M340 -168l-61 177l-75 -161l-64 -16l-128 352h84l88 -256l70 155l-34 101h84l80 -256l96 256h76l-140 -336z" />
    <glyph glyph-name="y.subs" horiz-adv-x="356" 
d="M24 -336l-32 68h44q36 0 64.5 23t44.5 64l-133 365h84l89 -257l95 257h76l-152 -364q-14 -35 -26.5 -57.5t-33.5 -48t-51 -38t-69 -12.5z" />
    <glyph glyph-name="z.subs" horiz-adv-x="344" 
d="M28 -160v32l184 252h-180l20 60h264v-32l-184 -252h192l-20 -60h-276z" />
    <glyph glyph-name="cent.subs" horiz-adv-x="384" 
d="M212 -232v65q-84 6 -134 52.5t-50 122.5q0 79 52 129.5t132 57.5v61h32v-60q63 -3 112 -28v-68q-49 33 -112 36v-244q66 1 112 32v-64q-43 -27 -112 -28v-64h-32zM112 12q0 -47 27 -79.5t73 -39.5v241q-47 -7 -73.5 -40t-26.5 -82z" />
    <glyph glyph-name="Euro.subs" horiz-adv-x="384" 
d="M12 32v32h43q18 62 73 97t128 35q68 0 120 -28v-68q-52 36 -120 36q-87 0 -115 -72h147v-32h-155q-1 -7 -1 -20q0 -17 2 -24h154v-32h-144q30 -64 112 -64q71 0 120 32v-64q-44 -28 -120 -28q-78 0 -131.5 32.5t-69.5 91.5h-43v32h37q-1 6 -1 20q0 16 1 24h-37z" />
    <glyph glyph-name="dollar.sups" horiz-adv-x="384" 
d="M128 396l12 57q-40 3 -76 15l-8 76q44 -31 96 -35l20 96l-32 15q-36 17 -54 38t-18 54q0 45 40.5 74.5t103.5 29.5h6l14 64h28l-15 -66q35 -5 71 -22v-68q-36 28 -83 34l-20 -96l31 -14q38 -17 57 -39t19 -57q0 -48 -41 -74t-107 -26h-4l-12 -56h-28zM244 548
q0 24 -46 45l-18 -85q64 2 64 40zM144 716q0 -14 10 -22.5t33 -19.5l19 86q-28 -1 -45 -13t-17 -31z" />
    <glyph glyph-name="comma.sups" horiz-adv-x="208" 
d="M84 340l-32 28q52 40 52 84h-12q-18 0 -31 14.5t-13 37.5q0 22 14.5 37t37.5 15q60 0 60 -76q0 -79 -76 -140z" />
    <glyph glyph-name="hyphen.sups" horiz-adv-x="253" 
d="M36 608l-4 68l184 16l4 -68z" />
    <glyph glyph-name="period.sups" horiz-adv-x="208" 
d="M104 452q-24 0 -40 15t-16 37t16 37t40 15t40 -15t16 -37t-16 -37t-40 -15z" />
    <glyph glyph-name="a.sups" horiz-adv-x="384" 
d="M356 460q-20 -8 -56 -8q-49 0 -65 39q-41 -39 -107 -39q-46 0 -73 22t-27 62q0 71 112 100l92 24v52q0 27 -10 39.5t-34 12.5q-30 0 -76 -40l-36 -32l-44 52q87 72 180 72q52 0 76.5 -23t23.5 -65l-4 -184q-1 -25 8.5 -31.5t47.5 -8.5zM160 504q38 0 72 17v99l-64 -20
q-60 -18 -60 -56q0 -40 52 -40z" />
    <glyph glyph-name="b.sups" horiz-adv-x="448" 
d="M68 452v532l80 16v-228q46 44 108 44q75 0 115.5 -44.5t40.5 -123.5q0 -90 -52.5 -143t-139.5 -53q-51 0 -90 15zM220 760q-43 0 -72 -20v-220q26 -20 72 -20t77 36t31 96q0 128 -108 128z" />
    <glyph glyph-name="c.sups" horiz-adv-x="364" 
d="M336 540l-16 -64q-43 -24 -108 -24q-78 0 -127 46t-49 130q0 87 54 137.5t134 50.5q74 0 128 -56l-52 -56l-68 60h-8q-40 0 -72 -34t-32 -90q0 -124 112 -124q59 0 104 24z" />
    <glyph glyph-name="d.sups" horiz-adv-x="452" 
d="M304 452v44q-41 -44 -108 -44q-73 0 -116.5 47t-43.5 129q0 85 54.5 136.5t137.5 51.5q44 0 76 -16v184l80 16v-532zM232 508q44 0 72 16v164q0 37 -23.5 56.5t-56.5 19.5q-46 0 -75 -33t-29 -91q0 -132 112 -132z" />
    <glyph glyph-name="e.sups" horiz-adv-x="392" 
d="M348 536l-20 -68q-35 -16 -108 -16q-89 0 -136.5 46t-47.5 138q0 79 50 129.5t130 50.5q69 0 106.5 -30t37.5 -84q0 -29 -12 -62l-232 -5v-11q0 -51 31 -81.5t85 -30.5q64 0 116 24zM216 764q-77 0 -95 -84l159 4q4 14 4 22q0 27 -18 42.5t-50 15.5z" />
    <glyph glyph-name="f.sups" horiz-adv-x="248" 
d="M12 748l20 56h44v32q0 82 42.5 125t125.5 43q55 0 100 -20l-28 -60l-72 32h-12q-31 0 -53.5 -27t-22.5 -77v-48h96l-20 -56h-76v-288h-80v288h-64z" />
    <glyph glyph-name="g.sups" horiz-adv-x="432" 
d="M304 804h128l-16 -60h-52q4 -19 4 -40q0 -63 -47.5 -99.5t-116.5 -36.5q-24 0 -51 5q-17 -13 -17 -29q0 -36 64 -36h88q49 0 80.5 -22t31.5 -62q0 -57 -62 -98.5t-154 -41.5q-68 0 -110 22.5t-42 69.5q0 26 21.5 49.5t55.5 36.5q-41 19 -41 54q0 19 15.5 37.5t37.5 29.5
q-77 34 -77 109q0 56 48 90t120 34q46 0 92 -12zM284 752q-28 16 -72 16q-41 0 -66.5 -19.5t-25.5 -56.5q0 -35 22 -55.5t62 -20.5q43 0 65.5 24t22.5 60t-8 52zM260 444l-121 3q-31 -21 -31 -51q0 -64 92 -64q57 0 88.5 20t31.5 52q0 21 -13.5 30t-46.5 10z" />
    <glyph glyph-name="h.sups" horiz-adv-x="448" 
d="M300 460v220q0 43 -15.5 61.5t-52.5 18.5q-39 0 -84 -36v-264h-80v524l80 20v-236q54 48 116 48q55 0 85.5 -27t30.5 -81v-248h-80z" />
    <glyph glyph-name="j.sups" horiz-adv-x="216" 
d="M-12 284l-24 60q58 0 81 23.5t23 76.5v352l80 20v-368q0 -164 -160 -164zM108 900q-23 0 -37.5 14t-14.5 34t14.5 34t37.5 14t37.5 -14t14.5 -34t-14.5 -34t-37.5 -14z" />
    <glyph glyph-name="k.sups" horiz-adv-x="400" 
d="M68 460v524l80 20v-544h-80zM300 460q-40 43 -140 184l140 160h100l-156 -152l152 -192h-96z" />
    <glyph glyph-name="l.sups" horiz-adv-x="216" 
d="M68 460v524l80 20v-544h-80z" />
    <glyph glyph-name="m.sups" horiz-adv-x="668" 
d="M292 460v220q0 44 -13 62t-47 18q-39 0 -84 -36v-264h-80v336l80 20v-48q56 48 112 48q77 0 102 -54q56 54 126 54q112 0 112 -108v-248h-80v220q0 43 -14.5 61.5t-49.5 18.5q-41 0 -85 -37q1 -5 1 -15v-248h-80z" />
    <glyph glyph-name="o.sups" horiz-adv-x="432" 
d="M204 452q-81 0 -124.5 45.5t-43.5 130.5q0 88 52 138t140 50q81 0 124.5 -45.5t43.5 -130.5q0 -88 -52 -138t-140 -50zM216 504q43 0 69.5 34.5t26.5 93.5q0 132 -96 132q-43 0 -69.5 -34.5t-26.5 -93.5q0 -132 96 -132z" />
    <glyph glyph-name="p.sups" horiz-adv-x="448" 
d="M68 284v512l80 20v-44q46 44 108 44q73 0 114.5 -44.5t41.5 -123.5q0 -90 -53 -143t-139 -53q-36 0 -72 16v-164zM220 760q-39 0 -72 -20v-164q0 -37 21.5 -56.5t54.5 -19.5q46 0 75 35.5t29 96.5q0 128 -108 128z" />
    <glyph glyph-name="q.sups" horiz-adv-x="452" 
d="M304 284v212q-41 -44 -108 -44q-73 0 -116.5 47t-43.5 129q0 87 55 137.5t141 50.5q41 0 84 -17l68 17v-512zM232 508q44 0 72 16v216q-28 24 -76 24q-46 0 -77 -33t-31 -91q0 -67 30 -99.5t82 -32.5z" />
    <glyph glyph-name="r.sups" horiz-adv-x="292" 
d="M68 460v336l80 20v-72q44 72 96 72q26 0 48 -20l-32 -76l-52 24q-22 0 -60 -52v-232h-80z" />
    <glyph glyph-name="s.sups" horiz-adv-x="340" 
d="M32 480l28 56q52 -28 104 -28q64 0 64 40q0 18 -12 27.5t-40 20.5l-52 20q-80 31 -80 96q0 50 40 77t100 27q63 0 120 -24l-24 -60q-58 28 -96 28q-60 0 -60 -40q0 -29 40 -44l52 -20q30 -12 46.5 -21t31 -29.5t14.5 -49.5q0 -51 -39 -77.5t-105 -26.5q-79 0 -132 28z
" />
    <glyph glyph-name="t.sups" horiz-adv-x="272" 
d="M8 748l20 56h48v72l84 32l-4 -104h100l-20 -56h-80v-188q0 -28 8.5 -40t31.5 -12q32 0 64 16l-16 -60q-34 -12 -68 -12q-52 0 -76 24t-24 80v192h-68z" />
    <glyph glyph-name="u.sups" horiz-adv-x="448" 
d="M380 816v-344l-80 -20v48q-54 -48 -116 -48q-55 0 -85.5 27t-30.5 81v236l80 20v-228q0 -43 15.5 -61.5t52.5 -18.5q39 0 84 36v252z" />
    <glyph glyph-name="v.sups" horiz-adv-x="356" 
d="M140 452l-128 352h84l88 -256l96 256h76l-140 -336z" />
    <glyph glyph-name="w.sups" horiz-adv-x="556" 
d="M340 452l-61 177l-75 -161l-64 -16l-128 352h84l88 -256l70 155l-34 101h84l80 -256l96 256h76l-140 -336z" />
    <glyph glyph-name="x.sups" horiz-adv-x="344" 
d="M248 460l-83 118l-85 -118h-76l126 168l-122 176h88l79 -114l81 114h80l-125 -165l125 -179h-88z" />
    <glyph glyph-name="y.sups" horiz-adv-x="356" 
d="M24 284l-32 68h44q36 0 64.5 23t44.5 64l-133 365h84l89 -257l95 257h76l-152 -364q-14 -35 -26.5 -57.5t-33.5 -48t-51 -38t-69 -12.5z" />
    <glyph glyph-name="z.sups" horiz-adv-x="344" 
d="M28 460v32l184 252h-180l20 60h264v-32l-184 -252h192l-20 -60h-276z" />
    <glyph glyph-name="cent.sups" horiz-adv-x="384" 
d="M212 388v65q-84 6 -134 52.5t-50 122.5q0 79 52 129.5t132 57.5v61h32v-60q63 -3 112 -28v-68q-49 33 -112 36v-244q66 1 112 32v-64q-43 -27 -112 -28v-64h-32zM112 632q0 -47 27 -79.5t73 -39.5v241q-47 -7 -73.5 -40t-26.5 -82z" />
    <glyph glyph-name="egrave.sups" horiz-adv-x="392" 
d="M266 869l-31 -23l-119 127l52 37zM348 536l-20 -68q-35 -16 -108 -16q-89 0 -136.5 46t-47.5 138q0 79 50 129.5t130 50.5q69 0 106.5 -30t37.5 -84q0 -29 -12 -62l-232 -5v-11q0 -51 31 -81.5t85 -30.5q64 0 116 24zM216 764q-77 0 -95 -84l159 4q4 14 4 22
q0 27 -18 42.5t-50 15.5z" />
    <glyph glyph-name="Euro.sups" horiz-adv-x="384" 
d="M12 652v32h43q18 62 73 97t128 35q68 0 120 -28v-68q-52 36 -120 36q-87 0 -115 -72h147v-32h-155q-1 -7 -1 -20q0 -17 2 -24h154v-32h-144q30 -64 112 -64q71 0 120 32v-64q-44 -28 -120 -28q-78 0 -131.5 32.5t-69.5 91.5h-43v32h37q-1 6 -1 20q0 16 1 24h-37z" />
    <glyph glyph-name="dollar.numr" horiz-adv-x="384" 
d="M128 236l12 57q-40 3 -76 15l-8 76q44 -31 96 -35l20 96l-32 15q-36 17 -54 38t-18 54q0 45 40.5 74.5t103.5 29.5h6l14 64h28l-15 -66q35 -5 71 -22v-68q-36 28 -83 34l-20 -96l31 -14q38 -17 57 -39t19 -57q0 -48 -41 -74t-107 -26h-4l-12 -56h-28zM244 388
q0 24 -46 45l-18 -85q64 2 64 40zM144 556q0 -14 10 -22.5t33 -19.5l19 86q-28 -1 -45 -13t-17 -31z" />
    <glyph glyph-name="parenleft.numr" horiz-adv-x="248" 
d="M240 248l-48 -16q-67 33 -101.5 94.5t-34.5 137.5q0 77 35 144.5t101 99.5l48 -16q-54 -36 -85 -98t-31 -130q0 -66 30.5 -123t85.5 -93z" />
    <glyph glyph-name="parenright.numr" horiz-adv-x="248" 
d="M56 232l-48 16q55 36 85.5 96t30.5 128q0 67 -30.5 125.5t-85.5 94.5l48 16q67 -33 101.5 -96t34.5 -140t-35 -142t-101 -98z" />
    <glyph glyph-name="plus.numr" horiz-adv-x="384" 
d="M36 464v56h120v112h68v-112h124v-56h-124v-116h-68v116h-120z" />
    <glyph glyph-name="comma.numr" horiz-adv-x="208" 
d="M84 180l-32 28q52 40 52 84h-12q-18 0 -31 14.5t-13 37.5q0 22 14.5 37t37.5 15q60 0 60 -76q0 -79 -76 -140z" />
    <glyph glyph-name="hyphen.numr" horiz-adv-x="253" 
d="M36 448l-4 68l184 16l4 -68z" />
    <glyph glyph-name="period.numr" horiz-adv-x="208" 
d="M104 292q-24 0 -40 15t-16 37t16 37t40 15t40 -15t16 -37t-16 -37t-40 -15z" />
    <glyph glyph-name="zero.numr" horiz-adv-x="384" 
d="M192 292q-77 0 -122.5 46t-45.5 134q0 85 46 134.5t122 49.5q77 0 122.5 -46t45.5 -134q0 -85 -46 -134.5t-122 -49.5zM192 344q42 0 65 34t23 98q0 61 -23.5 94.5t-64.5 33.5q-42 0 -65 -34t-23 -98q0 -61 23.5 -94.5t64.5 -33.5z" />
    <glyph glyph-name="one.numr" horiz-adv-x="384" 
d="M168 300v260l-96 -16v40l176 72v-356h-80z" />
    <glyph glyph-name="two.numr" horiz-adv-x="384" 
d="M48 300l-20 32l100 84q60 50 78 71t18 45q0 56 -76 56q-54 0 -100 -28l20 80q39 16 104 16q63 0 99.5 -27t36.5 -77q0 -23 -10.5 -45t-34 -44t-37.5 -33t-46 -34l-44 -32h204v-64h-292z" />
    <glyph glyph-name="three.numr" horiz-adv-x="384" 
d="M60 572l24 72q35 12 100 12q60 0 92 -23.5t32 -60.5q0 -28 -21 -49.5t-51 -31.5q40 -8 64 -29.5t24 -53.5q0 -60 -51 -88t-123 -28q-61 0 -106 16v60q49 -20 100 -20q45 0 72.5 13.5t27.5 38.5q0 48 -92 48h-72l24 52h76q21 10 34.5 24.5t13.5 27.5q0 17 -18.5 28.5
t-53.5 11.5q-53 0 -96 -20z" />
    <glyph glyph-name="four.numr" horiz-adv-x="384" 
d="M24 380l-12 48l180 208l92 20v-220h72l-12 -56h-60v-80h-76v80h-184zM84 436h124v147z" />
    <glyph glyph-name="five.numr" horiz-adv-x="384" 
d="M52 308v60q51 -20 96 -20q42 0 67 15.5t25 44.5q0 60 -120 60h-48l12 180h240l-16 -60h-169l-6 -64h23q70 0 117 -26t47 -86q0 -59 -52.5 -89.5t-123.5 -30.5q-50 0 -92 16z" />
    <glyph glyph-name="six.numr" horiz-adv-x="384" 
d="M168 488v28q25 16 60 16q57 0 88.5 -30.5t31.5 -77.5q0 -61 -39.5 -96.5t-108.5 -35.5q-77 0 -116.5 44t-39.5 116q0 88 60 146t160 58q60 0 84 -16v-36h-76q-148 0 -148 -148q0 -116 80 -116q28 0 48 19.5t20 52.5q0 37 -21.5 56.5t-58.5 19.5h-24z" />
    <glyph glyph-name="seven.numr" horiz-adv-x="384" 
d="M84 312l184 272h-224l12 64h284l12 -28l-200 -332z" />
    <glyph glyph-name="eight.numr" horiz-adv-x="384" 
d="M112 464l15 6l-3 2q-24 14 -35.5 22.5t-22 25.5t-10.5 40q0 42 40.5 69t103.5 27q61 0 96.5 -24.5t35.5 -63.5q0 -25 -14.5 -42.5t-49.5 -37.5l-12 -7l12 -5q41 -17 56.5 -37.5t15.5 -50.5q0 -46 -41.5 -71t-114.5 -25q-66 0 -103 24t-37 64q0 57 68 84zM212 432l-35 16
l-25 -16q-32 -20 -32 -48q0 -23 20.5 -35.5t51.5 -12.5q33 0 52.5 13.5t19.5 34.5q0 15 -12 25t-40 23zM132 564q0 -16 10.5 -26t37.5 -22l27 -12l17 12q36 26 36 48q0 19 -18 33.5t-46 14.5q-29 0 -46.5 -14t-17.5 -34z" />
    <glyph glyph-name="nine.numr" horiz-adv-x="384" 
d="M44 308v36h76q148 0 148 148q0 116 -80 116q-28 0 -48 -19.5t-20 -52.5q0 -37 21.5 -56.5t58.5 -19.5h24v-28q-25 -16 -60 -16q-57 0 -88.5 30.5t-31.5 77.5q0 61 39.5 96.5t108.5 35.5q77 0 116.5 -44t39.5 -116q0 -88 -60 -146t-160 -58q-60 0 -84 16z" />
    <glyph glyph-name="equal.numr" horiz-adv-x="384" 
d="M36 520v56h312v-56h-312zM36 380v56h312v-56h-312z" />
    <glyph glyph-name="a.numr" horiz-adv-x="384" 
d="M356 300q-20 -8 -56 -8q-49 0 -65 39q-41 -39 -107 -39q-46 0 -73 22t-27 62q0 71 112 100l92 24v52q0 27 -10 39.5t-34 12.5q-30 0 -76 -40l-36 -32l-44 52q87 72 180 72q52 0 76.5 -23t23.5 -65l-4 -184q-1 -25 8.5 -31.5t47.5 -8.5zM160 344q38 0 72 17v99l-64 -20
q-60 -18 -60 -56q0 -40 52 -40z" />
    <glyph glyph-name="b.numr" horiz-adv-x="448" 
d="M68 292v532l80 16v-228q46 44 108 44q75 0 115.5 -44.5t40.5 -123.5q0 -90 -52.5 -143t-139.5 -53q-51 0 -90 15zM220 600q-43 0 -72 -20v-220q26 -20 72 -20t77 36t31 96q0 128 -108 128z" />
    <glyph glyph-name="c.numr" horiz-adv-x="364" 
d="M336 380l-16 -64q-43 -24 -108 -24q-78 0 -127 46t-49 130q0 87 54 137.5t134 50.5q74 0 128 -56l-52 -56l-68 60h-8q-40 0 -72 -34t-32 -90q0 -124 112 -124q59 0 104 24z" />
    <glyph glyph-name="d.numr" horiz-adv-x="452" 
d="M304 292v44q-41 -44 -108 -44q-73 0 -116.5 47t-43.5 129q0 85 54.5 136.5t137.5 51.5q44 0 76 -16v184l80 16v-532zM232 348q44 0 72 16v164q0 37 -23.5 56.5t-56.5 19.5q-46 0 -75 -33t-29 -91q0 -132 112 -132z" />
    <glyph glyph-name="e.numr" horiz-adv-x="392" 
d="M348 376l-20 -68q-35 -16 -108 -16q-89 0 -136.5 46t-47.5 138q0 79 50 129.5t130 50.5q69 0 106.5 -30t37.5 -84q0 -29 -12 -62l-232 -5v-11q0 -51 31 -81.5t85 -30.5q64 0 116 24zM216 604q-77 0 -95 -84l159 4q4 14 4 22q0 27 -18 42.5t-50 15.5z" />
    <glyph glyph-name="f.numr" horiz-adv-x="248" 
d="M12 588l20 56h44v32q0 82 42.5 125t125.5 43q55 0 100 -20l-28 -60l-72 32h-12q-31 0 -53.5 -27t-22.5 -77v-48h96l-20 -56h-76v-288h-80v288h-64z" />
    <glyph glyph-name="g.numr" horiz-adv-x="432" 
d="M304 644h128l-16 -60h-52q4 -19 4 -40q0 -63 -47.5 -99.5t-116.5 -36.5q-24 0 -51 5q-17 -13 -17 -29q0 -36 64 -36h88q49 0 80.5 -22t31.5 -62q0 -57 -62 -98.5t-154 -41.5q-68 0 -110 22.5t-42 69.5q0 26 21.5 49.5t55.5 36.5q-41 19 -41 54q0 19 15.5 37.5t37.5 29.5
q-77 34 -77 109q0 56 48 90t120 34q46 0 92 -12zM284 592q-28 16 -72 16q-41 0 -66.5 -19.5t-25.5 -56.5q0 -35 22 -55.5t62 -20.5q43 0 65.5 24t22.5 60t-8 52zM260 284l-121 3q-31 -21 -31 -51q0 -64 92 -64q57 0 88.5 20t31.5 52q0 21 -13.5 30t-46.5 10z" />
    <glyph glyph-name="h.numr" horiz-adv-x="448" 
d="M300 300v220q0 43 -15.5 61.5t-52.5 18.5q-39 0 -84 -36v-264h-80v524l80 20v-236q54 48 116 48q55 0 85.5 -27t30.5 -81v-248h-80z" />
    <glyph glyph-name="i.numr" horiz-adv-x="216" 
d="M68 300v336l80 20v-356h-80zM108 740q-23 0 -37.5 14t-14.5 34t14.5 34t37.5 14t37.5 -14t14.5 -34t-14.5 -34t-37.5 -14z" />
    <glyph glyph-name="j.numr" horiz-adv-x="216" 
d="M-12 124l-24 60q58 0 81 23.5t23 76.5v352l80 20v-368q0 -164 -160 -164zM108 740q-23 0 -37.5 14t-14.5 34t14.5 34t37.5 14t37.5 -14t14.5 -34t-14.5 -34t-37.5 -14z" />
    <glyph glyph-name="k.numr" horiz-adv-x="400" 
d="M68 300v524l80 20v-544h-80zM300 300q-40 43 -140 184l140 160h100l-156 -152l152 -192h-96z" />
    <glyph glyph-name="l.numr" horiz-adv-x="216" 
d="M68 300v524l80 20v-544h-80z" />
    <glyph glyph-name="m.numr" horiz-adv-x="668" 
d="M292 300v220q0 44 -13 62t-47 18q-39 0 -84 -36v-264h-80v336l80 20v-48q56 48 112 48q77 0 102 -54q56 54 126 54q112 0 112 -108v-248h-80v220q0 43 -14.5 61.5t-49.5 18.5q-41 0 -85 -37q1 -5 1 -15v-248h-80z" />
    <glyph glyph-name="n.numr" horiz-adv-x="448" 
d="M300 300v220q0 43 -15.5 61.5t-52.5 18.5q-39 0 -84 -36v-264h-80v336l80 20v-48q54 48 116 48q55 0 85.5 -27t30.5 -81v-248h-80z" />
    <glyph glyph-name="o.numr" horiz-adv-x="432" 
d="M204 292q-81 0 -124.5 45.5t-43.5 130.5q0 88 52 138t140 50q81 0 124.5 -45.5t43.5 -130.5q0 -88 -52 -138t-140 -50zM216 344q43 0 69.5 34.5t26.5 93.5q0 132 -96 132q-43 0 -69.5 -34.5t-26.5 -93.5q0 -132 96 -132z" />
    <glyph glyph-name="p.numr" horiz-adv-x="448" 
d="M68 124v512l80 20v-44q46 44 108 44q73 0 114.5 -44.5t41.5 -123.5q0 -90 -53 -143t-139 -53q-36 0 -72 16v-164zM220 600q-39 0 -72 -20v-164q0 -37 21.5 -56.5t54.5 -19.5q46 0 75 35.5t29 96.5q0 128 -108 128z" />
    <glyph glyph-name="q.numr" horiz-adv-x="452" 
d="M304 124v212q-41 -44 -108 -44q-73 0 -116.5 47t-43.5 129q0 87 55 137.5t141 50.5q41 0 84 -17l68 17v-512zM232 348q44 0 72 16v216q-28 24 -76 24q-46 0 -77 -33t-31 -91q0 -67 30 -99.5t82 -32.5z" />
    <glyph glyph-name="r.numr" horiz-adv-x="292" 
d="M68 300v336l80 20v-72q44 72 96 72q26 0 48 -20l-32 -76l-52 24q-22 0 -60 -52v-232h-80z" />
    <glyph glyph-name="s.numr" horiz-adv-x="340" 
d="M32 320l28 56q52 -28 104 -28q64 0 64 40q0 18 -12 27.5t-40 20.5l-52 20q-80 31 -80 96q0 50 40 77t100 27q63 0 120 -24l-24 -60q-58 28 -96 28q-60 0 -60 -40q0 -29 40 -44l52 -20q30 -12 46.5 -21t31 -29.5t14.5 -49.5q0 -51 -39 -77.5t-105 -26.5q-79 0 -132 28z
" />
    <glyph glyph-name="t.numr" horiz-adv-x="272" 
d="M8 588l20 56h48v72l84 32l-4 -104h100l-20 -56h-80v-188q0 -28 8.5 -40t31.5 -12q32 0 64 16l-16 -60q-34 -12 -68 -12q-52 0 -76 24t-24 80v192h-68z" />
    <glyph glyph-name="u.numr" horiz-adv-x="448" 
d="M380 656v-344l-80 -20v48q-54 -48 -116 -48q-55 0 -85.5 27t-30.5 81v236l80 20v-228q0 -43 15.5 -61.5t52.5 -18.5q39 0 84 36v252z" />
    <glyph glyph-name="v.numr" horiz-adv-x="356" 
d="M140 292l-128 352h84l88 -256l96 256h76l-140 -336z" />
    <glyph glyph-name="w.numr" horiz-adv-x="556" 
d="M340 292l-61 177l-75 -161l-64 -16l-128 352h84l88 -256l70 155l-34 101h84l80 -256l96 256h76l-140 -336z" />
    <glyph glyph-name="x.numr" horiz-adv-x="344" 
d="M248 300l-83 118l-85 -118h-76l126 168l-122 176h88l79 -114l81 114h80l-125 -165l125 -179h-88z" />
    <glyph glyph-name="y.numr" horiz-adv-x="356" 
d="M24 124l-32 68h44q36 0 64.5 23t44.5 64l-133 365h84l89 -257l95 257h76l-152 -364q-14 -35 -26.5 -57.5t-33.5 -48t-51 -38t-69 -12.5z" />
    <glyph glyph-name="z.numr" horiz-adv-x="344" 
d="M28 300v32l184 252h-180l20 60h264v-32l-184 -252h192l-20 -60h-276z" />
    <glyph glyph-name="cent.numr" horiz-adv-x="384" 
d="M212 228v65q-84 6 -134 52.5t-50 122.5q0 79 52 129.5t132 57.5v61h32v-60q63 -3 112 -28v-68q-49 33 -112 36v-244q66 1 112 32v-64q-43 -27 -112 -28v-64h-32zM112 472q0 -47 27 -79.5t73 -39.5v241q-47 -7 -73.5 -40t-26.5 -82z" />
    <glyph glyph-name="Euro.numr" horiz-adv-x="384" 
d="M12 492v32h43q18 62 73 97t128 35q68 0 120 -28v-68q-52 36 -120 36q-87 0 -115 -72h147v-32h-155q-1 -7 -1 -20q0 -17 2 -24h154v-32h-144q30 -64 112 -64q71 0 120 32v-64q-44 -28 -120 -28q-78 0 -131.5 32.5t-69.5 91.5h-43v32h37q-1 6 -1 20q0 16 1 24h-37z" />
    <glyph glyph-name="minus.numr" horiz-adv-x="384" 
d="M36 464v56h312v-56h-312z" />
    <glyph glyph-name="dollar.dnom" horiz-adv-x="384" 
d="M128 -64l12 57q-40 3 -76 15l-8 76q44 -31 96 -35l20 96l-32 15q-36 17 -54 38t-18 54q0 45 40.5 74.5t103.5 29.5h6l14 64h28l-15 -66q35 -5 71 -22v-68q-36 28 -83 34l-20 -96l31 -14q38 -17 57 -39t19 -57q0 -48 -41 -74t-107 -26h-4l-12 -56h-28zM244 88q0 24 -46 45
l-18 -85q64 2 64 40zM144 256q0 -14 10 -22.5t33 -19.5l19 86q-28 -1 -45 -13t-17 -31z" />
    <glyph glyph-name="parenleft.dnom" horiz-adv-x="248" 
d="M240 -52l-48 -16q-67 33 -101.5 94.5t-34.5 137.5q0 77 35 144.5t101 99.5l48 -16q-54 -36 -85 -98t-31 -130q0 -66 30.5 -123t85.5 -93z" />
    <glyph glyph-name="parenright.dnom" horiz-adv-x="248" 
d="M56 -68l-48 16q55 36 85.5 96t30.5 128q0 67 -30.5 125.5t-85.5 94.5l48 16q67 -33 101.5 -96t34.5 -140t-35 -142t-101 -98z" />
    <glyph glyph-name="plus.dnom" horiz-adv-x="384" 
d="M36 164v56h120v112h68v-112h124v-56h-124v-116h-68v116h-120z" />
    <glyph glyph-name="comma.dnom" horiz-adv-x="208" 
d="M84 -120l-32 28q52 40 52 84h-12q-18 0 -31 14.5t-13 37.5q0 22 14.5 37t37.5 15q60 0 60 -76q0 -79 -76 -140z" />
    <glyph glyph-name="hyphen.dnom" horiz-adv-x="253" 
d="M36 148l-4 68l184 16l4 -68z" />
    <glyph glyph-name="period.dnom" horiz-adv-x="208" 
d="M104 -8q-24 0 -40 15t-16 37t16 37t40 15t40 -15t16 -37t-16 -37t-40 -15z" />
    <glyph glyph-name="zero.dnom" horiz-adv-x="384" 
d="M192 -8q-77 0 -122.5 46t-45.5 134q0 85 46 134.5t122 49.5q77 0 122.5 -46t45.5 -134q0 -85 -46 -134.5t-122 -49.5zM192 44q42 0 65 34t23 98q0 61 -23.5 94.5t-64.5 33.5q-42 0 -65 -34t-23 -98q0 -61 23.5 -94.5t64.5 -33.5z" />
    <glyph glyph-name="one.dnom" horiz-adv-x="384" 
d="M168 0v260l-96 -16v40l176 72v-356h-80z" />
    <glyph glyph-name="two.dnom" horiz-adv-x="384" 
d="M48 0l-20 32l100 84q60 50 78 71t18 45q0 56 -76 56q-54 0 -100 -28l20 80q39 16 104 16q63 0 99.5 -27t36.5 -77q0 -23 -10.5 -45t-34 -44t-37.5 -33t-46 -34l-44 -32h204v-64h-292z" />
    <glyph glyph-name="three.dnom" horiz-adv-x="384" 
d="M60 272l24 72q35 12 100 12q60 0 92 -23.5t32 -60.5q0 -28 -21 -49.5t-51 -31.5q40 -8 64 -29.5t24 -53.5q0 -60 -51 -88t-123 -28q-61 0 -106 16v60q49 -20 100 -20q45 0 72.5 13.5t27.5 38.5q0 48 -92 48h-72l24 52h76q21 10 34.5 24.5t13.5 27.5q0 17 -18.5 28.5
t-53.5 11.5q-53 0 -96 -20z" />
    <glyph glyph-name="four.dnom" horiz-adv-x="384" 
d="M24 80l-12 48l180 208l92 20v-220h72l-12 -56h-60v-80h-76v80h-184zM84 136h124v147z" />
    <glyph glyph-name="five.dnom" horiz-adv-x="384" 
d="M52 8v60q51 -20 96 -20q42 0 67 15.5t25 44.5q0 60 -120 60h-48l12 180h240l-16 -60h-169l-6 -64h23q70 0 117 -26t47 -86q0 -59 -52.5 -89.5t-123.5 -30.5q-50 0 -92 16z" />
    <glyph glyph-name="six.dnom" horiz-adv-x="384" 
d="M168 188v28q25 16 60 16q57 0 88.5 -30.5t31.5 -77.5q0 -61 -39.5 -96.5t-108.5 -35.5q-77 0 -116.5 44t-39.5 116q0 88 60 146t160 58q60 0 84 -16v-36h-76q-148 0 -148 -148q0 -116 80 -116q28 0 48 19.5t20 52.5q0 37 -21.5 56.5t-58.5 19.5h-24z" />
    <glyph glyph-name="seven.dnom" horiz-adv-x="384" 
d="M84 12l184 272h-224l12 64h284l12 -28l-200 -332z" />
    <glyph glyph-name="eight.dnom" horiz-adv-x="384" 
d="M112 164l15 6l-3 2q-24 14 -35.5 22.5t-22 25.5t-10.5 40q0 42 40.5 69t103.5 27q61 0 96.5 -24.5t35.5 -63.5q0 -25 -14.5 -42.5t-49.5 -37.5l-12 -7l12 -5q41 -17 56.5 -37.5t15.5 -50.5q0 -46 -41.5 -71t-114.5 -25q-66 0 -103 24t-37 64q0 57 68 84zM212 132l-35 16
l-25 -16q-32 -20 -32 -48q0 -23 20.5 -35.5t51.5 -12.5q33 0 52.5 13.5t19.5 34.5q0 15 -12 25t-40 23zM132 264q0 -16 10.5 -26t37.5 -22l27 -12l17 12q36 25 36 48q0 19 -18 33.5t-46 14.5q-29 0 -46.5 -14t-17.5 -34z" />
    <glyph glyph-name="nine.dnom" horiz-adv-x="384" 
d="M44 8v36h76q148 0 148 148q0 116 -80 116q-28 0 -48 -19.5t-20 -52.5q0 -37 21.5 -56.5t58.5 -19.5h24v-28q-25 -16 -60 -16q-57 0 -88.5 30.5t-31.5 77.5q0 61 39.5 96.5t108.5 35.5q77 0 116.5 -44t39.5 -116q0 -88 -60 -146t-160 -58q-60 0 -84 16z" />
    <glyph glyph-name="equal.dnom" horiz-adv-x="384" 
d="M36 220v56h312v-56h-312zM36 80v56h312v-56h-312z" />
    <glyph glyph-name="a.dnom" horiz-adv-x="384" 
d="M356 0q-20 -8 -56 -8q-49 0 -65 39q-41 -39 -107 -39q-46 0 -73 22t-27 62q0 71 112 100l92 24v52q0 27 -10 39.5t-34 12.5q-30 0 -76 -40l-36 -32l-44 52q87 72 180 72q52 0 76.5 -23t23.5 -65l-4 -184q-1 -25 8.5 -31.5t47.5 -8.5zM160 44q38 0 72 17v99l-64 -20
q-60 -18 -60 -56q0 -40 52 -40z" />
    <glyph glyph-name="b.dnom" horiz-adv-x="448" 
d="M68 -8v532l80 16v-228q46 44 108 44q75 0 115.5 -44.5t40.5 -123.5q0 -90 -52.5 -143t-139.5 -53q-51 0 -90 15zM220 300q-43 0 -72 -20v-220q26 -20 72 -20t77 36t31 96q0 128 -108 128z" />
    <glyph glyph-name="c.dnom" horiz-adv-x="364" 
d="M336 80l-16 -64q-43 -24 -108 -24q-78 0 -127 46t-49 130q0 87 54 137.5t134 50.5q74 0 128 -56l-52 -56l-68 60h-8q-40 0 -72 -34t-32 -90q0 -124 112 -124q59 0 104 24z" />
    <glyph glyph-name="d.dnom" horiz-adv-x="452" 
d="M304 -8v44q-41 -44 -108 -44q-73 0 -116.5 47t-43.5 129q0 85 54.5 136.5t137.5 51.5q44 0 76 -16v184l80 16v-532zM232 48q44 0 72 16v164q0 37 -23.5 56.5t-56.5 19.5q-46 0 -75 -33t-29 -91q0 -132 112 -132z" />
    <glyph glyph-name="e.dnom" horiz-adv-x="392" 
d="M348 76l-20 -68q-35 -16 -108 -16q-89 0 -136.5 46t-47.5 138q0 79 50 129.5t130 50.5q69 0 106.5 -30t37.5 -84q0 -29 -12 -62l-232 -5v-11q0 -51 31 -81.5t85 -30.5q64 0 116 24zM216 304q-77 0 -95 -84l159 4q4 14 4 22q0 27 -18 42.5t-50 15.5z" />
    <glyph glyph-name="f.dnom" horiz-adv-x="248" 
d="M12 288l20 56h44v32q0 82 42.5 125t125.5 43q55 0 100 -20l-28 -60l-72 32h-12q-31 0 -53.5 -27t-22.5 -77v-48h96l-20 -56h-76v-288h-80v288h-64z" />
    <glyph glyph-name="g.dnom" horiz-adv-x="432" 
d="M304 344h128l-16 -60h-52q4 -19 4 -40q0 -63 -47.5 -99.5t-116.5 -36.5q-24 0 -51 5q-17 -13 -17 -29q0 -36 64 -36h88q49 0 80.5 -22t31.5 -62q0 -57 -62 -98.5t-154 -41.5q-68 0 -110 22.5t-42 69.5q0 26 21.5 49.5t55.5 36.5q-41 19 -41 54q0 19 15.5 37.5t37.5 29.5
q-77 34 -77 109q0 56 48 90t120 34q46 0 92 -12zM284 292q-28 16 -72 16q-41 0 -66.5 -19.5t-25.5 -56.5q0 -35 22 -55.5t62 -20.5q43 0 65.5 24t22.5 60t-8 52zM260 -16l-121 3q-31 -21 -31 -51q0 -64 92 -64q57 0 88.5 20t31.5 52q0 21 -13.5 30t-46.5 10z" />
    <glyph glyph-name="h.dnom" horiz-adv-x="448" 
d="M300 0v220q0 43 -15.5 61.5t-52.5 18.5q-39 0 -84 -36v-264h-80v524l80 20v-236q54 48 116 48q55 0 85.5 -27t30.5 -81v-248h-80z" />
    <glyph glyph-name="i.dnom" horiz-adv-x="216" 
d="M68 0v336l80 20v-356h-80zM108 440q-23 0 -37.5 14t-14.5 34t14.5 34t37.5 14t37.5 -14t14.5 -34t-14.5 -34t-37.5 -14z" />
    <glyph glyph-name="j.dnom" horiz-adv-x="216" 
d="M-12 -176l-24 60q58 0 81 23.5t23 76.5v352l80 20v-368q0 -164 -160 -164zM108 440q-23 0 -37.5 14t-14.5 34t14.5 34t37.5 14t37.5 -14t14.5 -34t-14.5 -34t-37.5 -14z" />
    <glyph glyph-name="k.dnom" horiz-adv-x="400" 
d="M68 0v524l80 20v-544h-80zM300 0q-40 43 -140 184l140 160h100l-156 -152l152 -192h-96z" />
    <glyph glyph-name="l.dnom" horiz-adv-x="216" 
d="M68 0v524l80 20v-544h-80z" />
    <glyph glyph-name="m.dnom" horiz-adv-x="668" 
d="M292 0v220q0 44 -13 62t-47 18q-39 0 -84 -36v-264h-80v336l80 20v-48q56 48 112 48q77 0 102 -54q56 54 126 54q112 0 112 -108v-248h-80v220q0 43 -14.5 61.5t-49.5 18.5q-41 0 -85 -37q1 -5 1 -15v-248h-80z" />
    <glyph glyph-name="n.dnom" horiz-adv-x="448" 
d="M300 0v220q0 43 -15.5 61.5t-52.5 18.5q-39 0 -84 -36v-264h-80v336l80 20v-48q54 48 116 48q55 0 85.5 -27t30.5 -81v-248h-80z" />
    <glyph glyph-name="o.dnom" horiz-adv-x="432" 
d="M204 -8q-81 0 -124.5 45.5t-43.5 130.5q0 88 52 138t140 50q81 0 124.5 -45.5t43.5 -130.5q0 -88 -52 -138t-140 -50zM216 44q43 0 69.5 34.5t26.5 93.5q0 132 -96 132q-43 0 -69.5 -34.5t-26.5 -93.5q0 -132 96 -132z" />
    <glyph glyph-name="p.dnom" horiz-adv-x="448" 
d="M68 -176v512l80 20v-44q46 44 108 44q73 0 114.5 -44.5t41.5 -123.5q0 -90 -53 -143t-139 -53q-36 0 -72 16v-164zM220 300q-39 0 -72 -20v-164q0 -37 21.5 -56.5t54.5 -19.5q46 0 75 35.5t29 96.5q0 128 -108 128z" />
    <glyph glyph-name="q.dnom" horiz-adv-x="452" 
d="M304 -176v212q-41 -44 -108 -44q-73 0 -116.5 47t-43.5 129q0 87 55 137.5t141 50.5q41 0 84 -17l68 17v-512zM232 48q44 0 72 16v216q-28 24 -76 24q-46 0 -77 -33t-31 -91q0 -67 30 -99.5t82 -32.5z" />
    <glyph glyph-name="r.dnom" horiz-adv-x="292" 
d="M68 0v336l80 20v-72q44 72 96 72q26 0 48 -20l-32 -76l-52 24q-22 0 -60 -52v-232h-80z" />
    <glyph glyph-name="s.dnom" horiz-adv-x="340" 
d="M32 20l28 56q52 -28 104 -28q64 0 64 40q0 18 -12 27.5t-40 20.5l-52 20q-80 31 -80 96q0 50 40 77t100 27q63 0 120 -24l-24 -60q-58 28 -96 28q-60 0 -60 -40q0 -29 40 -44l52 -20q30 -12 46.5 -21t31 -29.5t14.5 -49.5q0 -51 -39 -77.5t-105 -26.5q-79 0 -132 28z" />
    <glyph glyph-name="t.dnom" horiz-adv-x="272" 
d="M8 288l20 56h48v72l84 32l-4 -104h100l-20 -56h-80v-188q0 -28 8.5 -40t31.5 -12q32 0 64 16l-16 -60q-34 -12 -68 -12q-52 0 -76 24t-24 80v192h-68z" />
    <glyph glyph-name="u.dnom" horiz-adv-x="448" 
d="M380 356v-344l-80 -20v48q-54 -48 -116 -48q-55 0 -85.5 27t-30.5 81v236l80 20v-228q0 -43 15.5 -61.5t52.5 -18.5q39 0 84 36v252z" />
    <glyph glyph-name="v.dnom" horiz-adv-x="356" 
d="M140 -8l-128 352h84l88 -256l96 256h76l-140 -336z" />
    <glyph glyph-name="w.dnom" horiz-adv-x="556" 
d="M340 -8l-61 177l-75 -161l-64 -16l-128 352h84l88 -256l70 155l-34 101h84l80 -256l96 256h76l-140 -336z" />
    <glyph glyph-name="x.dnom" horiz-adv-x="344" 
d="M248 0l-83 118l-85 -118h-76l126 168l-122 176h88l79 -114l81 114h80l-125 -165l125 -179h-88z" />
    <glyph glyph-name="y.dnom" horiz-adv-x="356" 
d="M24 -176l-32 68h44q36 0 64.5 23t44.5 64l-133 365h84l89 -257l95 257h76l-152 -364q-14 -35 -26.5 -57.5t-33.5 -48t-51 -38t-69 -12.5z" />
    <glyph glyph-name="z.dnom" horiz-adv-x="344" 
d="M28 0v32l184 252h-180l20 60h264v-32l-184 -252h192l-20 -60h-276z" />
    <glyph glyph-name="cent.dnom" horiz-adv-x="384" 
d="M212 -72v65q-84 6 -134 52.5t-50 122.5q0 79 52 129.5t132 57.5v61h32v-60q63 -3 112 -28v-68q-49 33 -112 36v-244q66 1 112 32v-64q-43 -27 -112 -28v-64h-32zM112 172q0 -47 27 -79.5t73 -39.5v241q-47 -7 -73.5 -40t-26.5 -82z" />
    <glyph glyph-name="Euro.dnom" horiz-adv-x="384" 
d="M12 192v32h43q18 62 73 97t128 35q68 0 120 -28v-68q-52 36 -120 36q-87 0 -115 -72h147v-32h-155q-1 -7 -1 -20q0 -17 2 -24h154v-32h-144q30 -64 112 -64q71 0 120 32v-64q-44 -28 -120 -28q-78 0 -131.5 32.5t-69.5 91.5h-43v32h37q-1 6 -1 20q0 16 1 24h-37z" />
    <glyph glyph-name="minus.dnom" horiz-adv-x="384" 
d="M36 164v56h312v-56h-312z" />
    <glyph glyph-name="space.frac" horiz-adv-x="40" 
 />
    <glyph glyph-name="egrave.ordn" horiz-adv-x="392" 
d="M266 709l-31 -23l-119 127l52 37zM348 376l-20 -68q-35 -16 -108 -16q-89 0 -136.5 46t-47.5 138q0 79 50 129.5t130 50.5q69 0 106.5 -30t37.5 -84q0 -29 -12 -62l-232 -5v-11q0 -51 31 -81.5t85 -30.5q64 0 116 24zM216 604q-77 0 -95 -84l159 4q4 14 4 22
q0 27 -18 42.5t-50 15.5z" />
    <glyph glyph-name="dollar.tf" 
d="M172 -104l14 95q-60 6 -106 29l-12 112q56 -49 130 -61l30 208l-36 25q-55 38 -83.5 76.5t-28.5 91.5q0 80 58 132t146 52l12 80h36l-12 -82q63 -8 104 -38v-104q-47 52 -115 62l-31 -218l38 -24q62 -39 89 -76t27 -92q0 -80 -55.5 -128t-144.5 -48h-7l-13 -92h-40z
M176 484q0 -34 16 -57t51 -48l29 197q-43 -2 -69.5 -25.5t-26.5 -66.5zM336 156q0 24 -12.5 44.5t-24.5 29.5t-36 25l-27 -187q43 1 71.5 23.5t28.5 64.5z" />
    <glyph glyph-name="zero.tf" 
d="M252 -12q-109 0 -168.5 85.5t-59.5 246.5q0 154 60.5 245t167.5 91q109 0 168.5 -84t59.5 -244q0 -155 -60.5 -247.5t-167.5 -92.5zM252 64q64 0 98 66t34 194q0 256 -132 256t-132 -256q0 -128 34 -194t98 -66z" />
    <glyph glyph-name="one.tf" 
d="M232 0v536l-168 -28v48l260 100v-656h-92z" />
    <glyph glyph-name="two.tf" 
d="M52 0l-20 48l108 116q56 59 78 84t53 66.5t42 73.5t11 68q0 56 -32.5 84t-91.5 28q-81 0 -148 -32l24 92q53 28 148 28q89 0 144.5 -48.5t55.5 -131.5q0 -32 -10.5 -65t-24 -58t-39 -58t-42 -50.5t-49 -51t-43.5 -45.5l-60 -64h292v-84h-396z" />
    <glyph glyph-name="three.tf" 
d="M44 12v80q50 -28 140 -28q82 0 121 29t39 91q0 48 -40.5 74t-115.5 26h-88l24 76h92q58 36 83 65t25 71q0 76 -112 76q-62 0 -136 -28l20 92q71 20 136 20q96 0 142 -38.5t46 -101.5q0 -100 -128 -168q67 -14 107.5 -53.5t40.5 -106.5q0 -97 -69 -148.5t-191 -51.5
q-76 0 -136 24z" />
    <glyph glyph-name="four.tf" 
d="M28 148l-16 72l288 412l92 24v-428h92l-16 -80h-76v-148h-88v148h-276zM100 228h204v298z" />
    <glyph glyph-name="five.tf" 
d="M48 12v80q50 -28 136 -28q74 0 119 34.5t45 105.5q0 136 -192 136h-80l20 304h356l-24 -88h-266l-9 -140h19q139 0 205.5 -56t66.5 -144q0 -111 -73.5 -169.5t-194.5 -58.5q-80 0 -128 24z" />
    </font>
</defs>
</svg>
